# Blender v3.2.0 OBJ File: 'GM.blend'
# www.blender.org
mtllib torii_broken_018.mtl
o 鳥居.001_cell.018_鳥居.001_cell.008
v -0.225263 -0.040558 -0.160888
v 0.218238 -0.076885 -0.018234
v 0.196380 -0.077598 -0.012082
v 0.201270 -0.038484 0.059743
v 0.218965 -0.070647 0.042119
v 0.223591 -0.036700 0.050765
v 0.196995 -0.071495 0.050765
v 0.220787 0.106340 0.059743
v 0.234106 0.037879 0.050765
v 0.244620 0.112222 0.050765
v 0.211029 0.034041 0.059743
v 0.249200 0.145536 0.042119
v 0.225058 0.138745 0.050765
v -0.156567 0.070019 -0.012082
v -0.079923 0.066473 0.050765
v -0.079930 0.070412 -0.012082
v -0.156564 0.066031 0.050765
v -0.079869 0.043798 0.059743
v -0.006167 0.048535 0.059743
v -0.005902 0.071658 0.050765
v -0.005862 0.075657 -0.012082
v -0.156541 0.043056 0.059743
v -0.079400 -0.057183 0.059743
v -0.007375 -0.054512 0.059743
v -0.151307 -0.082750 0.050765
v -0.154732 -0.059283 0.059743
v -0.147904 -0.087228 -0.012082
v -0.078922 -0.080346 0.050765
v -0.078491 -0.084774 -0.012082
v -0.007642 -0.078120 0.050765
v -0.007683 -0.082606 -0.012082
v -0.228448 -0.089158 -0.012082
v -0.224781 -0.089653 -0.155734
v -0.248000 -0.060911 0.059743
v -0.238228 -0.084637 0.050765
v -0.252851 0.042584 0.059743
v -0.252842 0.065815 0.050765
v 0.054130 0.085380 0.050765
v 0.054306 0.089646 -0.012082
v 0.052915 0.060398 0.059743
v 0.108260 0.076765 0.059743
v 0.110708 0.104445 0.050765
v 0.111061 0.109124 -0.012082
v 0.047370 -0.051139 0.059743
v 0.097074 -0.046995 0.059743
v 0.046154 -0.076607 0.050765
v 0.045976 -0.081360 -0.012082
v 0.094270 -0.080368 -0.012082
v 0.094624 -0.075181 0.050765
v 0.173284 0.123900 0.050765
v 0.169754 0.093521 0.059743
v 0.153624 -0.042315 0.059743
v 0.150091 -0.073249 0.050765
v 0.149582 -0.078940 -0.012082
v -0.350084 -0.061315 0.059743
v -0.350466 -0.085137 0.050765
v -0.350245 -0.070978 0.056113
v -0.335429 0.004878 0.059743
v -0.317200 -0.089567 -0.012082
v -0.238959 -0.089719 -0.155734
v -0.230871 -0.089629 -0.170545
v 0.045976 -0.081599 -0.082660
v 0.196380 -0.077686 -0.033103
v 0.160312 -0.078771 -0.045021
v 0.149582 -0.079081 -0.048564
v 0.112966 -0.080073 -0.060638
v 0.094269 -0.080561 -0.066798
v 0.249816 0.145707 0.035790
v 0.246830 0.112768 0.027214
v 0.241976 0.071845 0.016191
v 0.224129 -0.071291 -0.022649
v 0.219411 -0.076765 -0.025440
v 0.229556 -0.033146 -0.012082
v 0.238060 0.038537 0.007229
v -0.225201 -0.089597 -0.172202
v -0.217348 -0.089419 -0.169622
v -0.175111 -0.088425 -0.155734
v -0.146712 -0.087689 -0.146380
v -0.078367 -0.085153 -0.123693
v 0.111061 0.109136 -0.017532
v 0.073721 0.096353 -0.032562
v -0.007684 -0.082905 -0.100316
v 0.225292 0.140847 0.026736
v 0.196423 0.133322 0.015661
v 0.173638 0.127482 0.006944
v 0.124807 0.113488 -0.012082
v -0.181798 0.070206 -0.121068
v -0.156566 0.070235 -0.112923
v -0.079929 0.070574 -0.088125
v 0.054306 0.089706 -0.040372
v -0.005861 0.075766 -0.063026
v -0.312233 0.042463 0.059743
v -0.308104 0.047277 0.057895
v -0.250341 0.069847 -0.012082
v -0.292236 0.065752 0.050765
v 0.218965 -0.070647 0.042119
v 0.218965 -0.070647 0.042119
v 0.218965 -0.070647 0.042119
v 0.223591 -0.036700 0.050765
v 0.196995 -0.071495 0.050765
v -0.079923 0.066473 0.050765
v -0.156564 0.066031 0.050765
v -0.005902 0.071658 0.050765
v -0.078922 -0.080346 0.050765
v -0.007642 -0.078120 0.050765
v -0.350466 -0.085137 0.050765
v -0.350466 -0.085137 0.050765
v -0.350245 -0.070978 0.056113
v 0.224129 -0.071291 -0.022649
v 0.224129 -0.071291 -0.022649
v 0.229556 -0.033146 -0.012082
v 0.160312 -0.078771 -0.045021
v 0.149582 -0.079081 -0.048564
v 0.241976 0.071845 0.016191
v 0.238060 0.038537 0.007229
v -0.217348 -0.089419 -0.169622
v -0.175111 -0.088425 -0.155734
v -0.146712 -0.087689 -0.146380
v 0.249816 0.145707 0.035790
v 0.225292 0.140847 0.026736
v 0.150091 -0.073249 0.050765
v 0.249200 0.145536 0.042119
v 0.225058 0.138745 0.050765
v -0.151307 -0.082750 0.050765
v -0.238228 -0.084637 0.050765
v 0.054130 0.085380 0.050765
v -0.317200 -0.089567 -0.012082
v 0.246830 0.112768 0.027214
v 0.234106 0.037879 0.050765
v 0.112966 -0.080073 -0.060638
v 0.219411 -0.076765 -0.025440
v 0.196380 -0.077686 -0.033103
v 0.196423 0.133322 0.015661
v 0.111061 0.109136 -0.017532
v 0.124807 0.113488 -0.012082
v -0.181798 0.070206 -0.121068
v -0.156566 0.070235 -0.112923
v -0.312233 0.042463 0.059743
v -0.335429 0.004878 0.059743
v -0.308104 0.047277 0.057895
v -0.250341 0.069847 -0.012082
v -0.238959 -0.089719 -0.155734
v -0.230871 -0.089629 -0.170545
v 0.244620 0.112222 0.050765
v -0.252842 0.065815 0.050765
v 0.173284 0.123900 0.050765
v -0.225201 -0.089597 -0.172202
v 0.094269 -0.080561 -0.066798
v -0.078367 -0.085153 -0.123693
v 0.073721 0.096353 -0.032562
v 0.173638 0.127482 0.006944
v 0.054306 0.089706 -0.040372
v -0.005861 0.075766 -0.063026
v -0.292236 0.065752 0.050765
v -0.292236 0.065752 0.050765
v 0.046154 -0.076607 0.050765
v 0.045976 -0.081599 -0.082660
v 0.094624 -0.075181 0.050765
v 0.110708 0.104445 0.050765
v -0.350084 -0.061315 0.059743
v -0.007684 -0.082905 -0.100316
v -0.079929 0.070574 -0.088125
vt 0.000000 0.000000
vt 0.456742 0.233380
vt 0.478074 0.398637
vt 0.309428 0.182653
vt 0.235044 0.000000
vt 0.573580 0.219795
vt 0.768086 0.526822
vt 0.659976 0.394080
vt 0.567612 0.083894
vt 1.000000 0.562684
vt 0.538966 0.431871
vt 0.636766 0.294095
vt 0.535368 0.524125
vt 0.562684 0.562684
vt 0.455234 0.000000
vt 0.455348 0.057862
vt 0.125406 0.000000
vt 0.136571 0.080588
vt 0.365248 0.243285
vt 0.332033 0.207253
vt 1.000000 0.544766
vt 1.000000 0.000000
vt 1.000000 0.764956
vt 0.796249 0.561370
vt 0.919103 0.851868
vt 0.898750 0.004531
vt 0.897314 0.031439
vt 0.893002 0.069059
vt 0.889559 0.099716
vt 0.952509 0.753033
vt 0.882001 0.165612
vt 0.985988 0.633638
vt 0.937596 0.796638
vt 0.979678 0.659813
vt 0.876251 0.199726
vt 0.823801 0.177113
vt 0.754746 0.140171
vt 0.863190 0.198080
vt 0.734199 0.129168
vt 0.664081 0.091551
vt 0.628276 0.072324
vt 0.535762 0.022428
vt 0.840670 0.007854
vt 0.846603 0.000000
vt 0.769993 0.105556
vt 0.829571 0.023172
vt 0.730158 0.160936
vt 0.206662 0.623659
vt 0.209259 0.748659
vt 0.208398 0.748659
vt 0.206662 0.720779
vt 0.206662 0.623659
vt 0.206662 0.740520
vt 0.206662 0.623659
vt 0.206662 0.641951
vt 0.206662 0.630973
vt 0.577151 0.306677
vt 0.550129 0.301873
vt 0.577151 0.300912
vt 0.544342 0.306677
vt 0.550129 0.301873
vt 0.550129 0.306677
vt 0.550129 0.301873
vt 0.544342 0.306677
vt 0.550129 0.264402
vt 0.577151 0.300912
vt 0.550129 0.301873
vt 0.577151 0.260559
vt 0.694621 0.306677
vt 0.635992 0.300912
vt 0.694621 0.300912
vt 0.635992 0.306677
vt 0.635991 0.272958
vt 0.635992 0.300912
vt 0.579590 0.260559
vt 0.694621 0.285790
vt 0.694621 0.300912
vt 0.662366 0.278712
vt 0.721048 0.306677
vt 0.721048 0.301873
vt 0.726028 0.306677
vt 0.721048 0.306677
vt 0.726028 0.306677
vt 0.721048 0.306677
vt 0.721048 0.306677
vt 0.694621 0.306677
vt 0.694621 0.306677
vt 0.721048 0.306677
vt 0.721048 0.306677
vt 0.726028 0.306677
vt 0.966808 0.025644
vt 0.966808 0.139999
vt 0.966808 0.177287
vt 0.577151 0.306677
vt 0.550129 0.306677
vt 0.577151 0.306677
vt 0.544342 0.306677
vt 0.550129 0.306677
vt 0.550129 0.306677
vt 0.721048 0.306677
vt 0.726028 0.306677
vt 0.550129 0.306677
vt 0.577151 0.306677
vt 0.966808 0.025644
vt 0.966808 0.068187
vt 0.966808 0.102254
vt 0.206662 0.623659
vt 0.206662 0.671271
vt 0.206662 0.623659
vt 0.208663 0.748659
vt 0.208419 0.748659
vt 0.208230 0.760744
vt 0.207295 0.748659
vt 0.566240 0.316930
vt 0.566225 0.316940
vt 0.577151 0.309559
vt 0.544342 0.306677
vt 0.550129 0.309079
vt 0.550129 0.309079
vt 0.206662 0.623659
vt 0.206662 0.685074
vt 0.635737 0.306677
vt 0.694621 0.306677
vt 0.721048 0.309081
vt 0.721048 0.311829
vt 0.721048 0.312937
vt 0.721048 0.309079
vt 0.721048 0.306677
vt 0.726028 0.306677
vt 0.694621 0.306677
vt 0.721048 0.306677
vt 0.694621 0.306677
vt 0.721048 0.306677
vt 0.721048 0.306677
vt 0.726028 0.306677
vt 0.966807 0.025644
vt 0.966807 0.033841
vt 0.966808 0.056442
vt 0.550129 0.306677
vt 0.577151 0.306677
vt 0.544342 0.306677
vt 0.550129 0.306677
vt 0.550129 0.306677
vt 0.544342 0.306677
vt 0.550129 0.306677
vt 0.550129 0.306677
vt 0.577151 0.306677
vt 0.206662 0.700437
vt 0.206662 0.623659
vt 0.726028 0.306677
vt 0.721048 0.306677
vt 0.724520 0.306677
vt 0.694621 0.306677
vt 0.721048 0.306677
vt 0.721048 0.306677
vt 0.722952 0.306677
vt 0.723830 0.306677
vt 0.966020 0.241667
vt 0.966808 0.025644
vt 0.550129 0.306677
vt 0.577151 0.306677
vt 0.544342 0.306677
vt 0.550129 0.306677
vt 0.550129 0.306677
vt 0.206662 0.623659
vt 0.206662 0.665910
vt 0.206662 0.655404
vt 0.206662 0.623659
vt 0.544342 0.306677
vt 0.550129 0.264402
vt 0.721048 0.301873
vt 0.721755 0.302555
vt 0.717376 0.296132
vt 0.544342 0.306677
vt 0.544342 0.306677
vt 0.208199 0.762985
vt 0.566204 0.316955
vt 0.700061 0.313317
vt 0.700468 0.313598
vt 0.694621 0.309559
vt 0.550129 0.306677
vt 0.966808 0.025644
vt 0.544342 0.306677
vt 0.550129 0.317086
vt 0.206662 0.652321
vt 0.966807 0.025644
vt 0.206662 0.623659
vt 0.721779 0.308726
vt 0.721048 0.309079
vt 0.966808 0.025644
vt 0.635992 0.306677
vt 0.694621 0.306677
vt 0.634811 0.306677
vt 0.614040 0.317087
vt 0.676526 0.315786
vt 0.681609 0.314037
vt 0.966806 0.241667
vn 0.2997 0.2164 -0.9292
vn -0.8620 0.1908 -0.4697
vn -0.7510 0.4635 -0.4704
vn 0.3005 0.2148 -0.9293
vn -0.8620 0.1909 -0.4695
vn -0.8620 0.1909 -0.4697
vn -0.7507 0.4637 -0.4706
vn 0.3005 0.2147 -0.9293
vn 0.3006 0.2147 -0.9293
vn -0.2750 0.2158 -0.9369
vn 0.0143 -0.9992 0.0385
vn 0.0046 -1.0000 0.0011
vn 0.0148 -0.9999 0.0001
vn 0.0337 -0.9994 0.0036
vn 0.0295 -0.9988 0.0379
vn 0.0292 -0.9996 0.0037
vn 0.3890 -0.9192 0.0610
vn 0.0315 -0.9995 0.0030
vn 0.3659 -0.9296 0.0441
vn 0.1928 -0.1491 0.9699
vn 0.3670 -0.2836 0.8860
vn 0.3786 -0.1541 0.9126
vn 0.0410 -0.9977 0.0546
vn 0.0730 -0.9926 0.0969
vn 0.0541 -0.9939 0.0960
vn 0.7119 -0.6994 0.0637
vn 0.7184 -0.6906 0.0836
vn 0.9854 -0.1471 0.0852
vn 0.9840 -0.1578 0.0831
vn 0.9850 -0.1511 0.0836
vn 0.1482 0.1156 0.9822
vn 0.3687 -0.0509 0.9281
vn 0.3198 0.1146 0.9405
vn 0.1885 -0.0260 0.9817
vn 0.9863 -0.1401 0.0875
vn 0.9864 -0.1397 0.0871
vn 0.9876 -0.1289 0.0898
vn 0.9877 -0.1280 0.0893
vn 0.9863 -0.1397 0.0877
vn 0.1543 0.2383 0.9589
vn 0.2783 0.2053 0.9383
vn -0.0036 0.9995 0.0327
vn -0.0375 0.9973 0.0627
vn -0.0378 0.9988 0.0325
vn -0.0133 0.3675 0.9299
vn -0.0020 0.3644 0.9312
vn -0.0064 0.1840 0.9829
vn -0.0228 0.1769 0.9840
vn -0.0518 0.3592 0.9318
vn -0.1462 0.9873 0.0625
vn -0.1487 0.9883 0.0329
vn -0.0312 0.9995 0.0021
vn -0.0031 1.0000 0.0021
vn 0.0044 -0.1814 0.9834
vn 0.0091 -0.3567 0.9342
vn 0.0059 -0.1836 0.9830
vn 0.0327 -0.9969 0.0710
vn 0.0279 -0.9969 0.0732
vn -0.0039 0.9980 0.0634
vn -0.0019 0.9990 0.0441
vn 0.0114 -0.3561 0.9344
vn 0.0067 -0.1803 0.9836
vn -0.2647 0.9643 0.0020
vn -0.1320 0.9912 0.0021
vn 0.0224 -0.9990 0.0388
vn 0.0222 -0.9997 0.0035
vn 0.0240 -0.9988 0.0419
vn 0.0046 -1.0000 -0.0036
vn 0.0140 -0.9999 -0.0038
vn 0.0244 -0.9997 -0.0038
vn 0.0246 -0.9997 0.0031
vn 0.0008 -0.1934 0.9811
vn 0.0015 -0.3526 0.9358
vn 0.0017 -0.1800 0.9837
vn 0.0123 -0.9972 0.0737
vn 0.0045 -0.3528 0.9357
vn 0.0269 -0.9989 0.0373
vn 0.0221 -0.9998 0.0034
vn -0.0011 0.1848 0.9828
vn -0.0006 0.1832 0.9831
vn -0.0006 0.3605 0.9328
vn -0.0007 0.3594 0.9332
vn -0.0011 0.3608 0.9327
vn -0.2711 0.9605 0.0635
vn -0.2754 0.9607 0.0339
vn -0.0428 0.1698 0.9845
vn -0.0923 0.3367 0.9371
vn -0.0497 0.1628 0.9854
vn -0.0943 0.3111 0.9457
vn -0.3089 0.9487 0.0675
vn -0.3126 0.9492 0.0362
vn -0.3162 0.9487 0.0021
vn -0.3246 0.9458 0.0020
vn 0.0139 -0.3363 0.9417
vn 0.0090 -0.1675 0.9858
vn 0.0268 -0.9966 0.0773
vn 0.0283 -0.9970 0.0721
vn 0.0299 -0.9960 0.0842
vn 0.0159 -0.3095 0.9508
vn 0.0099 -0.1521 0.9883
vn 0.0277 -0.9996 0.0034
vn 0.0330 -0.9988 0.0370
vn -0.3019 0.9510 0.0668
vn -0.2872 0.9550 0.0742
vn -0.2911 0.9537 0.0756
vn -0.0423 0.1501 0.9878
vn -0.0809 0.2880 0.9542
vn -0.2624 0.9616 0.0800
vn -0.2623 0.9620 0.0763
vn -0.2757 0.9581 0.0769
vn -0.0018 1.0000 0.0021
vn 0.0154 -0.2843 0.9586
vn 0.0093 -0.1398 0.9901
vn 0.0282 -0.9985 0.0459
vn 0.0342 -0.9952 0.0918
vn 0.1802 -0.2831 0.9420
vn 0.0254 -0.9997 0.0037
vn 0.0265 -0.9996 0.0039
vn 0.9835 -0.1621 0.0800
vn 0.6235 0.7737 0.1124
vn 0.6639 0.7430 0.0847
vn 0.0016 -0.3533 0.9355
vn -0.0002 0.1078 0.9942
vn 0.0116 -0.3612 0.9324
vn 0.0045 -0.9988 0.0490
vn 0.0044 -0.9973 0.0726
vn 0.0281 -0.9996 0.0040
vn -0.0016 0.9980 0.0640
vn -0.0019 0.9980 0.0639
vn 0.0000 0.0000 1.0000
usemtl マテリアル.002
s off
f 1/1/1 89/2/1 91/3/1
f 55/4/2 139/5/2 59/6/2
f 93/7/3 95/8/3 141/9/3
f 150/10/4 82/11/4 79/12/4
f 90/13/1 150/14/1 1/1/1
f 1/1/1 136/15/1 137/16/1
f 1/1/1 137/16/1 89/2/1
f 91/3/1 90/13/1 1/1/1
f 139/5/2 1/1/2 59/6/2
f 1/1/5 143/17/5 60/18/5
f 59/6/6 1/1/6 60/18/6
f 59/6/2 106/19/2 108/20/2
f 108/20/2 55/4/2 59/6/2
f 141/9/7 136/21/7 1/22/7
f 1/22/3 139/23/3 141/9/3
f 139/23/3 92/24/3 141/9/3
f 92/24/3 93/7/3 141/9/3
f 83/25/8 68/26/8 69/27/8
f 70/28/8 74/29/8 85/30/8
f 74/29/8 73/31/8 80/32/8
f 83/25/8 69/27/8 84/33/8
f 69/27/8 70/28/8 84/33/8
f 86/34/8 85/30/8 74/29/8
f 85/30/8 84/33/8 70/28/8
f 74/29/8 80/32/8 86/34/8
f 73/31/9 71/35/9 63/36/9
f 80/32/9 73/31/9 112/37/9
f 71/35/9 72/38/9 63/36/9
f 63/36/9 112/37/9 73/31/9
f 112/37/9 113/39/9 80/32/9
f 113/39/9 66/40/9 150/10/9
f 66/40/9 148/41/9 150/10/9
f 113/39/8 150/10/8 80/32/8
f 148/41/9 62/42/9 150/10/9
f 1/22/4 150/10/4 79/12/4
f 82/11/4 150/10/4 62/42/4
f 75/43/10 143/44/10 1/22/10
f 77/45/4 76/46/4 1/22/4
f 76/46/4 75/43/4 1/22/4
f 79/12/4 78/47/4 1/22/4
f 78/47/4 77/45/4 1/22/4
s 1
f 32/48/11 142/49/12 33/50/13
f 149/51/14 27/52/15 118/53/16
f 2/54/17 132/55/18 131/56/19
f 4/57/20 96/58/21 99/59/22
f 3/60/23 97/61/24 100/62/25
f 98/63/26 2/64/17 110/65/27
f 6/66/28 5/67/29 111/68/30
f 8/69/31 129/70/32 144/71/33
f 11/72/34 99/59/22 129/70/32
f 115/73/35 9/74/36 111/75/30
f 128/76/37 10/77/38 114/78/39
f 123/79/40 144/71/33 12/80/41
f 14/81/42 101/82/43 16/83/44
f 15/84/45 17/85/46 18/86/47
f 15/84/45 19/87/48 103/88/49
f 16/83/44 20/89/50 21/90/51
f 14/91/42 162/92/52 88/93/53
f 26/94/54 124/95/55 23/96/56
f 27/97/15 104/98/57 25/99/58
f 102/100/59 14/81/42 94/101/60
f 23/96/56 30/102/61 24/103/62
f 21/104/51 152/105/63 153/106/64
f 47/107/65 67/108/66 48/109/67
f 33/50/13 61/110/68 147/111/69
f 116/112/70 117/113/71 33/50/13
f 160/114/72 57/115/73 34/116/74
f 32/117/11 25/99/58 125/118/75
f 34/116/74 35/119/76 26/94/54
f 31/120/77 157/121/78 47/107/65
f 23/122/56 18/86/47 22/123/79
f 36/124/80 155/125/81 140/126/82
f 17/85/46 145/127/83 22/123/79
f 117/113/71 27/52/15 32/48/11
f 21/90/51 38/128/84 39/129/85
f 103/88/49 40/130/86 126/131/87
f 126/131/87 41/132/88 42/133/89
f 39/129/85 159/134/90 43/135/91
f 43/136/91 134/137/92 81/138/93
f 24/103/62 46/139/94 44/140/95
f 47/141/65 156/142/96 105/143/97
f 48/144/67 158/145/98 156/142/96
f 44/140/95 49/146/99 45/147/100
f 161/148/101 29/149/102 149/51/14
f 135/150/103 146/151/104 151/152/105
f 42/133/89 51/153/106 50/154/107
f 50/154/107 8/69/31 123/79/40
f 13/155/108 120/156/109 133/157/110
f 14/91/42 87/158/111 94/159/60
f 45/147/100 121/160/112 52/161/113
f 54/162/114 53/163/115 158/145/98
f 3/60/23 100/62/25 53/163/115
f 52/161/113 7/164/116 4/57/20
f 54/165/114 130/166/117 65/167/118
f 54/165/114 132/55/18 3/168/23
f 4/57/20 7/164/116 96/58/21
f 2/64/17 97/61/24 3/60/23
f 110/65/27 2/64/17 131/169/19
f 111/68/30 5/67/29 109/170/119
f 8/69/31 11/72/34 129/70/32
f 11/72/34 4/57/20 99/59/22
f 9/74/36 6/66/28 111/68/30
f 9/74/36 114/78/39 10/77/38
f 120/156/109 122/171/120 119/172/121
f 123/79/40 8/69/31 144/71/33
f 122/171/120 128/76/37 119/173/121
f 17/85/46 22/123/79 18/86/47
f 15/84/45 18/86/47 19/87/48
f 16/83/44 101/82/43 20/89/50
f 105/143/97 29/174/102 31/175/77
f 27/97/15 29/174/102 104/98/57
f 33/50/13 147/176/69 116/112/70
f 34/116/74 107/177/122 35/119/76
f 32/117/11 27/97/15 25/99/58
f 26/94/54 35/119/76 124/95/55
f 140/178/82 138/179/123 36/180/80
f 145/127/83 36/180/80 22/123/79
f 28/181/124 23/96/56 124/95/55
f 21/90/51 20/89/50 38/128/84
f 103/88/49 19/87/48 40/130/86
f 126/131/87 40/130/86 41/132/88
f 39/129/85 38/128/84 159/134/90
f 24/103/62 30/102/61 46/139/94
f 31/175/77 47/141/65 105/143/97
f 47/141/65 48/144/67 156/142/96
f 44/140/95 46/139/94 49/146/99
f 43/135/91 159/134/90 146/151/104
f 42/133/89 41/132/88 51/153/106
f 50/154/107 51/153/106 8/69/31
f 146/151/104 133/157/110 151/152/105
f 16/182/44 153/106/64 162/92/52
f 127/183/125 125/118/75 56/184/126
f 45/147/100 49/146/99 121/160/112
f 48/144/67 54/162/114 158/145/98
f 54/162/114 3/60/23 53/163/115
f 52/161/113 121/160/112 7/164/116
f 48/109/67 67/108/66 130/166/117
f 54/165/114 65/167/118 64/185/127
f 134/137/92 43/136/91 135/186/103
f 32/48/11 127/187/125 142/49/12
f 149/51/14 29/149/102 27/52/15
f 2/54/17 3/168/23 132/55/18
f 14/81/42 102/100/59 101/82/43
f 14/91/42 16/182/44 162/92/52
f 94/101/60 154/188/128 37/189/129
f 37/189/129 102/100/59 94/101/60
f 21/104/51 39/190/85 152/105/63
f 47/107/65 157/121/78 67/108/66
f 33/50/13 142/49/12 61/110/68
f 31/120/77 161/148/101 157/121/78
f 24/103/62 44/140/95 19/87/48
f 44/140/95 45/147/100 40/130/86
f 52/161/113 4/191/20 11/192/34
f 44/140/95 40/130/86 19/87/48
f 45/147/100 52/161/113 41/132/88
f 40/130/86 45/147/100 41/132/88
f 26/193/54 23/122/56 22/123/79
f 23/122/56 24/103/62 18/86/47
f 18/86/47 24/103/62 19/87/48
f 160/194/72 34/116/74 58/195/130
f 34/116/74 26/193/54 22/123/79
f 138/196/123 58/195/130 36/180/80
f 36/180/80 58/195/130 34/116/74
f 34/116/74 22/123/79 36/180/80
f 52/161/113 11/192/34 41/132/88
f 11/192/34 8/69/31 51/153/106
f 51/153/106 41/132/88 11/192/34
f 36/124/80 145/127/83 155/125/81
f 32/48/11 33/50/13 117/113/71
f 117/113/71 118/53/16 27/52/15
f 81/138/93 152/105/63 39/190/85
f 39/190/85 43/136/91 81/138/93
f 161/148/101 31/120/77 29/149/102
f 135/150/103 43/135/91 146/151/104
f 14/91/42 88/197/53 87/158/111
f 54/165/114 48/109/67 130/166/117
f 54/165/114 64/185/127 132/55/18
f 9/74/36 115/73/35 114/78/39
f 120/156/109 13/155/108 122/171/120
f 122/171/120 10/77/38 128/76/37
f 105/143/97 104/98/57 29/174/102
f 34/116/74 57/115/73 107/177/122
f 28/181/124 30/102/61 23/96/56
f 146/151/104 13/155/108 133/157/110
f 16/182/44 21/104/51 153/106/64
f 127/183/125 32/117/11 125/118/75
