# Blender v3.2.0 OBJ File: 'GM.blend'
# www.blender.org
mtllib torii_broken_034.mtl
o 鳥居.001_cell.033_鳥居.001_cell.020
v 0.288466 0.059294 0.240551
v 0.130903 0.065239 0.240551
v 0.202284 -0.095926 -0.002656
v -0.272291 0.065239 0.217203
v -0.081106 -0.095926 -0.019066
v -0.286451 0.065239 0.216265
v -0.132012 -0.095926 -0.022439
v 0.292872 0.065239 0.240551
v 0.224562 -0.095926 -0.190403
v 0.344007 0.065239 -0.190403
v -0.229642 0.065239 -0.158942
v -0.106580 -0.095926 -0.190403
v -0.150321 -0.036335 -0.190403
v -0.224692 0.065239 -0.190403
v 0.288466 0.059294 0.240551
v 0.130903 0.065239 0.240551
v 0.130903 0.065239 0.240551
v 0.202284 -0.095926 -0.002656
v -0.081106 -0.095926 -0.019066
v -0.132012 -0.095926 -0.022439
v 0.292872 0.065239 0.240551
v 0.292872 0.065239 0.240551
v 0.224562 -0.095926 -0.190403
v 0.224562 -0.095926 -0.190403
v 0.344007 0.065239 -0.190403
v 0.344007 0.065239 -0.190403
v -0.224692 0.065239 -0.190403
v -0.224692 0.065239 -0.190403
v -0.229642 0.065239 -0.158942
v -0.272291 0.065239 0.217203
v -0.286451 0.065239 0.216265
v -0.150321 -0.036335 -0.190403
v -0.106580 -0.095926 -0.190403
v -0.106580 -0.095926 -0.190403
vt 0.358480 0.119173
vt 1.000000 0.160885
vt 1.000000 0.578418
vt 0.160885 0.160885
vt 0.583833 0.000000
vt 0.578418 0.578418
vt 1.000000 0.549100
vt 0.674909 0.555766
vt 0.237661 0.118164
vt 0.656512 0.000000
vt 1.000000 0.416167
vt 0.497008 0.000000
vt 0.656512 0.656512
vt 0.497008 0.497008
vt 0.656547 0.269383
vt 0.549100 0.549100
vt 0.119004 0.119004
vt 0.162392 0.000000
vt 0.983871 0.102862
vt 1.000000 0.119004
vt 0.774832 0.041205
vt 1.000000 0.837608
vt 0.903405 0.714094
vt 0.906516 0.710983
vt 0.906927 0.710572
vt 0.948647 0.668853
vt 0.952034 0.657036
vt 0.954036 0.663463
vt 0.871101 0.681791
vt 0.871310 0.657036
vt 0.873973 0.657036
vt 0.921211 0.631681
vt 0.921253 0.631639
vt 0.919731 0.633161
vt 0.907626 0.709873
vt 0.902283 0.715216
vt 0.948693 0.668806
vt 0.948113 0.657036
vt 0.948246 0.657036
vt 0.953556 0.657036
vt 0.874451 0.657036
vt 0.874212 0.678680
vn -0.0316 -0.8374 0.5457
vn -0.0360 -0.8389 0.5431
vn 0.7998 -0.5927 0.0949
vn -0.8002 -0.5874 -0.1212
vn -0.8004 -0.5861 -0.1259
vn 0.7998 -0.5928 0.0949
vn -0.0000 0.0000 -1.0000
vn 0.0000 1.0000 -0.0000
vn 0.0000 -1.0000 -0.0000
vn 0.0000 0.0000 1.0000
usemtl マテリアル.002
s off
f 16/1/1 30/2/1 19/3/1
f 30/4/2 20/5/2 19/6/2
f 18/7/3 23/8/3 25/9/3
f 32/10/4 20/11/4 29/12/4
f 32/13/5 29/14/5 28/15/5
f 19/3/1 18/16/1 16/1/1
f 18/16/1 15/17/1 16/1/1
f 30/4/2 31/18/2 20/5/2
f 25/9/3 21/19/3 18/7/3
f 21/19/6 15/20/6 18/7/6
f 33/21/4 20/11/4 32/10/4
f 20/11/4 31/22/4 29/12/4
s 1
f 24/23/7 34/24/7 13/25/7
f 11/26/8 17/27/8 10/28/8
f 9/29/9 3/30/9 5/31/9
f 1/32/10 8/33/10 2/34/10
f 13/25/7 27/35/7 26/36/7
f 26/36/7 24/23/7 13/25/7
f 14/37/8 11/26/8 10/28/8
f 11/26/8 6/38/8 4/39/8
f 17/27/8 11/26/8 4/39/8
f 17/27/8 22/40/8 10/28/8
f 7/41/9 12/42/9 5/31/9
f 12/42/9 9/29/9 5/31/9
