# Blender v3.2.0 OBJ File: 'GM.blend'
# www.blender.org
mtllib torii_broken_014.mtl
o 鳥居.001_cell.014_鳥居.001_cell.040
v -0.056818 0.037781 -0.013084
v -0.046984 0.068773 0.003292
v 0.015002 0.051917 -0.079202
v -0.064667 -0.092391 0.024349
v -0.053593 0.068773 0.010640
v -0.052993 0.068773 0.029182
v -0.049895 0.068773 0.110237
v 0.068257 0.068773 0.148671
v -0.062977 -0.092391 0.068570
v 0.068257 -0.092391 0.111305
v 0.068257 -0.092391 -0.079202
v 0.068257 0.068773 -0.079202
v 0.054243 -0.092391 -0.079202
v -0.016294 -0.092391 -0.017948
v 0.033447 -0.016757 -0.079202
v 0.028501 0.068773 -0.079202
v -0.049895 0.068773 0.110237
v -0.052993 0.068773 0.029182
v -0.053593 0.068773 0.010640
v 0.068257 0.068773 0.148671
v 0.068257 0.068773 0.148671
v 0.068257 -0.092391 0.111305
v 0.068257 -0.092391 0.111305
v -0.062977 -0.092391 0.068570
v -0.064667 -0.092391 0.024349
v 0.068257 -0.092391 -0.079202
v 0.068257 -0.092391 -0.079202
v 0.068257 0.068773 -0.079202
v 0.068257 0.068773 -0.079202
v 0.054243 -0.092391 -0.079202
v 0.054243 -0.092391 -0.079202
v -0.016294 -0.092391 -0.017948
v 0.033447 -0.016757 -0.079202
v 0.015002 0.051917 -0.079202
v 0.028501 0.068773 -0.079202
v 0.028501 0.068773 -0.079202
v -0.046984 0.068773 0.003292
vt 0.089169 0.089169
vt 0.000000 0.000000
vt 0.341483 0.000000
vt 0.495701 0.495701
vt 0.089169 0.000000
vt 0.599276 0.555701
vt 0.337876 0.337876
vt 1.000000 0.000000
vt 0.653457 0.653457
vt 1.000000 0.256683
vt 1.000000 0.767541
vt 0.297060 0.297060
vt 1.000000 0.297060
vt 0.658517 0.000000
vt 0.448381 0.222081
vt 0.232459 0.000000
vt 0.743317 0.000000
vt 0.653142 0.119159
vt 0.337876 0.000000
vt 0.653457 0.000000
vt 0.383507 0.000000
vt 1.000000 0.495701
vt 0.616493 0.000000
vt 0.388732 0.216922
vt 0.960463 0.657036
vt 0.960090 0.657409
vt 0.959380 0.658119
vt 0.864785 0.657036
vt 0.864801 0.657036
vt 0.864346 0.657036
vt 0.895856 0.606709
vt 0.928160 0.592429
vt 0.928160 0.609510
vt 0.896183 0.721316
vt 0.896356 0.721143
vt 0.895856 0.721643
vt 0.959318 0.658181
vt 0.959324 0.658175
vt 0.959353 0.658146
vt 0.960463 0.657036
vt 0.863684 0.689208
vt 0.863552 0.657036
vt 0.863552 0.657036
vt 0.895856 0.592429
vt 0.896230 0.721269
vt 0.895856 0.721643
vt 0.895988 0.721511
vn -0.6405 0.5077 -0.5762
vn -0.6352 0.5087 -0.5812
vn -0.6482 -0.1741 -0.7413
vn -0.9967 0.0711 0.0381
vn -0.9964 0.0790 0.0322
vn -0.3024 -0.2155 0.9285
vn -0.6453 -0.1774 -0.7431
vn -0.3021 -0.2153 0.9286
vn 0.0000 1.0000 -0.0000
vn 0.0000 -1.0000 -0.0000
vn 1.0000 -0.0000 0.0000
vn 0.0000 0.0000 -1.0000
usemtl マテリアル.002
s off
f 37/1/1 1/2/1 19/3/1
f 34/4/2 37/5/2 36/6/2
f 14/7/3 1/8/3 15/9/3
f 24/10/4 17/11/4 18/12/4
f 1/8/5 18/13/5 19/14/5
f 22/15/6 17/16/6 24/17/6
f 13/18/7 14/19/7 15/20/7
f 34/4/2 1/2/2 37/5/2
f 25/21/3 1/8/3 14/7/3
f 1/8/3 34/22/3 15/9/3
f 18/12/4 1/2/4 24/10/4
f 1/2/4 25/23/4 24/10/4
f 22/15/8 21/24/8 17/16/8
s 1
f 29/25/9 35/26/9 2/27/9
f 9/28/10 4/29/10 32/30/10
f 10/31/11 28/32/11 8/33/11
f 33/34/12 3/35/12 12/36/12
f 5/37/9 6/38/9 2/27/9
f 6/38/9 7/39/9 20/40/9
f 2/27/9 6/38/9 20/40/9
f 20/40/9 29/25/9 2/27/9
f 32/30/10 30/41/10 26/42/10
f 26/42/10 23/43/10 32/30/10
f 23/43/10 9/28/10 32/30/10
f 10/31/11 27/44/11 28/32/11
f 3/35/12 16/45/12 12/36/12
f 12/36/12 11/46/12 33/34/12
f 11/46/12 31/47/12 33/34/12
