# Blender v3.2.0 OBJ File: 'GM.blend'
# www.blender.org
mtllib torii_broken_017.mtl
o 鳥居.001_cell.017_鳥居.001_cell.007
v 0.266673 0.016559 -0.073673
v 0.270047 0.030850 0.001214
v -0.003159 -0.013665 -0.198629
v 0.010449 -0.018208 -0.135782
v 0.015552 -0.018705 0.007870
v 0.010449 -0.018208 0.151522
v -0.003159 -0.013665 0.214369
v -0.016763 0.010176 0.223347
v 0.264590 -0.017492 -0.008211
v 0.146628 0.016420 0.223347
v 0.145404 0.010818 0.223347
v 0.145255 0.000948 0.219639
v 0.145061 -0.013004 0.214369
v 0.255862 -0.017590 0.007870
v 0.178119 -0.017435 0.151522
v -0.310645 0.009959 0.223347
v -0.259512 0.009996 -0.207607
v -0.266566 0.001057 -0.204249
v -0.256271 0.014350 -0.207607
v -0.320875 -0.004656 0.217857
v -0.248459 0.093480 0.223347
v -0.327294 -0.013926 0.214369
v -0.323190 -0.018479 0.151522
v -0.306500 -0.018966 0.007870
v -0.278247 -0.013886 -0.198629
v -0.289071 -0.018451 -0.135782
v 0.146109 -0.001617 -0.202928
v 0.126825 -0.000867 -0.203244
v 0.159405 0.076477 0.223347
v 0.161440 -0.002421 -0.202599
v 0.230436 -0.017194 -0.135782
v 0.263443 -0.017173 -0.099204
v 0.171173 -0.012888 -0.198629
v -0.153871 0.010074 -0.207607
v -0.013578 0.004593 -0.205504
v 0.264241 -0.017258 -0.074418
v 0.263443 -0.017173 -0.099204
v 0.264241 -0.017258 -0.074418
v -0.003159 -0.013665 0.214369
v 0.145061 -0.013004 0.214369
v 0.145061 -0.013004 0.214369
v -0.259512 0.009996 -0.207607
v -0.266566 0.001057 -0.204249
v -0.256271 0.014350 -0.207607
v -0.327294 -0.013926 0.214369
v -0.327294 -0.013926 0.214369
v 0.264590 -0.017492 -0.008211
v -0.003159 -0.013665 -0.198629
v 0.171173 -0.012888 -0.198629
v 0.171173 -0.012888 -0.198629
v 0.146628 0.016420 0.223347
v 0.145404 0.010818 0.223347
v 0.161440 -0.002421 -0.202599
v 0.145255 0.000948 0.219639
v 0.255862 -0.017590 0.007870
v -0.320875 -0.004656 0.217857
v -0.323190 -0.018479 0.151522
v -0.306500 -0.018966 0.007870
v -0.310645 0.009959 0.223347
v -0.278247 -0.013886 -0.198629
v -0.278247 -0.013886 -0.198629
v -0.289071 -0.018451 -0.135782
v -0.153871 0.010074 -0.207607
v 0.159405 0.076477 0.223347
v 0.178119 -0.017435 0.151522
v 0.126825 -0.000867 -0.203244
v -0.013578 0.004593 -0.205504
v 0.146109 -0.001617 -0.202928
v 0.230436 -0.017194 -0.135782
v -0.248459 0.093480 0.223347
vt 0.642203 0.097316
vt 0.176209 0.121282
vt 0.000000 0.000000
vt 0.118761 0.000000
vt 0.881129 0.000000
vt 1.000000 0.124816
vt 0.296320 0.245955
vt 0.546579 0.500087
vt 0.124816 0.124816
vt 1.000000 0.000000
vt 0.739192 0.739192
vt 0.000000 0.000000
vt 0.375784 0.000000
vt 0.512963 0.204422
vt 0.111892 0.000000
vt 0.375784 0.375784
vt 1.000000 0.152676
vt 0.111892 0.111892
vt 1.000000 1.000000
vt 0.233215 0.233215
vt 1.000000 0.232604
vt 0.280215 0.161390
vt 0.118871 0.000000
vt 0.881239 0.000000
vt 0.123674 0.123674
vt 0.767396 0.000000
vt 0.785274 0.014152
vt 0.804732 0.039696
vt 0.832148 0.075808
vt 0.920193 0.039066
vt 1.000000 0.871560
vt 0.868200 0.749469
vt 0.890652 0.865397
vt 0.871560 0.871560
vt 0.794121 0.754219
vt 0.175066 0.134770
vt 1.000000 0.640522
vt 0.712588 0.574032
vt 0.640522 0.640522
vt 1.000000 0.000000
vt 0.233215 0.000000
vt 0.669811 0.547166
vt 1.000000 0.739192
vt 0.940369 0.802887
vt 0.203446 0.143101
vt 0.202643 0.132145
vt 0.202668 0.132481
vt 0.144415 0.185042
vt 0.155011 0.174581
vt 0.144415 0.185042
vt 0.550129 0.327814
vt 0.566004 0.317090
vt 0.577151 0.329736
vt 0.562121 0.356147
vt 0.561804 0.356704
vt 0.155011 0.172433
vt 0.155011 0.173748
vt 0.155011 0.174581
vt 0.206662 0.873659
vt 0.207803 0.820284
vt 0.209434 0.748659
vt 0.240230 0.808337
vt 0.224023 0.748659
vt 0.250135 0.748659
vt 0.550129 0.327814
vt 0.546839 0.355123
vt 0.544342 0.306677
vt 0.206662 0.623659
vt 0.242185 0.692785
vt 0.550129 0.317241
vt 0.154491 0.130480
vt 0.192082 0.143005
vt 0.155011 0.159630
vt 0.144415 0.183086
vt 0.144415 0.141836
vt 0.149834 0.131409
vt 0.565971 0.317112
vt 0.565989 0.317099
vt 0.180445 0.170912
vt 0.192902 0.157861
vt 0.613543 0.317257
vt 0.613817 0.317163
vt 0.206662 0.623659
vt 0.155011 0.159630
vt 0.562626 0.355259
vt 0.155011 0.170780
vt 0.206662 0.873659
vt 0.207517 0.841577
vt 0.208899 0.748659
vt 0.224427 0.748659
vt 0.546797 0.355477
vt 0.244070 0.696452
vt 0.544342 0.306677
vt 0.181883 0.131238
vt 0.182522 0.131974
vt 0.154991 0.158527
vt 0.675897 0.316003
vt 0.671299 0.349229
vt 0.604642 0.354836
vn 0.8636 -0.1887 0.4676
vn -0.7985 0.5945 -0.0947
vn -0.8013 0.5906 -0.0951
vn 0.0554 0.9803 -0.1896
vn 0.6804 0.3997 -0.6142
vn 0.9970 -0.0710 -0.0324
vn 0.9974 -0.0716 -0.0055
vn 0.8643 -0.1839 0.4682
vn 0.0410 0.9826 -0.1812
vn 0.9939 -0.1075 -0.0243
vn 0.0412 0.9826 -0.1813
vn 0.0411 0.9826 -0.1812
vn 0.0411 0.9826 -0.1811
vn 0.0003 -0.3477 -0.9376
vn 0.0002 -0.2509 -0.9680
vn 0.0000 0.0000 -1.0000
vn 0.0028 -0.9993 -0.0381
vn 0.0046 -0.9973 -0.0727
vn 0.0046 -0.9998 -0.0217
vn 0.0010 -0.3520 0.9360
vn 0.0007 -0.1661 0.9861
vn 0.0003 -0.1791 0.9838
vn 0.0003 -0.3522 0.9359
vn 0.0003 -0.3523 0.9359
vn 0.0016 -0.3533 -0.9355
vn 0.0046 -1.0000 -0.0036
vn 0.0046 -1.0000 -0.0011
vn 0.0008 -0.9994 -0.0347
vn 0.0028 -1.0000 0.0000
vn 0.0008 -1.0000 0.0003
vn 0.0024 -0.9974 0.0726
vn 0.0008 -0.9992 0.0399
vn 0.0028 -0.9993 0.0381
vn 0.0046 -0.9973 0.0728
vn 0.0003 -0.3522 -0.9359
vn 0.0010 -0.3520 -0.9360
vn 0.0024 -0.9974 -0.0726
vn 0.0008 -0.9974 -0.0723
vn 0.0016 -0.3533 0.9355
vn 0.0015 -0.3525 0.9358
vn 0.0006 -0.3521 -0.9360
vn 0.0000 0.0000 1.0000
vn 0.0046 -0.9996 0.0275
vn 0.0002 -0.2491 0.9685
vn 0.0008 -0.9974 0.0723
vn 0.0003 -0.3521 -0.9360
usemtl マテリアル.002
s off
f 65/1/1 55/2/1 2/3/1
f 70/4/2 44/5/2 43/6/2
f 26/7/3 58/8/3 43/9/3
f 1/10/4 68/11/4 2/3/4
f 1/12/5 37/13/5 31/14/5
f 1/12/6 38/15/6 37/16/6
f 1/12/7 47/17/7 38/18/7
f 2/19/8 64/20/8 51/21/8
f 34/22/9 44/23/9 70/24/9
f 55/2/1 47/25/1 2/3/1
f 2/3/1 51/26/1 65/1/1
f 51/26/1 11/27/1 12/28/1
f 65/1/1 51/26/1 12/28/1
f 12/28/1 41/29/1 65/1/1
f 42/30/2 43/6/2 44/5/2
f 43/6/2 56/31/2 70/4/2
f 56/31/2 16/32/2 70/4/2
f 46/33/3 56/34/3 57/35/3
f 56/34/3 43/9/3 58/8/3
f 57/35/3 56/34/3 58/8/3
f 43/9/3 61/36/3 26/7/3
f 1/10/4 53/37/4 68/11/4
f 31/14/5 50/38/5 53/39/5
f 53/39/5 1/12/5 31/14/5
f 1/12/10 2/40/10 47/17/10
f 70/24/9 64/41/9 35/42/9
f 64/41/11 2/40/11 35/42/11
f 2/40/11 68/43/11 28/44/11
f 28/44/12 35/42/12 2/40/12
f 35/42/13 34/22/13 70/24/13
s 1
f 63/45/14 17/46/15 19/47/16
f 4/48/17 49/49/18 69/50/19
f 39/51/20 52/52/21 8/53/22
f 20/54/23 45/55/24 39/51/20
f 27/56/25 30/57/25 33/58/25
f 69/59/19 36/60/26 14/61/27
f 62/62/28 5/63/29 24/64/30
f 7/65/31 23/66/32 6/67/33
f 6/68/33 24/69/30 5/63/29
f 6/67/33 40/70/34 7/65/31
f 60/71/35 63/72/14 3/73/36
f 48/74/37 62/75/28 25/76/38
f 39/51/20 13/77/39 54/78/40
f 66/79/25 3/73/36 67/80/41
f 8/53/22 52/81/21 10/82/42
f 5/63/29 15/83/43 6/68/33
f 4/48/17 48/84/37 49/49/18
f 39/51/20 54/78/40 52/52/21
f 8/53/22 59/85/44 39/51/20
f 59/85/44 20/54/23 39/51/20
f 3/73/36 66/86/25 33/58/25
f 66/86/25 27/56/25 33/58/25
f 14/61/27 5/63/29 69/59/19
f 5/63/29 4/87/17 69/59/19
f 69/59/19 32/88/26 36/60/26
f 14/61/27 36/60/26 9/89/26
f 62/62/28 4/90/17 5/63/29
f 7/65/31 22/91/45 23/66/32
f 6/68/33 23/92/32 24/69/30
f 6/67/33 15/93/43 40/70/34
f 60/71/35 18/94/46 63/72/14
f 18/94/46 17/95/15 63/72/14
f 63/72/14 67/96/41 3/73/36
f 48/74/37 4/48/17 62/75/28
f 10/82/42 29/97/42 8/53/22
f 29/97/42 21/98/42 8/53/22
f 21/98/42 59/99/44 8/53/22
f 5/63/29 14/61/27 15/83/43
