# Blender v3.2.0 OBJ File: 'GM.blend'
# www.blender.org
mtllib torii_broken_033.mtl
o 鳥居.001_cell.032_鳥居.001_cell.019
v -0.422808 -0.065602 -0.188016
v -0.332227 0.011397 0.182010
v -0.347359 -0.065602 0.153313
v -0.340911 -0.065602 0.182010
v 0.012169 -0.065602 0.182010
v 0.410269 -0.026404 0.182010
v 0.559683 -0.065602 -0.061984
v -0.322685 0.095561 0.182010
v -0.415949 0.007110 -0.191098
v -0.407611 0.080656 -0.191098
v -0.379517 -0.065602 0.009166
v -0.397653 0.095561 -0.154039
v 0.416738 -0.025748 0.182010
v 0.592699 -0.065602 -0.077014
v -0.401380 0.095561 -0.191098
v 0.671273 -0.065602 -0.191098
v 0.681136 0.095561 -0.191098
v 0.424132 0.095561 0.182010
v -0.340911 -0.065602 0.182010
v -0.340911 -0.065602 0.182010
v 0.012169 -0.065602 0.182010
v 0.012169 -0.065602 0.182010
v 0.559683 -0.065602 -0.061984
v 0.592699 -0.065602 -0.077014
v -0.401380 0.095561 -0.191098
v -0.401380 0.095561 -0.191098
v 0.681136 0.095561 -0.191098
v 0.681136 0.095561 -0.191098
v -0.397653 0.095561 -0.154039
v 0.671273 -0.065602 -0.191098
v 0.671273 -0.065602 -0.191098
v -0.422808 -0.065602 -0.188016
v -0.422808 -0.065602 -0.188016
v -0.415949 0.007110 -0.191098
v 0.424132 0.095561 0.182010
v 0.424132 0.095561 0.182010
v -0.379517 -0.065602 0.009166
v -0.332227 0.011397 0.182010
v -0.347359 -0.065602 0.153313
v 0.410269 -0.026404 0.182010
v -0.322685 0.095561 0.182010
v -0.322685 0.095561 0.182010
v -0.407611 0.080656 -0.191098
v 0.416738 -0.025748 0.182010
vt 0.879034 0.000000
vt 0.899197 0.221496
vt 0.676988 0.000000
vt 0.829152 0.000000
vt 0.829161 0.592763
vt 0.397696 0.000000
vt 0.482462 0.417199
vt 0.764467 0.000000
vt 1.000000 0.700077
vt 1.000000 0.234426
vt 0.700077 0.700077
vt 0.227013 0.227013
vt 1.000000 0.602304
vt 0.826856 0.000000
vt 1.000000 0.170848
vt 0.169983 0.000000
vt 0.235533 0.000000
vt 0.169954 0.038215
vt 0.362666 0.362666
vt 0.198333 0.158778
vt 0.566627 0.163900
vt 0.830017 0.000000
vt 1.000000 0.227013
vt 0.879034 0.879034
vt 0.676988 0.676988
vt 0.362666 0.000000
vt 0.829282 0.767624
vt 0.826856 0.826856
vt 0.729159 0.931857
vt 0.717318 0.943698
vt 0.718525 0.942491
vt 0.793536 0.941869
vt 0.802426 0.918405
vt 0.793496 0.941909
vt 0.757049 0.903967
vt 0.756955 0.904061
vt 0.760775 0.900241
vt 0.754512 0.980893
vt 0.766355 0.969050
vt 0.766274 0.969131
vt 0.718168 0.942848
vt 0.724448 0.918405
vt 0.728267 0.918405
vt 0.728337 0.918405
vt 0.728685 0.932331
vt 0.794347 0.918405
vt 0.805206 0.930199
vt 0.765151 0.895865
vt 0.765231 0.895785
vt 0.765081 0.895935
vt 0.757152 0.903864
vt 0.766183 0.969222
vt 0.766116 0.969289
vt 0.754406 0.980999
vn -0.9698 0.1094 0.2179
vn 0.0957 -0.9720 0.2148
vn -0.9701 0.1100 0.2164
vn -0.9718 0.1007 0.2134
vn 0.0985 -0.9713 0.2164
vn -0.9187 0.3840 0.0924
vn 0.8225 -0.0503 0.5665
vn 0.8225 -0.0501 0.5665
vn 0.0000 -1.0000 -0.0000
vn 0.0000 1.0000 -0.0000
vn 0.0000 0.0000 1.0000
vn -0.0001 -0.0017 -1.0000
vn -0.0028 -0.0421 -0.9991
vn -0.0014 -0.0215 -0.9998
vn 0.0000 0.0000 -1.0000
usemtl マテリアル.002
s off
f 39/1/1 20/2/1 38/3/1
f 40/4/2 22/5/2 23/6/2
f 41/7/3 29/8/3 37/9/3
f 32/10/4 37/11/4 34/12/4
f 23/13/5 44/14/5 40/15/5
f 43/16/6 29/17/6 26/18/6
f 24/19/7 31/20/7 28/21/7
f 43/22/3 34/23/3 29/8/3
f 34/23/3 37/9/3 29/8/3
f 37/9/3 39/24/3 38/25/3
f 38/25/3 41/7/3 37/9/3
f 23/13/5 24/26/5 44/14/5
f 28/21/7 18/27/7 24/19/7
f 18/27/8 44/28/8 24/19/8
s 1
f 33/29/9 30/30/9 7/31/9
f 12/32/10 35/33/10 25/34/10
f 2/35/11 4/36/11 5/37/11
f 16/38/12 1/39/13 9/40/14
f 30/30/9 14/41/9 7/31/9
f 7/31/9 21/42/9 33/29/9
f 21/42/9 19/43/9 3/44/9
f 11/45/9 21/42/9 3/44/9
f 11/45/9 33/29/9 21/42/9
f 42/46/10 35/33/10 12/32/10
f 35/33/10 27/47/10 25/34/10
f 13/48/11 36/49/11 6/50/11
f 36/49/11 8/51/11 5/37/11
f 6/50/11 36/49/11 5/37/11
f 8/51/11 2/35/11 5/37/11
f 10/52/15 15/53/15 9/40/14
f 15/53/15 17/54/15 16/38/12
f 9/40/14 15/53/15 16/38/12
