# Blender v3.2.0 OBJ File: 'GM.blend'
# www.blender.org
mtllib torii_broken_011.mtl
o 鳥居.001_cell.011_鳥居.001_cell.037
v 0.044843 -0.072704 -0.208496
v 0.015130 -0.048815 -0.217474
v -0.114935 -0.072576 -0.208496
v 0.091285 -0.077298 -0.145649
v 0.187575 -0.077877 -0.001997
v -0.130337 -0.077118 -0.145649
v -0.139115 -0.077249 -0.106019
v -0.151306 -0.077435 -0.049983
v -0.087549 0.082812 -0.091717
v -0.090163 0.082839 -0.079595
v -0.080517 0.082740 -0.123737
v -0.075665 0.082691 -0.145649
v -0.099334 -0.032728 -0.217474
v -0.074053 0.040907 -0.217474
v -0.104803 -0.048727 -0.217474
v -0.073691 0.082054 -0.155518
v -0.067738 0.082688 -0.145649
v 0.027779 0.082965 -0.001997
v 0.123837 0.082620 0.141655
v -0.061878 0.082997 -0.001997
v -0.009797 0.082667 0.141655
v 0.004354 0.079940 0.183939
v -0.110741 -0.077413 0.061560
v 0.011335 0.078611 0.204502
v 0.169753 0.078553 0.204502
v 0.004248 0.055256 0.213480
v 0.198964 0.055172 0.213480
v -0.042047 -0.048773 0.213480
v 0.302486 -0.049028 0.213480
v -0.055967 -0.072623 0.204502
v -0.081130 -0.077158 0.141655
v 0.320247 -0.072925 0.204502
v 0.282870 -0.077453 0.141655
v -0.133941 -0.077616 -0.001997
v 0.044843 -0.072704 -0.208496
v 0.044843 -0.072704 -0.208496
v 0.015130 -0.048815 -0.217474
v -0.114935 -0.072576 -0.208496
v -0.114935 -0.072576 -0.208496
v 0.091285 -0.077298 -0.145649
v 0.187575 -0.077877 -0.001997
v -0.139115 -0.077249 -0.106019
v -0.130337 -0.077118 -0.145649
v -0.151306 -0.077435 -0.049983
v -0.090163 0.082839 -0.079595
v -0.087549 0.082812 -0.091717
v -0.080517 0.082740 -0.123737
v -0.075665 0.082691 -0.145649
v -0.099334 -0.032728 -0.217474
v -0.074053 0.040907 -0.217474
v -0.104803 -0.048727 -0.217474
v -0.073691 0.082054 -0.155518
v -0.067738 0.082688 -0.145649
v 0.027779 0.082965 -0.001997
v 0.123837 0.082620 0.141655
v -0.009797 0.082667 0.141655
v -0.061878 0.082997 -0.001997
v 0.004354 0.079940 0.183939
v 0.011335 0.078611 0.204502
v 0.011335 0.078611 0.204502
v 0.169753 0.078553 0.204502
v 0.169753 0.078553 0.204502
v 0.004248 0.055256 0.213480
v -0.042047 -0.048773 0.213480
v -0.055967 -0.072623 0.204502
v -0.055967 -0.072623 0.204502
v -0.081130 -0.077158 0.141655
v 0.320247 -0.072925 0.204502
v 0.320247 -0.072925 0.204502
v 0.282870 -0.077453 0.141655
v 0.302486 -0.049028 0.213480
v -0.110741 -0.077413 0.061560
v 0.198964 0.055172 0.213480
v -0.133941 -0.077616 -0.001997
vt 0.753888 0.100481
vt 0.880877 0.177144
vt 0.753829 0.328168
vt 0.182811 0.000000
vt 0.659171 0.000000
vt 0.570096 0.343725
vt 0.861987 0.000000
vt 1.000000 0.470356
vt 0.361694 0.000000
vt 1.000000 0.344051
vt 1.000000 0.658659
vt 0.340829 0.000000
vt 0.389274 0.202738
vt 0.138013 0.000000
vt 0.794387 0.125236
vt 0.549848 0.295408
vt 0.781775 0.368902
vt 0.686870 0.686870
vt 0.865011 0.139183
vt 0.880838 0.325356
vt 0.864955 0.354646
vt 0.499828 0.253529
vt 0.245828 0.177463
vt 0.499888 0.024747
vt 0.996785 0.134707
vt 0.118840 0.099329
vt 0.395550 0.360165
vt 0.658659 0.658659
vt 0.344051 0.344051
vt 0.719267 0.131696
vt 0.692396 0.041388
vt 0.470356 0.470356
vt 0.101854 0.101854
vt 1.000000 0.101854
vt 0.817189 0.000000
vt 0.947020 0.240997
vt 0.638305 0.000000
vt 1.000000 0.291326
vt 1.000000 0.686870
vt 0.855987 0.577752
vt 0.753235 0.684460
vt 0.782133 0.626920
vt 0.291326 0.291326
vt 0.752715 0.309361
vt 0.197893 0.149710
vt 0.186124 0.136131
vt 0.183434 0.133027
vt 0.150376 0.134367
vt 0.153672 0.152333
vt 0.153383 0.150758
vt 0.240991 0.806856
vt 0.215763 0.855950
vt 0.215173 0.857097
vt 0.906915 0.241667
vt 0.944585 0.414447
vt 0.947090 0.419321
vt 0.272954 0.136674
vt 0.295773 0.148670
vt 0.399269 0.146173
vt 0.469794 0.148066
vt 0.469698 0.148674
vt 0.469666 0.148875
vt 0.925854 0.105337
vt 0.933215 0.091013
vt 0.907000 0.142026
vt 0.723731 0.353692
vt 0.722679 0.343551
vt 0.722741 0.344144
vt 0.711370 0.359810
vt 0.703468 0.345621
vt 0.712765 0.362315
vt 0.655218 0.362671
vt 0.576546 0.342310
vt 0.575115 0.372029
vt 0.552919 0.372317
vt 0.549979 0.340634
vt 0.549591 0.373793
vt 0.548634 0.340227
vt 0.544342 0.366417
vt 0.544766 0.372336
vt 0.251788 0.711473
vt 0.221177 0.623659
vt 0.218347 0.646397
vt 0.196977 0.148653
vt 0.149501 0.129597
vt 0.216153 0.855189
vt 0.251796 0.785830
vt 0.213812 0.859746
vt 0.946140 0.417472
vt 0.923428 0.241667
vt 0.923801 0.241667
vt 0.919749 0.241667
vt 0.296863 0.149243
vt 0.943442 0.071112
vt 0.724135 0.357592
vt 0.722555 0.342348
vt 0.703806 0.346228
vt 0.675409 0.345794
vt 0.569947 0.342395
vt 0.544342 0.322742
vt 0.215740 0.641325
vt 0.260636 0.623659
vn 0.6414 0.6372 -0.4273
vn -0.9263 0.3167 -0.2041
vn -0.9271 0.3166 -0.2006
vn -0.9256 0.3178 -0.2057
vn -0.8660 0.3885 0.3149
vn -0.8659 0.3853 0.3189
vn 0.6414 0.6371 -0.4274
vn 0.6413 0.6374 -0.4272
vn 0.6407 0.6379 -0.4274
vn 0.6411 0.6373 -0.4275
vn -0.0003 -0.3522 -0.9359
vn -0.0002 -0.2692 -0.9631
vn -0.0003 -0.3521 -0.9360
vn -0.0008 -0.9974 -0.0723
vn -0.0008 -0.9995 -0.0329
vn -0.0008 -0.9997 -0.0243
vn -0.0008 -1.0000 -0.0008
vn -0.0008 -1.0000 -0.0035
vn 0.0004 1.0000 0.0008
vn 0.0004 0.9998 -0.0222
vn 0.0004 1.0000 -0.0022
vn 0.0000 0.0000 -1.0000
vn 0.0004 0.9979 -0.0642
vn 0.0004 0.9996 -0.0291
vn 0.0004 0.9996 0.0267
vn 0.0004 0.9990 0.0452
vn 0.0004 0.9979 0.0643
vn 0.0002 0.3586 0.9335
vn 0.0001 0.1438 0.9896
vn 0.0000 0.0840 0.9965
vn -0.0002 -0.2296 0.9733
vn -0.0002 -0.2617 0.9651
vn -0.0003 -0.3521 0.9359
vn -0.0003 -0.3519 0.9360
vn -0.0008 -0.9974 0.0723
vn -0.0008 -0.9987 0.0504
vn -0.0008 -1.0000 0.0013
vn -0.0008 -0.9996 0.0298
vn -0.0008 -1.0000 0.0035
vn -0.0002 -0.2185 -0.9758
vn 0.0004 1.0000 -0.0005
vn 0.0001 0.3588 0.9334
usemtl マテリアル.002
s off
f 55/1/1 27/2/1 70/3/1
f 47/4/2 49/5/2 6/6/2
f 45/7/3 7/8/3 8/9/3
f 52/10/4 50/11/4 49/12/4
f 20/13/5 45/14/5 74/15/5
f 67/16/6 64/17/6 58/18/6
f 55/1/1 62/19/1 27/2/1
f 27/2/1 29/20/1 70/3/1
f 29/20/1 69/21/1 70/3/1
f 70/3/1 41/22/1 55/1/1
f 41/22/1 40/23/1 54/24/1
f 40/23/7 36/25/7 2/26/7
f 53/27/8 40/23/8 2/26/8
f 2/26/8 50/28/8 53/27/8
f 50/28/9 52/29/9 53/27/9
f 53/27/10 54/24/10 40/23/10
f 54/24/1 55/1/1 41/22/1
f 3/30/2 6/6/2 51/31/2
f 6/6/2 7/32/2 47/4/2
f 51/31/2 6/6/2 49/5/2
f 7/32/2 46/33/2 47/4/2
f 45/7/3 46/34/3 7/8/3
f 49/12/4 47/35/4 12/36/4
f 12/36/4 52/10/4 49/12/4
f 45/14/5 8/37/5 74/15/5
f 74/15/5 72/38/5 20/13/5
f 72/38/5 58/39/5 21/40/5
f 20/13/5 72/38/5 21/40/5
f 60/41/6 58/18/6 63/42/6
f 58/18/6 72/43/6 67/16/6
f 63/42/6 58/18/6 64/17/6
f 67/16/6 65/44/6 64/17/6
s 1
f 38/45/11 37/46/12 35/47/13
f 1/48/14 43/49/15 39/50/14
f 4/51/16 34/52/17 42/53/18
f 18/54/19 17/55/20 11/56/21
f 37/57/12 13/58/22 14/59/22
f 17/60/20 16/61/23 48/62/24
f 18/63/19 56/64/25 19/65/26
f 19/66/26 22/67/27 59/68/27
f 25/69/28 26/70/29 73/71/30
f 73/72/30 28/73/31 71/74/32
f 71/75/32 66/76/33 68/77/34
f 30/78/35 33/79/36 32/80/35
f 5/81/37 31/82/38 23/83/39
f 38/45/11 15/84/40 37/46/12
f 1/48/14 4/85/16 43/49/15
f 42/53/18 43/86/15 4/51/16
f 4/51/16 5/87/37 34/52/17
f 34/52/17 44/88/18 42/53/18
f 17/55/20 48/89/24 11/56/21
f 11/56/21 9/90/21 18/54/19
f 9/90/21 10/91/21 18/54/19
f 10/91/21 57/92/41 18/54/19
f 37/57/12 15/93/40 13/58/22
f 18/63/19 57/94/41 56/64/25
f 59/68/27 61/95/27 19/66/26
f 19/66/26 56/96/25 22/67/27
f 25/69/28 24/97/42 26/70/29
f 73/72/30 26/98/29 28/73/31
f 71/75/32 28/99/31 66/76/33
f 30/78/35 31/100/38 33/79/36
f 23/83/39 34/101/17 5/81/37
f 5/81/37 33/102/36 31/82/38
