# Blender v3.2.0 OBJ File: 'GM.blend'
# www.blender.org
mtllib torii_broken_013.mtl
o 鳥居.001_cell.013_鳥居.001_cell.039
v 0.144502 -0.073596 0.112019
v -0.092453 -0.073596 0.112019
v 0.144502 0.087568 0.112019
v 0.144502 -0.073596 -0.126570
v 0.013517 -0.073596 -0.168933
v 0.144502 0.087568 -0.089328
v 0.026522 0.087568 -0.127479
v 0.024058 0.087568 -0.123047
v 0.005638 -0.073596 -0.154764
v -0.104024 0.087568 0.112019
v -0.109540 0.062650 0.112019
v -0.107782 -0.073596 0.053434
v -0.120113 0.014682 0.112019
v -0.113828 -0.073596 0.064576
v 0.144502 -0.073596 0.112019
v 0.144502 -0.073596 0.112019
v -0.092453 -0.073596 0.112019
v -0.092453 -0.073596 0.112019
v 0.144502 0.087568 0.112019
v 0.144502 0.087568 0.112019
v 0.144502 -0.073596 -0.126570
v 0.144502 -0.073596 -0.126570
v 0.013517 -0.073596 -0.168933
v 0.144502 0.087568 -0.089328
v 0.144502 0.087568 -0.089328
v 0.026522 0.087568 -0.127479
v 0.024058 0.087568 -0.123047
v -0.104024 0.087568 0.112019
v -0.104024 0.087568 0.112019
v -0.109540 0.062650 0.112019
v -0.120113 0.014682 0.112019
v -0.107782 -0.073596 0.053434
v -0.113828 -0.073596 0.064576
v 0.005638 -0.073596 -0.154764
vt 0.254048 0.056474
vt 0.770632 0.000000
vt 0.595204 0.230556
vt 0.770632 0.770632
vt 1.000000 0.400687
vt 1.000000 0.812556
vt 0.396526 0.396526
vt 0.187444 0.000000
vt 0.739191 0.739191
vt 1.000000 0.739191
vt 0.394347 0.394347
vt 1.000000 0.396526
vt 1.000000 0.672848
vt 0.785570 0.394332
vt 1.000000 0.394347
vt 0.266645 0.000000
vt 0.266645 0.266645
vt 0.368525 0.327768
vt 0.599313 0.000000
vt 0.672848 0.672848
vt 0.863552 0.657036
vt 0.863552 0.657036
vt 0.864857 0.657036
vt 0.925773 0.627119
vt 0.925934 0.626958
vt 0.928160 0.624732
vt 0.928160 0.609640
vt 0.895856 0.624732
vt 0.895856 0.606848
vt 0.959331 0.658168
vt 0.958128 0.657036
vt 0.960463 0.657036
vt 0.865778 0.657036
vt 0.865922 0.657036
vt 0.865979 0.657036
vt 0.864783 0.657036
vt 0.925825 0.627067
vt 0.925674 0.627218
vt 0.895856 0.624732
vt 0.928160 0.624732
vt 0.960463 0.657036
vt 0.959355 0.658144
vn 0.3005 0.2147 -0.9293
vn -0.8577 0.1919 -0.4769
vn -0.8620 0.1908 -0.4697
vn -0.8629 0.1902 -0.4682
vn -0.8767 -0.2747 0.3950
vn 0.3005 0.2148 -0.9293
vn -0.8620 0.1909 -0.4696
vn 0.0000 -1.0000 0.0000
vn 0.0000 0.0000 1.0000
vn 1.0000 -0.0000 0.0000
vn 0.0000 1.0000 -0.0000
usemtl マテリアル.002
s off
f 4/1/1 26/2/1 25/3/1
f 26/4/2 34/5/2 8/6/2
f 11/7/3 8/8/3 32/9/3
f 32/10/4 13/11/4 11/12/4
f 33/13/5 2/14/5 13/15/5
f 4/1/6 5/16/6 26/2/6
f 26/4/2 5/17/2 34/5/2
f 10/18/3 8/8/3 11/7/3
f 8/8/7 34/19/7 32/9/7
f 32/10/4 33/20/4 13/11/4
s 1
f 21/21/8 15/22/8 9/23/8
f 30/24/9 18/25/9 19/26/9
f 24/27/10 1/28/10 22/29/10
f 27/30/11 28/31/11 3/32/11
f 15/22/8 17/33/8 12/34/8
f 17/33/8 14/35/8 12/34/8
f 12/34/8 9/23/8 15/22/8
f 9/23/8 23/36/8 21/21/8
f 19/26/9 29/37/9 30/24/9
f 30/24/9 31/38/9 18/25/9
f 18/25/9 16/39/9 19/26/9
f 24/27/10 20/40/10 1/28/10
f 3/32/11 6/41/11 27/30/11
f 6/41/11 7/42/11 27/30/11
