# Blender v3.2.0 OBJ File: 'GM.blend'
# www.blender.org
mtllib torii_broken_025.mtl
o 鳥居.001_cell.025_鳥居.001_cell.014
v 0.119115 -0.021727 0.041141
v 0.122415 -0.093676 0.007556
v 0.108757 -0.146271 0.058903
v 0.097423 -0.169434 0.069979
v -0.042343 -0.240942 -0.114649
v -0.038456 -0.231107 -0.121406
v -0.031699 -0.216653 -0.129146
v -0.017342 -0.185822 -0.145588
v 0.008201 -0.137213 -0.165434
v 0.018596 -0.119283 -0.170721
v 0.011596 0.402388 0.090321
v -0.000396 0.419293 0.080090
v -0.019878 0.432262 0.055908
v -0.049044 0.351132 -0.032749
v -0.044679 0.397513 -0.001617
v -0.034831 0.424908 0.028319
v 0.009742 -0.082187 -0.165434
v -0.011559 0.020709 -0.145588
v -0.028648 0.119095 -0.121406
v -0.040872 0.209196 -0.093817
v -0.047759 0.287545 -0.063881
v 0.022167 0.386197 0.099369
v 0.022505 0.373550 0.099936
v 0.026473 0.268287 0.103633
v 0.031473 0.123894 0.108467
v 0.042644 -0.164959 0.116998
v 0.037875 -0.062768 0.114683
v 0.043236 -0.179500 0.117301
v -0.003235 -0.198064 0.091950
v 0.034517 -0.182661 0.114683
v 0.006618 -0.193734 0.099936
v -0.017864 -0.204440 0.080090
v -0.065492 -0.236174 -0.032749
v -0.062268 -0.230555 -0.001617
v -0.062528 -0.239834 -0.063881
v -0.037988 -0.214374 0.055908
v -0.052981 -0.223194 0.028319
v -0.053491 -0.241394 -0.093817
v -0.038456 -0.231107 -0.121406
v -0.031699 -0.216653 -0.129146
v -0.017342 -0.185822 -0.145588
v 0.008201 -0.137213 -0.165434
v 0.018596 -0.119283 -0.170721
v 0.011596 0.402388 0.090321
v -0.000396 0.419293 0.080090
v -0.044679 0.397513 -0.001617
v -0.034831 0.424908 0.028319
v 0.009742 -0.082187 -0.165434
v -0.011559 0.020709 -0.145588
v -0.028648 0.119095 -0.121406
v -0.040872 0.209196 -0.093817
v -0.047759 0.287545 -0.063881
v 0.022167 0.386197 0.099369
v 0.022505 0.373550 0.099936
v 0.026473 0.268287 0.103633
v 0.031473 0.123894 0.108467
v 0.042644 -0.164959 0.116998
v 0.037875 -0.062768 0.114683
v 0.043236 -0.179500 0.117301
v 0.034517 -0.182661 0.114683
v 0.006618 -0.193734 0.099936
v -0.049044 0.351132 -0.032749
v -0.065492 -0.236174 -0.032749
v -0.062528 -0.239834 -0.063881
v -0.003235 -0.198064 0.091950
v -0.042343 -0.240942 -0.114649
v -0.053491 -0.241394 -0.093817
v -0.017864 -0.204440 0.080090
v -0.037988 -0.214374 0.055908
v -0.062268 -0.230555 -0.001617
v -0.019878 0.432262 0.055908
v -0.052981 -0.223194 0.028319
vt 0.000000 0.000000
vt 1.000000 0.000000
vt 1.000000 1.000000
vt 0.000000 0.000000
vt 1.000000 0.000000
vt 1.000000 0.299240
vt 0.000000 0.000000
vt 0.717000 0.000000
vt 0.299240 0.299240
vt 0.524317 0.302209
vt 1.000000 0.487207
vt 0.656392 0.134776
vt 0.752039 0.205964
vt 0.487207 0.487207
vt 1.000000 0.000000
vt 1.000000 1.000000
vt 0.544437 0.544437
vt 0.549274 0.482503
vt 0.593560 0.593560
vt 1.000000 0.740833
vt 1.000000 1.000000
vt 0.908106 0.708032
vt 1.000000 0.695775
vt 0.695775 0.695775
vt 0.736932 0.000000
vt 1.000000 1.000000
vt 0.770436 0.751496
vt 0.924867 0.833526
vt 0.926919 0.415808
vt 0.966440 0.334351
vt 0.837640 0.124606
vt 0.873263 0.327583
vt 1.000000 0.343866
vt 0.851444 0.301777
vt 0.950788 0.418535
vt 0.427202 0.091009
vt 0.490793 0.076173
vt 0.343866 0.343866
vt 0.340467 0.301983
vt 0.350567 0.206125
vt 0.379855 0.134890
vt 0.568180 0.090950
vt 0.544437 0.000000
vt 0.593560 0.000000
vt 0.740833 0.740833
vt 1.000000 0.877946
vt 0.736932 0.736932
vt 1.000000 0.283000
vt 0.877946 0.877946
vt 0.931631 0.860266
vt 0.844457 0.808397
vt 0.851803 0.707724
vt 0.868478 0.606150
vt 0.893842 0.507583
vt 0.530328 0.871142
vt 0.530359 0.823901
vt 0.530409 0.836159
vt 0.529928 0.855605
vt 0.529914 0.858101
vt 0.529926 0.857489
vt 0.530351 0.872511
vt 0.530233 0.871586
vt 0.530281 0.799880
vt 0.530085 0.869162
vt 0.530258 0.790807
vt 0.530234 0.784117
vt 0.529986 0.865909
vt 0.530206 0.780013
vt 0.530312 0.811034
vt 0.530152 0.870490
vt 0.529952 0.864051
vt 0.530171 0.778606
vt 0.530132 0.779906
vt 0.529930 0.862097
vt 0.530086 0.785530
vt 0.530060 0.799174
vt 0.529917 0.860096
vt 0.530030 0.867625
vt 0.530452 0.849004
vt 0.530490 0.853513
vt 0.530457 0.856379
vt 0.530411 0.863929
vt 0.530379 0.868733
vt 0.529946 0.842378
vt 0.529934 0.860755
vt 0.530092 0.783864
vt 0.530129 0.781700
vt 0.530024 0.817903
vn 0.9770 -0.0518 0.2069
vn 0.7633 -0.5418 -0.3519
vn 0.7559 -0.5465 -0.3606
vn 0.7561 -0.5452 -0.3620
vn 0.8154 0.2678 -0.5133
vn 0.8293 0.2672 -0.4908
vn 0.6637 0.0512 0.7462
vn 0.6525 0.0479 0.7563
vn 0.6517 0.0476 0.7570
vn 0.6527 0.0423 0.7564
vn 0.2994 -0.9435 0.1421
vn 0.2988 -0.9441 0.1394
vn 0.2989 -0.9441 0.1390
vn 0.2989 -0.9441 0.1391
vn -0.8631 0.0242 -0.5045
vn -0.8723 0.0244 -0.4883
vn -0.7610 0.0213 -0.6485
vn -0.2902 0.0081 0.9569
vn -0.4035 0.0113 0.9149
vn -0.8816 0.0247 -0.4713
vn -0.9235 0.0259 -0.3828
vn -0.9921 0.0278 -0.1221
vn -0.9996 0.0280 -0.0094
vn -0.9973 0.0279 0.0683
vn -0.9675 0.0271 0.2515
vn -0.9298 0.0260 0.3670
vn -0.9093 0.0255 0.4154
vn -0.9502 0.0266 -0.3104
vn -0.9794 0.0274 -0.1999
vn -0.8418 0.0236 0.5392
vn -0.8342 0.0234 0.5510
vn -0.7364 0.0206 0.6762
vn -0.7218 0.0202 0.6918
vn -0.6307 0.0177 0.7758
vn -0.4714 0.0132 0.8818
vn -0.5740 0.0161 0.8187
vn -0.9829 0.0275 0.1819
vn -0.6200 0.0174 -0.7844
vn -0.4713 0.0132 -0.8819
vn -0.6072 0.0170 -0.7943
vn -0.7498 0.0210 -0.6613
vn -0.7728 0.0216 -0.6342
vn -0.4671 0.0131 0.8841
vn -0.6343 0.0178 0.7729
usemtl マテリアル.002
s off
f 1/1/1 3/2/1 2/3/1
f 3/4/2 4/5/2 2/3/2
f 40/6/3 4/7/3 66/8/3
f 2/3/4 40/9/4 41/10/4
f 44/11/5 46/12/5 47/13/5
f 44/14/6 1/15/6 2/3/6
f 1/16/7 53/17/7 23/18/7
f 55/19/8 56/20/8 3/21/8
f 3/21/9 58/22/9 57/23/9
f 4/5/10 57/24/10 59/25/10
f 4/26/11 60/27/11 31/28/11
f 35/29/12 38/30/12 4/26/12
f 66/8/3 39/31/3 40/6/3
f 40/6/3 2/3/3 4/7/3
f 41/10/4 42/32/4 2/3/4
f 42/32/4 43/33/4 2/3/4
f 47/13/5 13/34/5 45/35/5
f 45/35/5 44/11/5 47/13/5
f 44/11/5 2/3/5 51/36/5
f 52/37/5 44/11/5 51/36/5
f 2/3/5 43/38/5 48/39/5
f 48/39/5 49/40/5 2/3/5
f 49/40/5 50/41/5 2/3/5
f 50/41/5 51/36/5 2/3/5
f 52/37/5 62/42/5 44/11/5
f 62/42/5 46/12/5 44/11/5
f 44/14/6 53/43/6 1/15/6
f 23/18/7 55/44/7 1/16/7
f 55/44/7 3/2/7 1/16/7
f 3/21/9 56/45/9 58/22/9
f 4/5/10 3/21/10 57/24/10
f 31/28/11 65/46/11 4/26/11
f 4/26/11 59/47/11 60/27/11
f 38/30/12 66/48/12 4/26/12
f 4/26/13 65/49/13 68/50/13
f 68/50/14 69/51/14 4/26/14
f 69/51/12 37/52/12 4/26/12
f 37/52/12 34/53/12 4/26/12
f 34/53/12 33/54/12 4/26/12
f 33/54/12 35/29/12 4/26/12
s 1
f 6/55/15 19/56/16 18/57/17
f 26/58/18 30/59/19 28/60/18
f 6/55/15 5/61/20 67/62/21
f 21/63/22 63/64/23 14/65/24
f 15/66/25 72/67/26 16/68/27
f 20/69/28 64/70/29 21/63/22
f 16/68/27 36/71/30 71/72/31
f 12/73/32 32/74/33 54/75/34
f 24/76/35 54/75/34 61/77/36
f 14/65/24 70/78/37 15/66/25
f 12/73/32 36/71/30 32/74/33
f 17/79/38 10/80/39 9/81/40
f 8/82/41 17/79/38 9/81/40
f 8/82/41 7/83/42 18/57/17
f 7/83/42 6/55/15 18/57/17
f 26/58/18 27/84/43 30/59/19
f 67/62/21 20/69/28 19/56/16
f 19/56/16 6/55/15 67/62/21
f 21/63/22 64/70/29 63/64/23
f 15/66/25 70/78/37 72/67/26
f 20/69/28 67/62/21 64/70/29
f 16/68/27 72/67/26 36/71/30
f 61/77/36 54/75/34 29/85/44
f 54/75/34 22/86/44 11/87/44
f 29/85/44 54/75/34 32/74/33
f 11/87/44 12/73/32 54/75/34
f 61/77/36 30/59/19 27/84/43
f 27/84/43 25/88/35 61/77/36
f 25/88/35 24/76/35 61/77/36
f 14/65/24 63/64/23 70/78/37
f 12/73/32 71/72/31 36/71/30
f 8/82/41 18/57/17 17/79/38
