# Blender v3.2.0 OBJ File: 'GM.blend'
# www.blender.org
mtllib torii_broken_028.mtl
o 鳥居.001_cell.028_鳥居.001_cell.016
v 0.238091 -0.083144 -0.068007
v 0.241932 -0.069620 0.006103
v -0.052951 0.035392 -0.194107
v -0.052950 0.039438 0.156044
v -0.052950 0.039749 0.012392
v -0.046174 -0.091955 -0.203085
v -0.052950 0.039438 -0.131260
v -0.052951 0.035392 0.218891
v -0.278056 -0.006498 0.227869
v -0.277280 0.011950 0.227869
v -0.276679 0.027316 0.221966
v -0.276676 0.039359 0.156044
v -0.276517 0.037287 0.188233
v -0.279519 0.035309 -0.194107
v -0.280570 0.011948 -0.203085
v -0.284683 -0.085839 -0.203085
v -0.278869 0.039358 -0.131260
v -0.277759 0.039670 0.012392
v -0.276341 0.035311 0.218891
v -0.240081 -0.087782 -0.203085
v -0.140305 -0.092024 -0.203085
v 0.051546 -0.020853 0.227869
v 0.286513 0.040239 -0.012668
v 0.190143 0.039815 -0.131260
v 0.163922 0.037711 -0.163458
v 0.130151 -0.099774 -0.199884
v 0.133335 0.019570 -0.200338
v 0.138892 0.035703 -0.194107
v 0.130884 0.012423 -0.203085
v 0.127797 -0.091265 -0.203085
v 0.108877 -0.101869 -0.199129
v 0.123539 -0.023895 0.227869
v 0.131145 -0.024202 0.227869
v 0.173630 0.035760 0.218891
v 0.157975 0.017477 0.225947
v 0.153694 0.012470 0.227869
v 0.215451 0.039854 0.156055
v 0.285024 0.040220 0.045186
v 0.285722 0.040265 0.024534
v 0.285994 0.040292 0.012392
v -0.279519 0.035309 -0.194107
v -0.279519 0.035309 -0.194107
v -0.280570 0.011948 -0.203085
v -0.052951 0.035392 0.218891
v -0.276341 0.035311 0.218891
v -0.276341 0.035311 0.218891
v -0.052951 0.035392 -0.194107
v 0.138892 0.035703 -0.194107
v 0.138892 0.035703 -0.194107
v 0.130151 -0.099774 -0.199884
v 0.127797 -0.091265 -0.203085
v -0.284683 -0.085839 -0.203085
v 0.123539 -0.023895 0.227869
v 0.131145 -0.024202 0.227869
v 0.173630 0.035760 0.218891
v 0.173630 0.035760 0.218891
v 0.157975 0.017477 0.225947
v 0.285024 0.040220 0.045186
v 0.285722 0.040265 0.024534
v 0.286513 0.040239 -0.012668
v 0.285994 0.040292 0.012392
v 0.051546 -0.020853 0.227869
v 0.215451 0.039854 0.156055
v 0.163922 0.037711 -0.163458
v 0.108877 -0.101869 -0.199129
v -0.046174 -0.091955 -0.203085
v -0.240081 -0.087782 -0.203085
v -0.140305 -0.092024 -0.203085
v -0.276676 0.039359 0.156044
v -0.276517 0.037287 0.188233
v -0.278056 -0.006498 0.227869
v -0.277280 0.011950 0.227869
v -0.276679 0.027316 0.221966
v -0.278869 0.039358 -0.131260
v -0.277759 0.039670 0.012392
v 0.190143 0.039815 -0.131260
v 0.133335 0.019570 -0.200338
v 0.130884 0.012423 -0.203085
v 0.153694 0.012470 0.227869
vt 0.972552 0.217782
vt 0.817100 0.316420
vt 0.881730 0.000000
vt 0.188299 0.188299
vt 0.128651 0.128651
vt 0.176438 0.134104
vt 1.000000 0.118270
vt 0.880854 0.880854
vt 0.119544 0.119544
vt 1.000000 0.000000
vt 0.893132 0.373210
vt 0.517776 0.000000
vt 0.000000 0.000000
vt 0.651108 0.010890
vt 0.666941 0.042262
vt 1.000000 0.000000
vt 0.813861 0.813861
vt 0.453437 0.000000
vt 0.452578 0.452578
vt 0.000000 0.000000
vt 1.000000 0.482224
vt 0.454777 0.333016
vt 1.000000 0.119544
vt 0.880553 0.717572
vt 0.766200 0.766200
vt 0.763685 0.413642
vt 0.659351 0.412761
vt 0.575906 0.440487
vt 0.479963 0.360466
vt 0.119318 0.000000
vt 0.949764 0.068001
vt 1.000000 0.188299
vt 1.000000 0.128651
vt 1.000000 0.880682
vt 1.000000 0.471728
vt 0.667303 0.404177
vt 0.471728 0.471728
vt 0.653766 0.427686
vt 0.623054 0.480740
vt 1.000000 0.766200
vt 0.632056 0.462982
vt 0.453437 0.453437
vt 0.645584 0.645584
vt 0.786294 0.736587
vt 0.813861 0.000000
vt 1.000000 0.880854
vt 0.721221 0.602064
vt 0.452578 0.000000
vt 0.927889 0.653233
vt 0.890752 0.703769
vt 0.700701 0.313759
vt 0.700279 0.313468
vt 0.721048 0.327814
vt 0.966807 0.457689
vt 0.904626 0.241667
vt 0.936805 0.241667
vt 0.467968 0.159630
vt 0.434824 0.174663
vt 0.439479 0.133859
vt 0.726028 0.306677
vt 0.723017 0.346804
vt 0.723015 0.346791
vt 0.471608 0.136573
vt 0.467968 0.159630
vt 0.471619 0.136509
vt 0.966726 0.031570
vt 0.965997 0.241667
vt 0.721048 0.313092
vt 0.721048 0.311998
vt 0.470568 0.182978
vt 0.477087 0.185042
vt 0.469720 0.182710
vt 0.966006 0.241667
vt 0.966024 0.241667
vt 0.963981 0.437337
vt 0.433383 0.175317
vt 0.434383 0.174863
vt 0.182688 0.171907
vt 0.186393 0.173550
vt 0.186851 0.173753
vt 0.681090 0.314215
vt 0.671360 0.349178
vt 0.658707 0.321919
vt 0.721824 0.308705
vt 0.721048 0.327814
vt 0.376364 0.133602
vt 0.385654 0.173911
vt 0.204489 0.157320
vt 0.924109 0.025644
vt 0.966807 0.025644
vt 0.705287 0.348887
vt 0.705303 0.348916
vt 0.695566 0.349158
vt 0.905669 0.327889
vt 0.439388 0.133967
vt 0.721283 0.347725
vt 0.467968 0.159628
vt 0.965974 0.241667
vt 0.468831 0.182428
vt 0.671280 0.349246
vt 0.674482 0.316490
vt 0.676149 0.315916
vt 0.726028 0.306677
vt 0.204489 0.173157
vt 0.203773 0.147558
vt 0.203014 0.137210
vt 0.202675 0.132585
vt 0.922716 0.111443
vn -0.9991 0.0420 0.0076
vn -0.9989 0.0455 0.0087
vn -0.0428 -0.9825 0.1815
vn 0.7759 -0.0217 -0.6305
vn 0.7751 -0.0231 -0.6315
vn -0.0398 -0.9826 0.1814
vn 0.9268 -0.3744 0.0305
vn 0.9276 -0.3730 0.0200
vn -0.0522 -0.9833 0.1741
vn 0.7518 -0.4623 0.4702
vn 0.0994 -0.9941 0.0440
vn -0.0415 -0.9827 0.1807
vn -0.0677 -0.9762 0.2061
vn -0.0418 -0.9826 0.1809
vn 0.0007 -0.9867 0.1626
vn -0.0005 0.2507 0.9681
vn -0.0006 0.3600 0.9330
vn -0.0004 0.3612 0.9325
vn -0.0010 0.9994 -0.0332
vn -0.0004 1.0000 -0.0000
vn -0.0010 1.0000 0.0000
vn -0.0004 0.3610 -0.9326
vn -0.0004 0.2008 -0.9796
vn -0.0001 0.1775 -0.9841
vn -0.0010 0.9994 0.0332
vn -0.0004 0.9995 0.0331
vn -0.0004 0.9979 0.0643
vn -0.0004 0.9994 -0.0334
vn -0.0010 0.9979 -0.0642
vn -0.0004 0.9979 -0.0643
vn -0.0016 0.9998 0.0218
vn -0.0016 1.0000 0.0022
vn -0.0006 0.3605 0.9328
vn -0.0016 0.9979 -0.0641
vn -0.0016 0.9979 -0.0640
vn -0.0016 1.0000 -0.0001
vn -0.0018 1.0000 -0.0021
vn -0.0016 0.9998 -0.0197
vn -0.0006 0.3605 -0.9328
vn -0.0006 0.3598 -0.9330
vn 0.0014 -0.3517 -0.9361
vn 0.0008 -0.1900 -0.9818
vn -0.0001 0.1778 0.9841
vn 0.0000 0.0000 1.0000
vn -0.0016 0.9979 0.0640
vn -0.0010 0.9979 0.0642
vn 0.0000 -0.0079 -1.0000
vn -0.0001 0.3590 0.9334
vn -0.0001 0.3588 0.9334
vn -0.0001 0.3587 -0.9334
vn -0.0019 1.0000 0.0021
vn 0.0000 0.0000 -1.0000
usemtl マテリアル.002
s off
f 12/1/1 75/2/1 71/3/1
f 70/4/2 73/5/2 46/6/2
f 71/7/3 67/8/3 62/9/3
f 1/10/4 24/11/4 60/12/4
f 1/13/5 50/14/5 51/15/5
f 2/16/6 53/17/6 1/13/6
f 59/18/7 58/19/7 2/20/7
f 2/20/8 1/10/8 60/21/8
f 66/22/9 1/13/9 62/23/9
f 79/24/10 54/25/10 37/26/10
f 17/27/1 41/28/1 43/29/1
f 43/29/1 52/30/1 17/27/1
f 52/30/1 71/3/1 75/2/1
f 17/27/1 52/30/1 75/2/1
f 71/3/1 72/31/1 70/32/1
f 72/31/1 73/33/1 70/32/1
f 70/32/1 12/1/1 71/3/1
f 71/7/3 52/34/3 67/8/3
f 1/10/4 64/35/4 24/11/4
f 51/15/5 29/36/5 64/37/5
f 29/36/5 27/38/5 64/37/5
f 27/38/5 49/39/5 64/37/5
f 64/37/5 1/13/5 51/15/5
f 2/16/6 54/40/6 53/17/6
f 60/21/8 61/41/8 2/20/8
f 61/41/8 59/42/8 2/20/8
f 50/43/11 1/13/11 65/44/11
f 1/13/12 53/45/12 62/23/12
f 65/44/13 1/13/13 66/22/13
f 62/23/14 67/46/14 68/47/14
f 66/22/15 62/23/15 68/47/15
f 58/48/10 37/26/10 2/20/10
f 37/26/10 56/49/10 35/50/10
f 2/20/10 37/26/10 54/25/10
f 35/50/10 79/24/10 37/26/10
s 1
f 36/51/16 57/52/17 8/53/18
f 7/54/19 18/55/20 5/56/21
f 3/57/22 78/58/23 15/59/24
f 4/60/25 69/61/26 13/62/27
f 74/63/28 47/64/29 14/65/30
f 5/56/21 63/66/31 39/67/32
f 8/53/18 57/68/17 55/69/33
f 48/70/34 7/71/19 25/72/35
f 40/73/36 23/74/37 76/75/38
f 3/57/22 28/76/39 77/77/40
f 31/78/41 30/79/42 26/80/41
f 36/81/16 10/82/43 22/83/44
f 34/84/45 4/60/25 44/85/46
f 15/86/24 78/87/23 6/88/47
f 5/56/21 69/89/26 4/90/25
f 45/91/48 11/92/49 8/53/18
f 11/92/49 10/93/43 8/53/18
f 10/93/43 36/51/16 8/53/18
f 7/54/19 74/94/28 18/55/20
f 15/59/24 42/95/50 3/57/22
f 3/57/22 77/77/40 78/58/23
f 19/96/27 44/85/46 13/62/27
f 44/85/46 4/60/25 13/62/27
f 74/63/28 7/97/19 47/64/29
f 40/73/36 5/56/21 39/67/32
f 5/56/21 4/90/25 63/66/31
f 63/66/31 38/98/51 39/67/32
f 47/64/29 7/71/19 48/70/34
f 7/71/19 76/99/38 25/72/35
f 7/54/19 5/56/21 76/75/38
f 5/56/21 40/73/36 76/75/38
f 31/78/41 6/88/47 30/79/42
f 10/82/43 9/100/44 22/83/44
f 22/83/44 32/101/44 36/81/16
f 32/101/44 33/102/44 36/81/16
f 34/84/45 63/103/31 4/60/25
f 78/87/23 30/104/42 6/88/47
f 6/88/47 21/105/52 15/86/24
f 21/105/52 20/106/52 15/86/24
f 20/106/52 16/107/52 15/86/24
f 5/56/21 18/108/20 69/89/26
