# Blender v3.2.0 OBJ File: 'GM.blend'
# www.blender.org
mtllib torii_broken_038.mtl
o 鳥居.001_cell.038_鳥居.001_cell.024
v 0.155972 0.082842 0.074332
v 0.107793 0.082842 0.052173
v 0.144622 0.082842 0.036918
v 0.126192 0.082842 0.002437
v 0.093046 0.082842 0.024584
v 0.073200 0.082842 0.000402
v 0.101389 0.082842 -0.027786
v 0.071166 0.082842 -0.052590
v 0.049018 0.082842 -0.019444
v 0.036685 0.082842 -0.071020
v 0.021429 0.082842 -0.034190
v -0.000729 0.082842 -0.082370
v -0.008507 0.082842 -0.043271
v -0.039639 0.082842 -0.086202
v -0.039639 0.082842 -0.046338
v -0.070771 0.082842 -0.043271
v -0.078548 0.082842 -0.082370
v -0.100707 0.082842 -0.034190
v -0.115962 0.082842 -0.071020
v -0.128296 0.082842 -0.019444
v -0.150443 0.082842 -0.052590
v -0.082867 -0.201869 -0.104079
v 0.177681 -0.201869 0.070013
v 0.177681 -0.201869 0.156469
v 0.181939 -0.201869 0.113241
v 0.165072 -0.201869 0.028447
v 0.144596 -0.201869 -0.009861
v 0.117040 -0.201869 -0.043438
v 0.083463 -0.201869 -0.070994
v 0.045155 -0.201869 -0.091470
v 0.003589 -0.201869 -0.104079
v -0.039639 -0.201869 -0.108337
v 0.005894 -0.201869 0.213388
v 0.169169 -0.090232 0.154776
v 0.166137 -0.201869 0.194523
v 0.163973 0.029216 0.113241
v 0.150476 0.082842 0.095909
v 0.158010 0.082842 0.095022
v -0.242546 -0.089740 0.052387
v -0.236660 -0.094807 0.031633
v -0.217938 -0.110038 -0.005894
v -0.192382 -0.130280 -0.039502
v -0.099545 -0.201869 -0.099020
v -0.123881 -0.183312 -0.090137
v -0.088068 -0.201869 0.178086
v -0.160715 -0.154954 -0.067961
v -0.233577 -0.051877 0.032910
v -0.209652 0.018151 -0.000357
v -0.180728 0.081717 -0.027848
v -0.128780 0.100134 -0.019444
v -0.137170 0.082842 -0.012161
v -0.102337 0.141036 -0.034190
v -0.042869 0.198195 -0.046338
v -0.073328 0.174147 -0.043271
v 0.045495 0.208643 -0.019444
v 0.017706 0.215779 -0.034190
v 0.090777 0.163873 0.024584
v 0.116993 0.082842 0.083329
v 0.106529 0.127959 0.052173
v 0.070168 0.191116 0.000402
v -0.012131 0.212250 -0.043271
v 0.155972 0.082842 0.074332
v 0.144622 0.082842 0.036918
v 0.126192 0.082842 0.002437
v 0.101389 0.082842 -0.027786
v 0.071166 0.082842 -0.052590
v 0.036685 0.082842 -0.071020
v -0.000729 0.082842 -0.082370
v -0.039639 0.082842 -0.086202
v -0.078548 0.082842 -0.082370
v -0.070771 0.082842 -0.043271
v -0.100707 0.082842 -0.034190
v -0.128296 0.082842 -0.019444
v 0.165072 -0.201869 0.028447
v 0.144596 -0.201869 -0.009861
v 0.177681 -0.201869 0.156469
v 0.166137 -0.201869 0.194523
v 0.166137 -0.201869 0.194523
v 0.107793 0.082842 0.052173
v 0.093046 0.082842 0.024584
v 0.150476 0.082842 0.095909
v 0.158010 0.082842 0.095022
v 0.158010 0.082842 0.095022
v -0.099545 -0.201869 -0.099020
v -0.099545 -0.201869 -0.099020
v -0.123881 -0.183312 -0.090137
v -0.242546 -0.089740 0.052387
v -0.233577 -0.051877 0.032910
v -0.150443 0.082842 -0.052590
v -0.180728 0.081717 -0.027848
v -0.180728 0.081717 -0.027848
v -0.137170 0.082842 -0.012161
v -0.137170 0.082842 -0.012161
v -0.128780 0.100134 -0.019444
v -0.102337 0.141036 -0.034190
v 0.116993 0.082842 0.083329
v 0.116993 0.082842 0.083329
v 0.106529 0.127959 0.052173
v 0.090777 0.163873 0.024584
v 0.017706 0.215779 -0.034190
v -0.012131 0.212250 -0.043271
v 0.117040 -0.201869 -0.043438
v -0.082867 -0.201869 -0.104079
v -0.039639 -0.201869 -0.108337
v 0.169169 -0.090232 0.154776
v 0.073200 0.082842 0.000402
v 0.049018 0.082842 -0.019444
v 0.021429 0.082842 -0.034190
v -0.008507 0.082842 -0.043271
v -0.039639 0.082842 -0.046338
v -0.115962 0.082842 -0.071020
v 0.177681 -0.201869 0.070013
v 0.181939 -0.201869 0.113241
v 0.083463 -0.201869 -0.070994
v 0.045155 -0.201869 -0.091470
v 0.003589 -0.201869 -0.104079
v 0.005894 -0.201869 0.213388
v 0.163973 0.029216 0.113241
v -0.236660 -0.094807 0.031633
v -0.217938 -0.110038 -0.005894
v -0.192382 -0.130280 -0.039502
v -0.088068 -0.201869 0.178086
v -0.160715 -0.154954 -0.067961
v -0.209652 0.018151 -0.000357
v -0.042869 0.198195 -0.046338
v -0.073328 0.174147 -0.043271
v 0.070168 0.191116 0.000402
v 0.045495 0.208643 -0.019444
vt 0.824004 0.136310
vt 0.693893 0.052089
vt 0.945702 0.000000
vt 0.594035 0.200571
vt 0.677401 0.339918
vt 0.138309 0.000000
vt 0.138309 0.138309
vt 0.397559 0.050971
vt 0.621696 0.423405
vt 0.635482 0.009635
vt 0.635486 0.000000
vt 0.945611 0.204935
vt 0.748020 0.478816
vt 0.803076 0.612387
vt 0.825152 0.685860
vt 0.449512 0.000000
vt 0.500971 0.065428
vt 0.658905 0.486680
vt 0.586643 0.481739
vt 0.499938 0.464611
vt 0.449512 0.449512
vt 0.054298 0.000000
vt 0.364514 0.000000
vt 0.473450 0.098412
vt 0.640888 0.423982
vt 0.542971 0.148445
vt 0.680382 0.415631
vt 0.705556 0.397682
vt 0.603450 0.199144
vt 0.652566 0.248564
vt 0.715443 0.370823
vt 0.688426 0.294801
vt 0.709657 0.336083
vt 0.068199 0.195651
vt 0.037396 0.168904
vt 0.044453 0.162358
vt 0.559440 0.973265
vt 0.559554 0.977063
vt 0.559442 0.975640
vt 0.065159 0.200939
vt 0.024795 0.203875
vt 0.025346 0.194481
vt 0.559549 0.969043
vt 0.559699 0.978584
vt 0.071021 0.194299
vt 0.052854 0.157693
vt 0.061874 0.154466
vt 0.560245 0.971303
vt 0.560244 0.965165
vt 0.560245 0.970560
vt 0.067053 0.196721
vt 0.031609 0.176608
vt 0.065251 0.223482
vt 0.068769 0.225094
vt 0.063146 0.229101
vt 0.560225 0.972114
vt 0.026334 0.213184
vt 0.065129 0.202497
vt 0.065413 0.204038
vt 0.559409 0.975155
vt 0.065628 0.204626
vt 0.063569 0.206587
vt 0.074120 0.194040
vt 0.076791 0.178298
vt 0.075511 0.194352
vt 0.066931 0.153905
vt 0.071606 0.161058
vt 0.065502 0.199420
vt 0.027593 0.185279
vt 0.066144 0.198001
vt 0.072560 0.194011
vt 0.074120 0.194040
vt 0.067323 0.200720
vt 0.560065 0.974985
vt 0.560128 0.956743
vt 0.560136 0.973953
vt 0.560187 0.958216
vt 0.560193 0.972997
vt 0.069539 0.194832
vt 0.560222 0.961072
vt 0.559835 0.961392
vt 0.559967 0.976099
vt 0.559846 0.977297
vt 0.062311 0.219745
vt 0.052860 0.234964
vt 0.072560 0.194011
vt 0.029445 0.222124
vt 0.061408 0.210677
vt 0.034276 0.230195
vt 0.559690 0.965954
vt 0.025346 0.194481
vt 0.012935 0.192683
vt 0.015369 0.181109
vt 0.060943 0.215304
vt 0.040583 0.237076
vt 0.559955 0.958307
vt 0.040352 0.237052
vt 0.075145 0.194382
vt 0.078765 0.203278
vt 0.067273 0.196710
vt 0.065694 0.204620
vt 0.065413 0.204038
vt 0.065286 0.202488
vt 0.065159 0.200939
vt 0.065672 0.199410
vt 0.066144 0.198001
vt 0.068199 0.195651
vt 0.069946 0.194814
vt 0.074120 0.194040
vt 0.560054 0.956756
vt 0.029445 0.222124
vt 0.031095 0.237482
vt 0.017712 0.227770
vt 0.040289 0.237197
vt 0.027146 0.240734
vt 0.024221 0.237695
vt 0.026334 0.213184
vt 0.013053 0.216356
vt 0.024795 0.203875
vt 0.012667 0.204202
vt 0.031609 0.176608
vt 0.027593 0.185279
vt 0.020038 0.169897
vt 0.044453 0.162358
vt 0.037396 0.168904
vt 0.027012 0.159372
vt 0.061874 0.154466
vt 0.052854 0.157693
vt 0.047264 0.145225
vt 0.063264 0.152238
vt 0.071367 0.152801
vt 0.059551 0.142145
vt 0.037068 0.151975
vn 0.1103 0.3307 0.9373
vn -0.6004 -0.7993 0.0249
vn -0.3062 0.4918 0.8151
vn 0.8290 0.0775 -0.5539
vn 0.7050 0.0775 -0.7050
vn -0.5043 -0.0141 -0.8634
vn -0.3812 -0.0107 -0.9244
vn -0.5543 -0.0155 -0.8322
vn 0.1945 0.0775 -0.9778
vn -0.0000 0.0775 -0.9970
vn -0.3309 -0.0093 -0.9436
vn -0.1934 -0.0054 -0.9811
vn 0.9778 0.0775 -0.1945
vn 0.9211 0.0775 -0.3815
vn 0.9252 0.0259 -0.3785
vn 0.9004 0.0252 -0.4344
vn 0.9587 0.0268 -0.2831
vn 0.5539 0.0775 -0.8290
vn -0.9142 0.0775 -0.3977
vn -0.9541 0.0771 -0.2894
vn -0.8940 0.0773 -0.4414
vn 0.8318 0.0233 -0.5546
vn -0.1945 0.0775 -0.9778
vn -0.6343 -0.0178 -0.7729
vn -0.2894 0.0771 -0.9541
vn -0.3466 0.0775 -0.9348
vn 0.9778 0.0775 0.1945
vn 0.9899 0.0773 0.1187
vn 0.9541 0.0771 0.2894
vn 0.9922 0.0771 -0.0977
vn 0.9940 0.0773 -0.0770
vn 0.3815 0.0775 -0.9211
vn 0.0000 -1.0000 0.0000
vn 0.3841 0.0108 -0.9232
vn 0.5331 0.0149 -0.8459
vn 0.5567 0.0156 -0.8306
vn 0.6767 0.0190 -0.7360
vn 0.7078 0.0198 -0.7061
vn 0.8013 0.0224 -0.5978
vn 0.0352 0.0010 -0.9994
vn 0.1968 0.0055 -0.9804
vn 0.0017 0.0000 -1.0000
vn -0.8152 0.0775 -0.5739
vn -0.7913 0.0774 -0.6065
vn 0.9970 0.0775 -0.0000
vn -0.3815 0.0775 -0.9211
vn -0.5251 0.0775 -0.8475
vn -0.5531 0.0775 -0.8295
vn -0.1483 -0.0042 -0.9889
vn 0.0000 1.0000 0.0000
vn -0.6835 0.0775 -0.7258
vn -0.6708 0.0774 -0.7375
vn 0.2116 0.0059 -0.9773
vn 0.3774 0.0106 -0.9260
vn -0.0119 0.9999 0.0039
vn -0.0293 0.9995 0.0096
vn -0.0126 0.9999 0.0041
usemtl マテリアル.002
s off
f 34/1/1 36/2/1 117/3/1
f 120/4/2 42/5/2 122/6/2
f 122/7/3 96/8/3 92/9/3
f 82/10/1 81/11/1 36/2/1
f 81/11/1 117/3/1 36/2/1
f 117/3/1 78/12/1 34/1/1
f 46/13/2 86/14/2 122/6/2
f 86/14/2 84/15/2 122/6/2
f 122/6/2 87/16/2 40/17/2
f 46/13/2 122/6/2 42/5/2
f 40/17/2 120/4/2 122/6/2
f 92/9/3 91/18/3 124/19/3
f 124/19/3 88/20/3 92/9/3
f 88/20/3 87/21/3 122/7/3
f 92/9/3 88/20/3 122/7/3
f 122/7/3 117/22/3 96/8/3
f 117/22/3 81/23/3 96/8/3
f 96/8/3 98/24/3 94/25/3
f 98/24/3 99/26/3 95/27/3
f 95/27/3 99/26/3 54/28/3
f 99/26/3 60/29/3 54/28/3
f 60/29/3 55/30/3 53/31/3
f 54/28/3 60/29/3 53/31/3
f 55/30/3 100/32/3 101/33/3
f 101/33/3 53/31/3 55/30/3
f 95/27/3 94/25/3 98/24/3
f 94/25/3 92/9/3 96/8/3
s 1
f 27/34/4 65/35/5 64/36/4
f 50/37/6 72/38/7 73/39/8
f 116/40/9 69/41/10 68/42/9
f 52/43/11 71/44/12 72/38/7
f 112/45/13 63/46/14 62/47/13
f 79/48/15 59/49/16 97/50/17
f 102/51/5 66/52/18 65/35/5
f 119/53/19 39/54/20 47/55/21
f 80/56/22 59/49/16 79/48/15
f 70/57/23 104/58/10 103/59/23
f 50/37/6 73/39/8 93/60/24
f 103/59/23 85/61/25 44/62/26
f 76/63/27 105/64/28 77/65/29
f 62/47/13 83/66/30 118/67/31
f 115/68/32 68/42/9 67/69/32
f 114/70/18 67/69/32 66/52/18
f 25/71/33 24/72/33 33/73/33
f 108/74/34 128/75/35 107/76/36
f 107/76/36 127/77/37 106/78/38
f 64/36/4 26/79/14 27/34/4
f 106/78/38 57/80/39 80/56/22
f 125/81/40 13/82/41 110/83/42
f 41/84/43 47/55/21 48/85/44
f 105/64/28 113/86/45 118/67/31
f 111/87/46 123/88/47 21/89/48
f 126/90/49 110/83/42 71/44/12
f 12/91/50 109/92/50 11/93/50
f 121/94/51 48/85/44 49/95/52
f 61/96/53 108/74/34 13/82/41
f 21/89/48 121/94/51 49/97/52
f 27/34/4 102/51/5 65/35/5
f 50/37/6 52/43/11 72/38/7
f 116/40/9 104/58/10 69/41/10
f 52/43/11 126/90/49 71/44/12
f 112/45/13 26/79/14 63/46/14
f 102/51/5 114/70/18 66/52/18
f 80/56/22 57/80/39 59/49/16
f 70/57/23 69/41/10 104/58/10
f 44/62/26 111/87/46 70/57/23
f 70/57/23 103/59/23 44/62/26
f 113/86/45 112/45/13 118/67/31
f 112/45/13 62/47/13 118/67/31
f 115/68/32 116/40/9 68/42/9
f 114/70/18 115/68/32 67/69/32
f 24/72/33 35/98/33 33/73/33
f 33/73/33 45/99/33 28/100/33
f 45/99/33 43/101/33 22/102/33
f 32/103/33 45/99/33 22/102/33
f 32/103/33 31/104/33 45/99/33
f 31/104/33 30/105/33 45/99/33
f 30/105/33 29/106/33 45/99/33
f 29/106/33 28/100/33 45/99/33
f 28/100/33 75/107/33 33/73/33
f 75/107/33 74/108/33 33/73/33
f 74/108/33 23/109/33 33/73/33
f 23/109/33 25/71/33 33/73/33
f 108/74/34 56/110/54 128/75/35
f 107/76/36 128/75/35 127/77/37
f 64/36/4 63/46/14 26/79/14
f 106/78/38 127/77/37 57/80/39
f 125/81/40 61/96/53 13/82/41
f 41/84/43 119/53/19 47/55/21
f 105/64/28 76/63/27 113/86/45
f 111/87/46 44/62/26 123/88/47
f 126/90/49 125/81/40 110/83/42
f 19/111/50 89/112/55 18/113/50
f 89/112/55 90/114/56 51/115/57
f 18/113/50 89/112/55 20/116/50
f 51/115/57 20/116/50 89/112/55
f 17/117/50 19/111/50 16/118/50
f 16/118/50 19/111/50 18/113/50
f 12/91/50 14/119/50 15/120/50
f 14/119/50 17/117/50 16/118/50
f 8/121/50 10/122/50 9/123/50
f 10/122/50 12/91/50 11/93/50
f 9/123/50 10/122/50 11/93/50
f 4/124/50 7/125/50 6/126/50
f 7/125/50 8/121/50 6/126/50
f 1/127/50 3/128/50 2/129/50
f 3/128/50 4/124/50 2/129/50
f 37/130/50 38/131/50 1/127/50
f 2/129/50 58/132/50 1/127/50
f 58/132/50 37/130/50 1/127/50
f 5/133/50 2/129/50 4/124/50
f 6/126/50 8/121/50 9/123/50
f 14/119/50 16/118/50 15/120/50
f 6/126/50 5/133/50 4/124/50
f 12/91/50 15/120/50 109/92/50
f 121/94/51 41/84/43 48/85/44
f 61/96/53 56/110/54 108/74/34
f 21/89/48 123/88/47 121/94/51
