# Blender v3.2.0 OBJ File: 'GM.blend'
# www.blender.org
mtllib torii_broken_042.mtl
o 鳥居.001_cell.042_鳥居.001_cell.048
v 0.116477 -0.208724 0.169651
v 0.116477 0.208724 0.169651
v -0.116477 -0.208724 0.169651
v 0.116476 -0.208724 -0.169651
v -0.116477 -0.208724 -0.169651
v 0.116477 0.208724 -0.169651
v -0.116477 0.208724 -0.169651
v -0.116477 0.208724 0.169651
v 0.116477 -0.208724 0.169651
v 0.116477 -0.208724 0.169651
v 0.116477 0.208724 0.169651
v 0.116477 0.208724 0.169651
v -0.116477 -0.208724 0.169651
v -0.116477 -0.208724 0.169651
v 0.116476 -0.208724 -0.169651
v 0.116476 -0.208724 -0.169651
v -0.116477 -0.208724 -0.169651
v -0.116477 -0.208724 -0.169651
v 0.116477 0.208724 -0.169651
v 0.116477 0.208724 -0.169651
v -0.116477 0.208724 -0.169651
v -0.116477 0.208724 -0.169651
v -0.116477 0.208724 0.169651
v -0.116477 0.208724 0.169651
vt 0.797139 0.760196
vt 0.741960 0.705017
vt 0.797139 0.705017
vt 0.852318 0.649838
vt 0.797139 0.649838
vt 0.852318 0.649838
vt 0.852318 0.705017
vt 0.797139 0.705017
vt 0.797139 0.705017
vt 0.797139 0.760196
vt 0.852318 0.815375
vt 0.797139 0.815375
vt 0.852318 0.649838
vt 0.797139 0.649838
vt 0.797139 0.594659
vt 0.907496 0.760196
vt 0.852318 0.705017
vt 0.907496 0.705017
vt 0.741960 0.760196
vt 0.797139 0.649838
vt 0.852318 0.705017
vt 0.852318 0.815375
vt 0.852318 0.649838
vt 0.852318 0.760196
vn 1.0000 -0.0000 -0.0000
vn 0.0000 0.0000 1.0000
vn 0.0000 -1.0000 0.0000
vn 0.0000 0.0000 -1.0000
vn 0.0000 1.0000 0.0000
vn -1.0000 0.0000 0.0000
usemtl マテリアル.002
s 1
f 15/1/1 11/2/1 9/3/1
f 13/4/2 12/5/2 24/6/2
f 14/7/3 16/8/3 1/9/3
f 4/10/4 21/11/4 20/12/4
f 22/13/5 2/14/5 6/15/5
f 7/16/6 3/17/6 8/18/6
f 15/1/1 19/19/1 11/2/1
f 13/4/2 10/20/2 12/5/2
f 14/7/3 17/21/3 16/8/3
f 4/10/4 18/22/4 21/11/4
f 22/13/5 23/23/5 2/14/5
f 7/16/6 5/24/6 3/17/6
