# Blender v3.2.0 OBJ File: 'GM.blend'
# www.blender.org
mtllib torii_broken_026.mtl
o 鳥居.001_cell.026_鳥居.001_cell.043
v -0.419177 0.000458 0.207816
v -0.384877 0.082132 0.207816
v -0.459728 -0.079032 0.134994
v -0.452404 -0.079032 0.207816
v 0.165928 -0.079032 0.207816
v 0.345528 -0.079032 -0.052791
v 0.175683 0.082132 0.207816
v 0.190812 0.082132 0.185862
v 0.204718 0.082132 0.096696
v 0.352465 -0.079032 -0.097274
v 0.248487 0.082132 -0.190873
v 0.253326 0.082132 -0.223138
v 0.329898 -0.022154 -0.223138
v 0.371622 -0.079032 -0.223138
v -0.494982 -0.079032 -0.223138
v -0.427301 0.082132 -0.223138
v -0.419177 0.000458 0.207816
v -0.384877 0.082132 0.207816
v -0.384877 0.082132 0.207816
v -0.452404 -0.079032 0.207816
v -0.452404 -0.079032 0.207816
v 0.165928 -0.079032 0.207816
v 0.165928 -0.079032 0.207816
v -0.459728 -0.079032 0.134994
v 0.345528 -0.079032 -0.052791
v 0.175683 0.082132 0.207816
v 0.175683 0.082132 0.207816
v 0.190812 0.082132 0.185862
v 0.204718 0.082132 0.096696
v 0.248487 0.082132 -0.190873
v 0.253326 0.082132 -0.223138
v 0.253326 0.082132 -0.223138
v 0.329898 -0.022154 -0.223138
v 0.371622 -0.079032 -0.223138
v 0.371622 -0.079032 -0.223138
v -0.494982 -0.079032 -0.223138
v -0.494982 -0.079032 -0.223138
v 0.352465 -0.079032 -0.097274
v -0.427301 0.082132 -0.223138
v -0.427301 0.082132 -0.223138
vt 0.356186 0.045589
vt 0.544126 0.066941
vt 1.000000 0.751705
vt 0.880412 0.880412
vt 0.751705 0.751705
vt 0.880569 0.676611
vt 0.880566 0.238196
vt 0.841831 0.000000
vt 0.880631 0.020065
vt 1.000000 0.580029
vt 0.315510 0.315510
vt 1.000000 0.158169
vt 0.496302 0.496302
vt 1.000000 0.315510
vt 1.000000 0.658523
vt 0.659635 0.000000
vt 0.658512 0.394914
vt 0.496302 0.000000
vt 1.000000 0.880412
vt 0.904756 0.869592
vt 0.419971 0.000000
vt 0.658523 0.658523
vt 0.779540 0.737653
vt 0.659635 0.659635
vt 0.910051 0.642841
vt 0.909739 0.643153
vt 0.915548 0.637344
vt 0.876164 0.657036
vt 0.881973 0.657036
vt 0.882042 0.657036
vt 0.947943 0.657036
vt 0.948085 0.657036
vt 0.948216 0.657036
vt 0.906927 0.710572
vt 0.906535 0.710964
vt 0.914677 0.702822
vt 0.915640 0.637252
vt 0.910373 0.642519
vt 0.882373 0.670519
vt 0.874231 0.678661
vt 0.874411 0.678481
vt 0.874477 0.657036
vt 0.948627 0.668872
vt 0.942278 0.675222
vt 0.948673 0.668827
vt 0.942677 0.657036
vt 0.914042 0.703458
vt 0.907647 0.709852
vn -0.9182 0.3856 0.0904
vn -0.9187 0.3840 0.0924
vn 0.8224 -0.0498 0.5668
vn 0.8017 0.5845 0.1250
vn 0.8003 0.5871 0.1218
vn 0.8002 0.5876 0.1200
vn 0.0000 0.0000 1.0000
vn 0.0000 -1.0000 0.0000
vn 0.0000 1.0000 -0.0000
vn 0.0000 0.0000 -1.0000
usemtl マテリアル.002
s off
f 39/1/1 37/2/1 24/3/1
f 1/4/2 24/5/2 21/6/2
f 5/7/3 28/8/3 27/9/3
f 6/10/4 9/11/4 28/12/4
f 11/13/5 9/14/5 38/15/5
f 33/16/6 32/17/6 11/18/6
f 24/3/1 1/19/1 19/20/1
f 19/20/1 39/1/1 24/3/1
f 5/7/3 6/21/3 28/8/3
f 6/10/4 38/22/4 9/11/4
f 38/15/5 34/23/5 33/24/5
f 33/24/5 11/13/5 38/15/5
s 1
f 17/25/7 20/26/7 22/27/7
f 23/28/8 4/29/8 3/30/8
f 7/31/9 8/32/9 29/33/9
f 13/34/10 14/35/10 15/36/10
f 26/37/7 18/38/7 22/27/7
f 18/38/7 17/25/7 22/27/7
f 3/30/8 36/39/8 23/28/8
f 36/39/8 35/40/8 10/41/8
f 23/28/8 10/41/8 25/42/8
f 36/39/8 10/41/8 23/28/8
f 29/33/9 30/43/9 40/44/9
f 30/43/9 31/45/9 40/44/9
f 40/44/9 2/46/9 29/33/9
f 2/46/9 7/31/9 29/33/9
f 15/36/10 16/47/10 12/48/10
f 12/48/10 13/34/10 15/36/10
