# Blender v3.2.0 OBJ File: 'GM.blend'
# www.blender.org
mtllib torii_broken_044.mtl
o 鳥居.001_cell.044_鳥居.001_cell.026
v -0.089158 -0.048336 0.200168
v -0.132386 -0.048336 0.204426
v -0.047592 -0.048336 0.187559
v 0.084934 -0.048336 -0.060380
v -0.047592 -0.048336 -0.221863
v -0.009284 -0.048336 -0.201387
v 0.024293 -0.048336 -0.173831
v 0.051849 -0.048336 -0.140254
v 0.072325 -0.048336 -0.101946
v 0.089192 -0.048336 -0.017152
v 0.084934 -0.048336 0.026076
v 0.072325 -0.048336 0.067642
v 0.051849 -0.048336 0.105950
v 0.024293 -0.048336 0.139527
v -0.009284 -0.048336 0.167083
v -0.086310 -0.048336 -0.099892
v -0.056411 -0.048336 -0.224538
v -0.047843 -0.039911 -0.221257
v -0.040621 -0.032430 -0.216741
v -0.158554 -0.048336 0.201849
v -0.132386 -0.024678 0.202587
v -0.090071 0.011816 0.195582
v -0.050349 0.044331 0.180903
v -0.011280 -0.002137 -0.198400
v -0.014478 0.071903 0.159311
v 0.076445 0.115613 -0.017152
v 0.073318 0.104007 -0.058069
v 0.060354 0.118328 0.062684
v 0.072066 0.120424 0.023516
v 0.062684 0.085882 -0.097952
v 0.016481 0.093771 0.131716
v 0.041654 0.109373 0.099139
v 0.044736 0.061691 -0.135501
v 0.019872 0.032072 -0.169410
v -0.089158 -0.048336 0.200168
v -0.132386 -0.048336 0.204426
v -0.047592 -0.048336 0.187559
v -0.047592 -0.048336 -0.221863
v -0.009284 -0.048336 -0.201387
v 0.024293 -0.048336 -0.173831
v 0.051849 -0.048336 -0.140254
v 0.072325 -0.048336 -0.101946
v 0.084934 -0.048336 -0.060380
v 0.089192 -0.048336 -0.017152
v 0.084934 -0.048336 0.026076
v 0.072325 -0.048336 0.067642
v 0.051849 -0.048336 0.105950
v 0.024293 -0.048336 0.139527
v -0.009284 -0.048336 0.167083
v -0.056411 -0.048336 -0.224538
v -0.056411 -0.048336 -0.224538
v -0.047843 -0.039911 -0.221257
v -0.040621 -0.032430 -0.216741
v -0.158554 -0.048336 0.201849
v -0.158554 -0.048336 0.201849
v -0.132386 -0.024678 0.202587
v -0.090071 0.011816 0.195582
v -0.050349 0.044331 0.180903
v -0.011280 -0.002137 -0.198400
v -0.014478 0.071903 0.159311
v 0.076445 0.115613 -0.017152
v 0.073318 0.104007 -0.058069
v 0.060354 0.118328 0.062684
v 0.072066 0.120424 0.023516
v 0.062684 0.085882 -0.097952
v 0.016481 0.093771 0.131716
v 0.044736 0.061691 -0.135501
v 0.019872 0.032072 -0.169410
v 0.041654 0.109373 0.099139
v -0.086310 -0.048336 -0.099892
vt 0.646273 0.000000
vt 0.867879 0.111563
vt 0.881692 0.233832
vt 0.881343 0.112510
vt 0.945158 0.125041
vt 1.000000 0.353727
vt 0.852585 0.000000
vt 1.000000 0.147415
vt 0.931299 0.817897
vt 0.891562 0.779525
vt 0.832119 0.707805
vt 0.781079 0.630927
vt 0.739881 0.551668
vt 0.709588 0.472699
vt 0.690911 0.396532
vt 0.684234 0.325500
vt 0.689645 0.261747
vt 0.706951 0.207221
vt 0.735679 0.163660
vt 0.775074 0.132574
vt 0.824083 0.115210
vt 0.068804 0.061969
vt 0.053680 0.048094
vt 0.057241 0.043594
vt 0.065108 0.069433
vt 0.065182 0.069736
vt 0.063999 0.069621
vt 0.070145 0.061361
vt 0.065811 0.065150
vt 0.054856 0.064137
vt 0.052451 0.059141
vt 0.065289 0.066520
vt 0.058874 0.067796
vt 0.052059 0.053548
vt 0.067608 0.062835
vt 0.066592 0.063901
vt 0.074525 0.061235
vt 0.082455 0.047074
vt 0.075917 0.061756
vt 0.070145 0.061361
vt 0.068804 0.061969
vt 0.067196 0.069770
vt 0.079145 0.064766
vt 0.081811 0.063080
vt 0.079525 0.065580
vt 0.084336 0.052403
vt 0.077178 0.062545
vt 0.078257 0.063574
vt 0.073055 0.061006
vt 0.078680 0.042765
vt 0.067809 0.039150
vt 0.071580 0.061036
vt 0.073561 0.039987
vt 0.084065 0.058049
vt 0.062969 0.069081
vt 0.065054 0.067967
vt 0.062147 0.040437
vt 0.070145 0.061361
vt 0.071254 0.061226
vt 0.073055 0.061006
vt 0.074345 0.061344
vt 0.075917 0.061756
vt 0.077039 0.062628
vt 0.078257 0.063574
vt 0.079015 0.064843
vt 0.079473 0.065610
vt 0.065292 0.069674
vt 0.065247 0.069355
vt 0.065054 0.067967
vt 0.065470 0.066420
vt 0.065811 0.065150
vt 0.066923 0.063717
vn -0.6608 0.7336 -0.1585
vn -0.6598 0.7347 -0.1580
vn 0.9970 0.0775 0.0000
vn 0.9820 0.0775 -0.1724
vn 0.9969 0.0775 0.0129
vn 0.3815 0.0775 -0.9211
vn 0.2894 0.0771 -0.9541
vn 0.4236 0.0774 -0.9025
vn 0.9778 0.0775 0.1945
vn 0.8290 0.0775 -0.5539
vn 0.7334 0.0774 -0.6753
vn 0.8487 0.0775 -0.5231
vn 0.7050 0.0775 -0.7050
vn 0.5901 0.0774 -0.8036
vn 0.9323 0.0775 -0.3533
vn 0.9778 0.0775 -0.1945
vn 0.9211 0.0775 -0.3815
vn 0.7050 0.0775 0.7050
vn 0.5821 0.0775 0.8094
vn 0.5539 0.0775 0.8290
vn 0.0000 -1.0000 0.0000
vn -0.0000 0.0775 0.9970
vn 0.0453 0.0774 0.9960
vn -0.0977 0.0771 0.9922
vn 0.4177 0.0774 0.9053
vn 0.3815 0.0775 0.9211
vn 0.1945 0.0775 0.9778
vn 0.8290 0.0775 0.5539
vn 0.7242 0.0775 0.6853
vn 0.9244 0.0775 0.3734
vn 0.9211 0.0775 0.3815
vn 0.8393 0.0775 0.5381
vn 0.2366 0.0774 0.9685
vn 0.4700 0.0771 -0.8793
vn 0.5539 0.0775 -0.8290
vn 0.9774 0.0775 0.1966
usemtl マテリアル.002
s off
f 70/1/1 52/2/1 51/3/1
f 68/4/2 59/5/2 70/6/2
f 70/1/1 53/7/1 52/2/1
f 59/5/2 53/8/2 70/6/2
f 70/6/2 54/9/2 56/10/2
f 56/10/2 57/11/2 70/6/2
f 57/11/2 58/12/2 70/6/2
f 58/12/2 60/13/2 70/6/2
f 60/13/2 66/14/2 70/6/2
f 66/14/2 69/15/2 70/6/2
f 69/15/2 63/16/2 70/6/2
f 63/16/2 29/17/2 70/6/2
f 29/17/2 61/18/2 70/6/2
f 61/18/2 62/19/2 70/6/2
f 62/19/2 65/20/2 70/6/2
f 65/20/2 67/21/2 70/6/2
f 67/21/2 68/4/2 70/6/2
s 1
f 44/22/3 27/23/4 26/24/5
f 5/25/6 50/26/7 18/27/8
f 26/24/5 45/28/9 44/22/3
f 41/29/10 34/30/11 33/31/12
f 40/32/13 24/33/14 34/30/11
f 30/34/15 43/35/16 9/36/17
f 48/37/18 25/38/19 49/39/20
f 4/40/21 10/41/21 16/42/21
f 2/43/22 21/44/23 20/45/24
f 33/31/12 9/36/17 41/29/10
f 49/39/20 23/46/25 3/47/26
f 1/48/27 21/44/23 2/43/22
f 13/49/28 31/50/29 48/37/18
f 45/28/9 28/51/30 12/52/31
f 12/52/31 32/53/32 13/49/28
f 3/47/26 22/54/33 1/48/27
f 19/55/34 24/33/14 6/56/35
f 44/22/3 43/35/16 27/23/4
f 26/24/5 64/57/36 45/28/9
f 41/29/10 40/32/13 34/30/11
f 40/32/13 6/56/35 24/33/14
f 30/34/15 27/23/4 43/35/16
f 48/37/18 31/50/29 25/38/19
f 10/41/21 11/58/21 16/42/21
f 11/58/21 46/59/21 16/42/21
f 46/59/21 47/60/21 16/42/21
f 47/60/21 14/61/21 16/42/21
f 14/61/21 15/62/21 16/42/21
f 15/62/21 37/63/21 16/42/21
f 37/63/21 35/64/21 16/42/21
f 35/64/21 36/65/21 16/42/21
f 36/65/21 55/66/21 16/42/21
f 16/42/21 17/67/21 38/68/21
f 38/68/21 39/69/21 16/42/21
f 39/69/21 7/70/21 16/42/21
f 7/70/21 8/71/21 16/42/21
f 8/71/21 42/72/21 16/42/21
f 42/72/21 4/40/21 16/42/21
f 33/31/12 30/34/15 9/36/17
f 49/39/20 25/38/19 23/46/25
f 1/48/27 22/54/33 21/44/23
f 13/49/28 32/53/32 31/50/29
f 45/28/9 64/57/36 28/51/30
f 12/52/31 28/51/30 32/53/32
f 3/47/26 23/46/25 22/54/33
f 6/56/35 5/25/6 19/55/34
f 5/25/6 18/27/8 19/55/34
