# Blender v3.2.0 OBJ File: 'GM.blend'
# www.blender.org
mtllib torii_broken_046.mtl
o 鳥居.001_cell.046_鳥居.001_cell.028
v -0.025836 0.105089 0.080473
v -0.029406 0.026464 0.156246
v -0.039540 0.050987 0.133516
v -0.049966 0.029217 0.143804
v -0.146411 -0.124991 -0.091458
v -0.119796 -0.159741 -0.106204
v -0.090732 -0.190878 -0.115285
v -0.029778 -0.237708 -0.115285
v -0.060337 -0.217205 -0.118352
v 0.051369 -0.257697 -0.071612
v 0.027168 -0.258351 -0.091458
v 0.086609 -0.234561 -0.019841
v 0.096295 -0.212969 0.010095
v 0.071439 -0.249664 -0.047430
v -0.000232 -0.251601 -0.106204
v 0.059504 -0.047627 0.151322
v 0.057373 -0.043317 0.154066
v -0.188340 -0.050044 -0.047430
v -0.190841 -0.043233 -0.042394
v -0.169556 -0.087953 -0.071612
v 0.089858 -0.118546 0.102295
v 0.100124 -0.185712 0.041227
v 0.076156 -0.081235 0.129884
v 0.097951 -0.153824 0.072359
v -0.188680 -0.037620 -0.046142
v -0.166805 0.010279 -0.071612
v -0.141243 0.059573 -0.091458
v -0.108474 0.098132 -0.107448
v -0.112672 0.094639 -0.106204
v -0.129807 0.079259 -0.097276
v -0.082028 0.119903 -0.115285
v -0.050214 0.144263 -0.118352
v -0.018449 0.166823 -0.115285
v 0.040093 0.203177 -0.091458
v 0.012043 0.186715 -0.106204
v 0.084688 0.223429 -0.047430
v 0.088462 0.224195 -0.040411
v 0.064623 0.215573 -0.071612
v 0.085587 0.055715 0.119414
v 0.095224 0.073063 0.102295
v 0.100959 0.194017 -0.012104
v 0.109153 0.136700 0.041227
v 0.105171 0.103991 0.072359
v 0.107018 0.169932 0.010095
v 0.030120 0.000003 0.176201
v 0.034461 0.002066 0.173912
v 0.059176 0.021072 0.154066
v 0.079693 0.045066 0.129884
v 0.034234 -0.006046 0.173912
v 0.098843 0.202274 -0.019841
v 0.095754 0.208908 -0.025967
v -0.146411 -0.124991 -0.091458
v -0.119796 -0.159741 -0.106204
v 0.051369 -0.257697 -0.071612
v 0.071439 -0.249664 -0.047430
v -0.029778 -0.237708 -0.115285
v -0.000232 -0.251601 -0.106204
v 0.059504 -0.047627 0.151322
v 0.057373 -0.043317 0.154066
v -0.188340 -0.050044 -0.047430
v -0.169556 -0.087953 -0.071612
v -0.108474 0.098132 -0.107448
v -0.112672 0.094639 -0.106204
v -0.082028 0.119903 -0.115285
v -0.050214 0.144263 -0.118352
v -0.018449 0.166823 -0.115285
v -0.141243 0.059573 -0.091458
v -0.129807 0.079259 -0.097276
v -0.188680 -0.037620 -0.046142
v -0.166805 0.010279 -0.071612
v 0.040093 0.203177 -0.091458
v 0.064623 0.215573 -0.071612
v 0.030120 0.000003 0.176201
v 0.034461 0.002066 0.173912
v 0.034234 -0.006046 0.173912
v 0.100959 0.194017 -0.012104
v 0.098843 0.202274 -0.019841
v 0.095754 0.208908 -0.025967
v 0.088462 0.224195 -0.040411
v -0.190841 -0.043233 -0.042394
v 0.076156 -0.081235 0.129884
v -0.090732 -0.190878 -0.115285
v -0.060337 -0.217205 -0.118352
v 0.027168 -0.258351 -0.091458
v 0.086609 -0.234561 -0.019841
v 0.096295 -0.212969 0.010095
v 0.089858 -0.118546 0.102295
v 0.097951 -0.153824 0.072359
v 0.100124 -0.185712 0.041227
v 0.012043 0.186715 -0.106204
v 0.084688 0.223429 -0.047430
v 0.085587 0.055715 0.119414
v 0.095224 0.073063 0.102295
v 0.105171 0.103991 0.072359
v 0.109153 0.136700 0.041227
v 0.107018 0.169932 0.010095
v 0.059176 0.021072 0.154066
v 0.079693 0.045066 0.129884
vt 0.977399 0.198392
vt 1.000000 0.000000
vt 1.000000 0.223971
vt 1.000000 0.725644
vt 0.000000 0.000000
vt 1.000000 0.000000
vt 0.721187 0.374990
vt 0.000000 0.000000
vt 0.696461 0.011967
vt 1.000000 0.582715
vt 0.344827 0.000000
vt 1.000000 0.000000
vt 0.000000 0.000000
vt 0.375440 0.000000
vt 0.472155 0.119399
vt 0.953083 0.088774
vt 0.863648 0.074594
vt 1.000000 0.000000
vt 0.130336 0.039179
vt 0.000000 0.000000
vt 0.137279 0.004602
vt 0.837118 0.176191
vt 0.135805 0.135805
vt 1.000000 1.000000
vt 0.695079 0.695079
vt 1.000000 1.000000
vt 0.423253 0.000000
vt 0.574736 0.574736
vt 0.624560 0.000000
vt 0.668658 0.234376
vt 0.605780 0.161830
vt 0.864287 0.319272
vt 0.814956 0.000000
vt 0.722056 0.722056
vt 0.725644 0.725644
vt 0.879546 0.477526
vt 0.397204 0.023304
vt 0.533639 0.216312
vt 0.579287 0.310311
vt 0.607351 0.397786
vt 0.616753 0.475381
vt 0.607124 0.540105
vt 0.582715 0.582715
vt 0.763826 0.053030
vt 0.657454 0.024911
vt 0.576747 0.000000
vt 1.000000 0.092653
vt 0.107222 0.077356
vt 0.092653 0.092653
vt 0.135805 0.000000
vt 1.000000 0.655173
vt 0.718323 0.292322
vt 1.000000 0.574736
vt 0.541897 0.073197
vt 0.953147 0.491396
vt 0.903374 0.230062
vt 0.769671 0.435875
vt 0.904518 0.156338
vt 0.893177 0.066742
vt 0.578602 0.369530
vt 0.387283 0.294913
vt 0.941192 0.093641
vt 0.223971 0.223971
vt 0.722056 0.000000
vt 0.756979 0.013621
vt 0.889792 0.285080
vt 0.827846 0.331328
vt 0.781867 0.320787
vt 0.728114 0.288051
vt 0.530327 0.873664
vt 0.530346 0.872781
vt 0.530328 0.871730
vt 0.530456 0.842958
vt 0.530578 0.892821
vt 0.530574 0.890934
vt 0.530336 0.886324
vt 0.530166 0.840493
vt 0.530269 0.882533
vt 0.530556 0.888331
vt 0.530543 0.894110
vt 0.530393 0.836070
vt 0.530351 0.833380
vt 0.530133 0.844648
vt 0.530140 0.873588
vt 0.530203 0.878236
vt 0.530461 0.856520
vt 0.530475 0.851157
vt 0.530524 0.885139
vt 0.530506 0.893428
vt 0.530411 0.864421
vt 0.530412 0.877630
vt 0.530231 0.832353
vt 0.530264 0.829896
vt 0.530228 0.831450
vt 0.530484 0.850524
vt 0.530474 0.846950
vt 0.530199 0.836335
vt 0.530400 0.889470
vt 0.530215 0.833322
vt 0.530477 0.881514
vt 0.530308 0.831302
vt 0.530458 0.891866
vt 0.530097 0.850930
vt 0.530065 0.852320
vt 0.530084 0.868762
vt 0.529999 0.859424
vt 0.530030 0.855552
vt 0.529997 0.858205
vt 0.530427 0.839294
vt 0.530568 0.893900
vt 0.530014 0.858479
vt 0.529997 0.859262
vt 0.530046 0.864482
vt 0.530099 0.848639
vt 0.530493 0.853630
vt 0.530248 0.829658
vt 0.530458 0.856778
vt 0.530036 0.863934
vn -0.4825 -0.6275 0.6111
vn -0.7600 0.5370 0.3661
vn -0.7590 0.5400 0.3637
vn -0.5823 0.7806 0.2272
vn -0.5785 0.7839 0.2254
vn 0.0586 0.6845 0.7267
vn 0.0595 0.6829 0.7281
vn -0.4783 -0.5761 0.6629
vn -0.3825 0.5381 0.7511
vn -0.7551 0.5464 0.3622
vn 0.0473 0.6895 0.7228
vn 0.0351 0.6951 0.7180
vn -0.4829 -0.6286 0.6096
vn -0.4815 -0.6257 0.6137
vn -0.7554 0.5459 0.3625
vn 0.0472 0.6895 0.7228
vn -0.4830 -0.6285 0.6097
vn -0.4830 -0.6283 0.6098
vn -0.4829 -0.6286 0.6097
vn -0.4830 -0.6283 0.6099
vn -0.4829 -0.6285 0.6098
vn -0.7994 0.0259 -0.6002
vn -0.8816 0.0247 -0.4713
vn -0.8174 0.0372 -0.5749
vn 0.0419 -0.0012 -0.9991
vn 0.2260 -0.0063 -0.9741
vn 0.0406 -0.0011 -0.9992
vn 0.9711 -0.0272 -0.2371
vn 0.9983 -0.0280 -0.0507
vn 0.9984 -0.0280 -0.0485
vn -0.1490 0.0042 -0.9888
vn 0.5596 -0.0157 -0.8286
vn 0.4148 -0.0116 -0.9098
vn 0.5795 -0.0162 -0.8148
vn 0.9889 -0.0277 0.1463
vn 0.9429 -0.0264 0.3322
vn 0.9892 -0.0277 0.1438
vn -0.5017 0.0141 -0.8649
vn -0.3419 0.0096 -0.9397
vn -0.3351 0.0094 -0.9421
vn 0.6995 -0.0196 -0.7144
vn -0.6631 0.0193 -0.7483
vn -0.6674 0.0187 -0.7445
vn 0.9037 -0.0253 -0.4274
vn 0.8380 -0.0235 -0.5452
vn 0.8816 -0.0247 -0.4713
vn -0.2903 0.0081 -0.9569
vn -0.1525 0.0043 -0.9883
vn 0.9693 -0.0271 -0.2446
vn 0.9095 -0.0255 -0.4148
vn 0.9566 -0.0268 -0.2902
vn -0.5103 0.0143 -0.8599
vn 0.7220 -0.0202 -0.6915
vn 0.8175 -0.0229 -0.5755
vn 0.8816 -0.0247 0.4713
vn 0.8543 -0.0239 0.5192
vn 0.8603 -0.0241 0.5092
vn 0.6005 -0.0168 0.7995
vn 0.7328 -0.0205 0.6801
vn 0.5798 -0.0162 0.8146
vn 0.2334 -0.0065 -0.9724
vn 0.4007 -0.0112 -0.9161
vn 0.4714 -0.0132 0.8818
vn 0.7728 -0.0216 0.6342
vn 0.9405 -0.0263 0.3388
vn -0.4713 0.0132 -0.8819
vn 0.7443 -0.0208 0.6676
usemtl マテリアル.002
s off
f 59/1/1 4/2/1 58/3/1
f 69/4/2 4/5/2 3/6/2
f 26/7/3 3/8/3 67/9/3
f 62/10/4 68/11/4 1/12/4
f 1/13/5 79/14/5 72/15/5
f 93/16/6 43/17/6 2/18/6
f 97/19/7 2/20/7 74/21/7
f 2/20/8 75/22/8 73/23/8
f 2/20/9 3/6/9 4/24/9
f 1/12/10 67/25/10 3/8/10
f 3/26/11 2/20/11 76/27/11
f 1/12/12 78/28/12 79/29/12
f 14/30/13 12/31/13 56/32/13
f 59/1/14 75/33/14 4/2/14
f 69/4/2 19/34/2 4/5/2
f 26/7/3 69/35/3 3/8/3
f 62/10/4 63/36/4 68/11/4
f 79/14/5 36/37/5 72/15/5
f 72/15/5 71/38/5 1/13/5
f 71/38/5 35/39/5 1/13/5
f 35/39/5 66/40/5 1/13/5
f 66/40/5 65/41/5 1/13/5
f 65/41/5 64/42/5 1/13/5
f 64/42/5 62/43/5 1/13/5
f 43/17/6 42/44/6 2/18/6
f 42/44/6 44/45/6 2/18/6
f 44/45/6 76/46/6 2/18/6
f 2/18/6 92/47/6 93/16/6
f 97/19/7 48/48/7 2/20/7
f 48/48/7 92/49/7 2/20/7
f 2/20/7 73/50/7 74/21/7
f 2/20/8 4/2/8 75/22/8
f 1/12/15 68/51/15 67/25/15
f 77/52/16 78/53/16 76/27/16
f 78/53/11 3/26/11 76/27/11
f 1/12/12 3/26/12 78/28/12
f 13/54/17 22/55/17 7/56/17
f 22/55/18 24/57/18 6/58/18
f 6/58/19 24/57/19 5/59/19
f 24/57/20 21/60/20 5/59/20
f 21/60/20 23/61/20 20/62/20
f 20/62/20 23/61/20 4/5/20
f 23/61/20 58/63/20 4/5/20
f 4/5/20 19/64/20 18/65/20
f 18/65/20 20/62/20 4/5/20
f 20/62/21 5/59/21 21/60/21
f 6/58/13 7/56/13 22/55/13
f 7/56/13 9/66/13 13/54/13
f 9/66/13 56/32/13 12/31/13
f 13/54/13 9/66/13 12/31/13
f 56/32/13 57/67/13 14/30/13
f 57/67/13 11/68/13 10/69/13
f 14/30/13 57/67/13 10/69/13
s 1
f 60/70/22 80/71/23 25/72/24
f 32/73/25 8/74/26 83/75/27
f 86/76/28 95/77/29 89/78/30
f 82/79/31 32/73/25 83/75/27
f 84/80/32 90/81/33 34/82/34
f 94/83/35 87/84/36 88/85/37
f 27/86/38 29/87/39 53/88/40
f 34/82/34 54/89/41 84/80/32
f 60/70/22 70/90/42 61/91/43
f 50/92/44 91/93/45 51/94/46
f 28/95/47 31/96/48 53/88/40
f 96/97/49 85/98/50 41/99/51
f 70/90/42 52/100/52 61/91/43
f 38/101/53 55/102/54 54/89/41
f 39/103/55 98/104/56 81/105/57
f 49/106/58 47/107/59 46/108/60
f 89/78/30 94/83/35 88/85/37
f 33/109/61 15/110/62 8/74/26
f 45/111/63 49/112/58 46/108/60
f 98/104/56 47/107/59 16/113/64
f 32/73/25 33/109/61 8/74/26
f 86/76/28 96/97/49 95/77/29
f 82/79/31 31/96/48 32/73/25
f 84/80/32 15/110/62 90/81/33
f 94/83/35 40/114/65 87/84/36
f 53/88/40 52/100/52 27/86/38
f 27/86/38 30/115/66 29/87/39
f 34/82/34 38/101/53 54/89/41
f 60/70/22 25/72/24 70/90/42
f 50/92/44 85/98/50 55/102/54
f 55/102/54 91/93/45 50/92/44
f 91/93/45 37/116/46 51/94/46
f 82/79/31 53/88/40 31/96/48
f 53/88/40 29/87/39 28/95/47
f 86/76/28 85/98/50 96/97/49
f 85/98/50 50/92/44 41/99/51
f 70/90/42 27/117/38 52/100/52
f 38/101/53 91/93/45 55/102/54
f 81/105/57 87/84/36 40/114/65
f 40/114/65 39/103/55 81/105/57
f 49/106/58 17/118/67 47/107/59
f 89/78/30 95/77/29 94/83/35
f 33/109/61 90/81/33 15/110/62
f 17/118/67 16/113/64 47/107/59
f 16/113/64 81/105/57 98/104/56
