# Blender v3.2.0 OBJ File: 'GM.blend'
# www.blender.org
mtllib torii_broken_003.mtl
o 鳥居.001_cell.003_鳥居.001_cell.002
v -0.037523 -0.000750 0.009693
v -0.005052 0.039004 0.011910
v 0.000643 0.042815 0.008808
v 0.057067 0.047287 -0.058644
v 0.044365 0.053746 -0.035220
v 0.024551 0.052624 -0.011038
v -0.058424 -0.004063 0.032917
v -0.026437 0.024666 0.023555
v -0.055343 -0.012110 0.032635
v -0.022142 -0.080435 0.022832
v 0.004228 -0.085178 0.008808
v 0.027789 -0.063024 -0.011038
v 0.046279 -0.014582 -0.035220
v -0.055343 -0.012110 0.032635
v -0.022142 -0.080435 0.022832
v 0.057067 0.047287 -0.058644
v 0.044365 0.053746 -0.035220
v -0.026437 0.024666 0.023555
v -0.058424 -0.004063 0.032917
v 0.000643 0.042815 0.008808
v 0.024551 0.052624 -0.011038
v -0.005052 0.039004 0.011910
v 0.004228 -0.085178 0.008808
v 0.027789 -0.063024 -0.011038
v 0.046279 -0.014582 -0.035220
vt 0.686789 0.036731
vt 0.536141 0.000000
vt 1.000000 0.000000
vt 0.000000 0.000000
vt 0.128196 0.045251
vt 0.066192 0.066192
vt 0.855048 0.035295
vt 0.843984 0.000000
vt 0.608442 0.370435
vt 0.581208 0.218865
vt 1.000000 0.066192
vt 0.978353 0.068805
vt 0.845150 0.062168
vt 0.157875 0.004838
vt 0.992678 0.330110
vt 0.523657 0.409977
vt 0.339594 0.339594
vt 0.463859 0.000000
vt 0.560149 0.784977
vt 0.560088 0.783821
vt 0.560089 0.793072
vt 0.559666 0.791917
vt 0.559782 0.787044
vt 0.559665 0.790428
vt 0.559799 0.801259
vt 0.559905 0.802073
vt 0.559998 0.783673
vt 0.559896 0.784760
vt 0.560003 0.799323
vt 0.559791 0.800975
vt 0.559880 0.785224
vn -0.6527 0.5614 -0.5087
vn -0.6532 0.5618 -0.5077
vn -0.7028 -0.2457 -0.6676
vn -0.4890 -0.2330 -0.8406
vn 0.8816 0.0247 0.4713
vn 0.8268 0.0232 0.5621
vn 0.7895 0.0221 0.6133
vn 0.2730 0.0228 0.9617
vn 0.4158 0.0138 0.9094
vn 0.2341 0.0557 0.9706
vn 0.4380 0.0117 0.8989
vn 0.5408 0.0151 0.8410
vn 0.7142 0.0200 0.6996
vn 0.5775 0.0162 0.8162
vn 0.6656 0.0186 0.7461
vn 0.4714 0.0132 0.8818
usemtl マテリアル.002
s off
f 17/1/1 16/2/1 1/3/1
f 1/4/2 18/5/2 22/6/2
f 1/3/3 14/7/3 19/8/3
f 24/9/4 1/4/4 25/10/4
f 22/11/1 20/12/1 1/3/1
f 20/12/1 21/13/1 1/3/1
f 21/13/1 17/1/1 1/3/1
f 1/4/2 19/14/2 18/5/2
f 1/3/3 15/15/3 14/7/3
f 24/9/4 11/16/4 15/17/4
f 15/17/4 1/4/4 24/9/4
f 1/4/4 16/18/4 25/10/4
s 1
f 4/19/5 5/20/6 13/21/7
f 9/22/8 8/23/9 7/24/10
f 8/23/9 10/25/11 23/26/12
f 6/27/13 13/21/7 5/20/6
f 3/28/14 12/29/15 6/27/13
f 9/22/8 10/30/11 8/23/9
f 3/28/14 2/31/16 23/26/12
f 2/31/16 8/23/9 23/26/12
f 6/27/13 12/29/15 13/21/7
f 3/28/14 23/26/12 12/29/15
