# Blender v3.2.0 OBJ File: 'GM.blend'
# www.blender.org
mtllib torii_broken_047.mtl
o 鳥居.001_cell.049_鳥居.001_cell.029
v -0.107511 -0.051725 0.104567
v 0.090118 -0.051725 -0.104567
v 0.090118 -0.051725 0.104567
v 0.123868 0.066129 -0.104567
v -0.106473 0.037322 -0.104567
v -0.107511 -0.051725 -0.104567
v -0.106473 0.037322 0.104567
v 0.123868 0.066129 0.104567
v -0.107511 -0.051725 0.104567
v -0.107511 -0.051725 0.104567
v 0.090118 -0.051725 0.104567
v 0.090118 -0.051725 0.104567
v 0.090118 -0.051725 -0.104567
v 0.090118 -0.051725 -0.104567
v 0.123868 0.066129 -0.104567
v 0.123868 0.066129 -0.104567
v -0.106473 0.037322 -0.104567
v -0.106473 0.037322 -0.104567
v -0.107511 -0.051725 -0.104567
v -0.107511 -0.051725 -0.104567
v -0.106473 0.037322 0.104567
v -0.106473 0.037322 0.104567
v 0.123868 0.066129 0.104567
v 0.123868 0.066129 0.104567
vt 0.882569 0.840703
vt 0.882569 0.891129
vt 0.882569 0.891395
vt 0.983952 0.942086
vt 0.933260 0.891395
vt 0.983952 0.891395
vt 0.882569 0.891395
vt 0.831877 0.891395
vt 0.882569 0.891395
vt 0.933260 0.942086
vt 0.882569 0.891395
vt 0.933260 0.891395
vt 0.933260 0.942086
vt 0.882569 0.992778
vt 0.882569 0.942086
vt 0.933260 0.840703
vt 0.882569 0.790012
vt 0.933260 0.790012
vt 0.933260 0.840703
vt 0.933260 0.942086
vt 0.831877 0.891395
vt 0.882569 0.942086
vt 0.933260 0.992778
vt 0.882569 0.840703
vn 0.0000 0.0000 1.0000
vn -0.1241 0.9923 0.0000
vn 0.0000 -1.0000 0.0000
vn -0.9999 0.0117 0.0000
vn 0.0000 0.0000 -1.0000
vn 0.9614 -0.2753 0.0000
usemtl マテリアル.002
s 1
f 11/1/1 21/2/1 9/3/1
f 16/4/2 22/5/2 24/6/2
f 20/7/3 12/8/3 10/9/3
f 17/10/4 1/11/4 7/12/4
f 5/13/5 13/14/5 6/15/5
f 8/16/6 2/17/6 4/18/6
f 11/1/1 23/19/1 21/2/1
f 16/4/2 18/20/2 22/5/2
f 20/7/3 14/21/3 12/8/3
f 17/10/4 19/22/4 1/11/4
f 5/13/5 15/23/5 13/14/5
f 8/16/6 3/24/6 2/17/6
