# Blender v3.2.0 OBJ File: 'GM.blend'
# www.blender.org
mtllib torii_broken_043.mtl
o 鳥居.001_cell.043_鳥居.001_cell.049
v 0.462105 0.073917 -0.092409
v 0.462104 0.077963 -0.029562
v 0.193713 0.051121 -0.101387
v 0.193705 0.074352 -0.092409
v 0.567258 0.073879 -0.092409
v 0.567783 0.076682 -0.048877
v 0.567315 0.050526 -0.101387
v 0.567362 0.044161 -0.101387
v 0.567254 0.038657 -0.101387
v 0.567768 0.077034 -0.043408
v 0.542112 -0.036138 -0.101387
v 0.560818 0.077972 -0.009404
v 0.536232 -0.053490 -0.101387
v 0.526202 -0.077339 -0.092409
v 0.455328 -0.053430 -0.101387
v 0.441724 -0.077271 -0.092409
v 0.188862 -0.052374 -0.101387
v 0.179090 -0.076100 -0.092409
v 0.095594 -0.050746 -0.101387
v 0.020262 -0.048646 -0.101387
v 0.092169 -0.074213 -0.092409
v 0.088765 -0.078691 -0.029562
v 0.019783 -0.071809 -0.092409
v 0.169310 -0.080621 -0.029562
v 0.428116 -0.081814 -0.029562
v 0.165642 -0.081117 0.114090
v 0.236390 -0.081445 0.114090
v 0.087490 -0.079184 0.114090
v 0.165984 -0.081070 0.127509
v 0.087740 -0.079087 0.142251
v 0.019239 -0.076586 0.155072
v -0.051455 -0.074372 0.168345
v 0.019194 -0.076726 0.114090
v 0.019352 -0.076237 -0.029562
v -0.051454 -0.074556 0.114090
v -0.105113 -0.073311 0.114090
v -0.051455 -0.074069 -0.029562
v -0.051496 -0.069584 -0.092409
v -0.105115 -0.072823 -0.029562
v -0.105292 -0.068070 -0.092409
v -0.153409 -0.071831 -0.029562
v -0.208721 -0.070403 -0.029562
v -0.153763 -0.066644 -0.092409
v -0.153407 -0.072339 0.114090
v -0.208719 -0.070960 0.114090
v -0.153408 -0.072079 0.187585
v -0.178594 -0.071434 0.192329
v -0.105114 -0.073092 0.178463
v -0.208720 -0.070635 0.198001
v -0.227059 -0.070115 0.201450
v -0.237383 -0.069810 0.203390
v -0.255517 -0.069667 0.114090
v -0.277376 -0.068348 -0.023410
v -0.255519 -0.069061 -0.029562
v -0.277417 -0.068952 0.114090
v -0.255518 -0.069397 0.177965
v -0.263814 -0.069166 0.166281
v -0.277407 -0.068807 0.147160
v -0.282559 -0.068057 0.139151
v -0.282661 -0.068119 0.114090
v -0.284081 -0.062769 0.130490
v -0.284414 -0.061856 0.114090
v -0.285876 -0.051556 0.114090
v -0.299228 0.049290 -0.029562
v -0.293244 0.046416 -0.092409
v -0.288251 -0.027722 -0.029562
v -0.299334 0.053181 -0.034542
v -0.300591 0.098361 -0.092409
v -0.288287 0.116640 -0.098221
v -0.279925 0.114877 -0.101387
v -0.232795 0.136205 -0.046301
v -0.281220 0.124697 -0.098666
v -0.261859 0.140877 -0.092409
v -0.232423 0.132437 -0.092409
v -0.228892 0.102058 -0.101387
v -0.170199 0.117661 -0.029562
v -0.169846 0.112981 -0.092409
v -0.167398 0.085302 -0.101387
v -0.113269 0.093917 -0.092409
v -0.113444 0.098183 -0.029562
v -0.053277 0.084194 -0.029562
v -0.113445 0.098488 0.114090
v -0.053278 0.084499 0.114090
v -0.113445 0.098388 0.161217
v -0.141455 0.108108 0.114090
v -0.170200 0.117865 0.062478
v -0.222397 0.134230 -0.029562
v -0.053278 0.084420 0.151248
v 0.020791 0.079205 0.137661
v 0.020791 0.079255 0.114090
v 0.097428 0.078844 0.123048
v 0.097428 0.078863 0.114090
v 0.144288 0.078778 0.114090
v 0.462104 0.078142 0.053305
v 0.550933 0.078074 0.036303
v 0.490266 -0.082196 0.065582
v 0.511022 -0.081881 -0.029562
v 0.424286 -0.082187 0.078215
v 0.097429 0.078555 -0.029562
v 0.020785 0.075010 -0.092409
v 0.020791 0.078949 -0.029562
v 0.097426 0.074568 -0.092409
v 0.020730 0.052336 -0.101387
v 0.097403 0.051593 -0.101387
v -0.052972 0.057072 -0.101387
v -0.053237 0.080195 -0.092409
v -0.112054 0.068935 -0.101387
v -0.270167 0.042578 -0.101387
v -0.282730 -0.028163 -0.092409
v -0.260408 -0.029947 -0.101387
v -0.212762 -0.033778 -0.101387
v -0.278103 -0.062111 -0.083763
v -0.256134 -0.062958 -0.092409
v -0.209229 -0.064712 -0.092409
v -0.156213 -0.038458 -0.101387
v -0.106509 -0.042602 -0.101387
v -0.051763 -0.045975 -0.101387
v -0.283449 -0.061866 -0.023410
v -0.282223 -0.067853 0.006351
v 0.565110 0.077927 -0.029562
v 0.462105 0.073917 -0.092409
v 0.193705 0.074352 -0.092409
v 0.567258 0.073879 -0.092409
v 0.567258 0.073879 -0.092409
v 0.567783 0.076682 -0.048877
v 0.567315 0.050526 -0.101387
v 0.567362 0.044161 -0.101387
v 0.567254 0.038657 -0.101387
v 0.542112 -0.036138 -0.101387
v 0.536232 -0.053490 -0.101387
v 0.526202 -0.077339 -0.092409
v 0.526202 -0.077339 -0.092409
v 0.019783 -0.071809 -0.092409
v 0.092169 -0.074213 -0.092409
v 0.179090 -0.076100 -0.092409
v 0.087740 -0.079087 0.142251
v 0.165984 -0.081070 0.127509
v 0.236390 -0.081445 0.114090
v 0.019239 -0.076586 0.155072
v -0.051455 -0.074372 0.168345
v -0.178594 -0.071434 0.192329
v -0.153408 -0.072079 0.187585
v -0.105114 -0.073092 0.178463
v -0.208720 -0.070635 0.198001
v -0.227059 -0.070115 0.201450
v -0.237383 -0.069810 0.203390
v -0.277407 -0.068807 0.147160
v -0.263814 -0.069166 0.166281
v -0.255518 -0.069397 0.177965
v -0.282559 -0.068057 0.139151
v -0.282559 -0.068057 0.139151
v -0.282661 -0.068119 0.114090
v -0.284081 -0.062769 0.130490
v -0.285876 -0.051556 0.114090
v -0.299228 0.049290 -0.029562
v -0.299334 0.053181 -0.034542
v -0.300591 0.098361 -0.092409
v -0.300591 0.098361 -0.092409
v -0.288287 0.116640 -0.098221
v -0.293244 0.046416 -0.092409
v -0.281220 0.124697 -0.098666
v -0.261859 0.140877 -0.092409
v -0.261859 0.140877 -0.092409
v -0.232795 0.136205 -0.046301
v -0.232423 0.132437 -0.092409
v -0.169846 0.112981 -0.092409
v -0.113269 0.093917 -0.092409
v -0.170200 0.117865 0.062478
v -0.141455 0.108108 0.114090
v -0.113445 0.098388 0.161217
v -0.222397 0.134230 -0.029562
v -0.053278 0.084420 0.151248
v 0.020791 0.079205 0.137661
v 0.097428 0.078844 0.123048
v 0.144288 0.078778 0.114090
v 0.462104 0.078142 0.053305
v 0.550933 0.078074 0.036303
v 0.560818 0.077972 -0.009404
v 0.511022 -0.081881 -0.029562
v 0.490266 -0.082196 0.065582
v 0.424286 -0.082187 0.078215
v 0.097426 0.074568 -0.092409
v 0.020785 0.075010 -0.092409
v -0.053237 0.080195 -0.092409
v -0.278103 -0.062111 -0.083763
v -0.278103 -0.062111 -0.083763
v -0.278103 -0.062111 -0.083763
v -0.256134 -0.062958 -0.092409
v -0.209229 -0.064712 -0.092409
v -0.153763 -0.066644 -0.092409
v -0.282730 -0.028163 -0.092409
v -0.283449 -0.061866 -0.023410
v -0.277376 -0.068348 -0.023410
v -0.282223 -0.067853 0.006351
v -0.282223 -0.067853 0.006351
v -0.105292 -0.068070 -0.092409
v -0.051496 -0.069584 -0.092409
v 0.441724 -0.077271 -0.092409
v 0.565110 0.077927 -0.029562
v 0.567768 0.077034 -0.043408
vt 0.945692 0.642722
vt 1.000000 0.389645
vt 1.000000 0.656224
vt 0.389645 0.389645
vt 0.657306 0.000000
vt 0.656224 0.656224
vt 0.780631 0.072616
vt 1.000000 0.656556
vt 0.637526 0.000000
vt 1.000000 0.143019
vt 1.000000 0.639775
vt 0.606258 0.340733
vt 0.287381 0.093298
vt 0.245721 0.000000
vt 0.639093 0.173345
vt 0.759706 0.504936
vt 0.754268 0.540422
vt 0.734142 0.565893
vt 0.606717 0.606717
vt 0.768815 0.625440
vt 0.767375 0.767375
vt 0.793899 0.559402
vt 0.362474 0.000000
vt 1.000000 0.189345
vt 0.342694 0.000000
vt 0.349453 0.132250
vt 0.330318 0.043844
vt 0.343443 0.000000
vt 0.810655 0.000000
vt 0.664063 0.336695
vt 0.679130 0.427216
vt 0.309393 0.193516
vt 0.694351 0.529798
vt 0.955379 0.314685
vt 0.320699 0.292517
vt 0.704835 0.620789
vt 0.771828 0.667936
vt 0.320675 0.180770
vt 0.639775 0.639775
vt 0.143018 0.143018
vt 0.649348 0.243620
vt 0.625264 0.077199
vt 0.630178 0.110226
vt 0.615628 0.013575
vt 0.619322 0.037669
vt 0.613523 0.000000
vt 0.749670 0.557910
vt 0.693178 0.582125
vt 0.668176 0.592067
vt 0.613523 0.613523
vt 0.324864 0.189218
vt 0.245721 0.245721
vt 0.411512 0.128027
vt 0.568853 0.020953
vt 0.800186 0.188913
vt 0.606717 0.000000
vt 0.800514 0.177177
vt 0.767375 0.000000
vt 0.804409 0.040863
vt 0.748034 0.367833
vt 0.467968 0.159628
vt 0.469628 0.149116
vt 0.469671 0.148844
vt 0.477087 0.185042
vt 0.467968 0.159630
vt 0.467968 0.182155
vt 0.419582 0.181576
vt 0.467968 0.159630
vt 0.419581 0.181577
vt 0.420391 0.146369
vt 0.312442 0.185042
vt 0.204489 0.185042
vt 0.419580 0.185042
vt 0.198075 0.149919
vt 0.204489 0.157320
vt 0.197168 0.148873
vt 0.204489 0.181577
vt 0.155011 0.159630
vt 0.155011 0.182154
vt 0.204489 0.185042
vt 0.155011 0.185042
vt 0.204489 0.185042
vt 0.144415 0.185042
vt 0.144415 0.185042
vt 0.155011 0.185042
vt 0.155011 0.185042
vt 0.155011 0.185042
vt 0.155011 0.182154
vt 0.208398 0.748659
vt 0.206662 0.873659
vt 0.206662 0.873659
vt 0.144415 0.185042
vt 0.155011 0.159630
vt 0.206662 0.873659
vt 0.212693 0.748659
vt 0.208236 0.736982
vt 0.206662 0.748659
vt 0.206662 0.724155
vt 0.206662 0.748659
vt 0.206662 0.712998
vt 0.206662 0.748659
vt 0.206662 0.873659
vt 0.206662 0.873659
vt 0.206662 0.748659
vt 0.206662 0.701449
vt 0.206662 0.692644
vt 0.206662 0.873659
vt 0.144415 0.185042
vt 0.155011 0.185042
vt 0.144415 0.185042
vt 0.144415 0.185042
vt 0.155011 0.185042
vt 0.144415 0.185042
vt 0.206662 0.748659
vt 0.206662 0.873659
vt 0.155011 0.185042
vt 0.144415 0.185042
vt 0.206662 0.748659
vt 0.206662 0.873659
vt 0.206662 0.680578
vt 0.206662 0.675643
vt 0.206662 0.672642
vt 0.206662 0.748659
vt 0.206662 0.693078
vt 0.206662 0.873659
vt 0.206662 0.748659
vt 0.206662 0.873659
vt 0.206662 0.718594
vt 0.206662 0.701213
vt 0.206662 0.719583
vt 0.206662 0.748659
vt 0.548748 0.185311
vt 0.544342 0.168323
vt 0.544342 0.200506
vt 0.549539 0.163519
vt 0.549603 0.174490
vt 0.557141 0.163230
vt 0.636026 0.029969
vt 0.548837 0.029969
vt 0.312291 0.185042
vt 0.312238 0.185042
vt 0.152645 0.185042
vt 0.321138 0.185042
vt 0.390289 0.185042
vt 0.419580 0.185042
vt 0.390289 0.185042
vt 0.421079 0.185042
vt 0.434244 0.185042
vt 0.467968 0.185042
vt 0.474658 0.185042
vt 0.467968 0.185042
vt 0.467968 0.185042
vt 0.467968 0.185042
vt 0.467968 0.185042
vt 0.419580 0.185042
vt 0.477087 0.185042
vt 0.477087 0.185042
vt 0.467968 0.185042
vt 0.419580 0.185042
vt 0.467968 0.185042
vt 0.477087 0.185042
vt 0.467968 0.185042
vt 0.477087 0.185042
vt 0.966808 0.457689
vt 0.966808 0.241667
vt 0.966808 0.457689
vt 0.966807 0.457689
vt 0.966808 0.319280
vt 0.966808 0.241667
vt 0.966808 0.185788
vt 0.966808 0.241667
vt 0.966808 0.170797
vt 0.966808 0.457689
vt 0.966808 0.206222
vt 0.966808 0.241667
vt 0.966808 0.228196
vt 0.966808 0.241667
vt 0.965347 0.241667
vt 0.966808 0.241667
vt 0.936816 0.241743
vt 0.966807 0.457689
vt 0.966801 0.457678
vt 0.924094 0.241667
vt 0.213636 0.860088
vt 0.219687 0.779876
vt 0.153706 0.152516
vt 0.153421 0.150964
vt 0.966808 0.457689
vt 0.966808 0.457689
vt 0.467968 0.185042
vt 0.477087 0.185042
vt 0.477087 0.185042
vt 0.467968 0.185042
vt 0.419580 0.185042
vt 0.419647 0.185042
vt 0.467968 0.185042
vt 0.419580 0.185042
vt 0.419602 0.185041
vt 0.467968 0.182155
vt 0.467968 0.185042
vt 0.467968 0.185042
vt 0.419580 0.185042
vt 0.467968 0.185042
vt 0.312227 0.185042
vt 0.312238 0.185042
vt 0.200169 0.185042
vt 0.204489 0.185042
vt 0.204489 0.185042
vt 0.155011 0.185042
vt 0.153931 0.185042
vt 0.155011 0.185042
vt 0.155011 0.185042
vt 0.144415 0.185042
vt 0.153931 0.185042
vt 0.155011 0.185042
vt 0.204489 0.185042
vt 0.155011 0.185042
vt 0.204489 0.185042
vt 0.155011 0.185042
vt 0.155011 0.185042
vt 0.144415 0.185042
vt 0.153931 0.185042
vt 0.148530 0.185042
vt 0.200169 0.185042
vt 0.148530 0.185042
vt 0.153931 0.185042
vt 0.144415 0.185042
vt 0.546590 0.029969
vt 0.544342 0.029969
vt 0.144415 0.185042
vt 0.206662 0.873659
vt 0.469671 0.148845
vt 0.468170 0.148362
vt 0.428773 0.146482
vt 0.399605 0.146357
vt 0.399596 0.146353
vt 0.399617 0.146364
vt 0.296111 0.148847
vt 0.297283 0.149464
vt 0.206662 0.684707
vt 0.206662 0.670954
vt 0.206662 0.712753
vt 0.947444 0.420010
vt 0.946604 0.418375
vt 0.215954 0.855578
vn 0.9999 0.0073 -0.0126
vn 0.9998 -0.0196 0.0041
vn 0.9290 -0.3123 0.1985
vn 0.9277 -0.3144 0.2013
vn 0.1867 0.1073 0.9765
vn -0.6526 0.5903 0.4751
vn -0.6504 0.5965 0.4703
vn 0.9999 0.0073 -0.0125
vn 0.1869 0.1076 0.9765
vn 0.1870 0.1076 0.9765
vn 0.1870 0.1075 0.9765
vn 0.1868 0.1073 0.9765
vn -0.6526 0.5903 0.4750
vn -0.6335 0.5918 0.4985
vn -0.6504 0.5964 0.4704
vn 0.0010 0.9994 -0.0332
vn 0.0004 0.9993 -0.0372
vn 0.0004 0.9979 -0.0643
vn 0.0010 0.9979 -0.0642
vn 0.0017 0.9979 -0.0641
vn 0.0011 0.3608 -0.9327
vn 0.0005 0.3605 -0.9328
vn 0.0006 0.1832 -0.9831
vn 0.0001 0.1819 -0.9833
vn 0.0064 0.1840 -0.9829
vn -0.0067 -0.1803 -0.9836
vn 0.0228 0.1769 -0.9840
vn -0.0003 -0.3522 -0.9359
vn -0.0003 -0.1791 -0.9838
vn -0.0001 -0.1384 -0.9904
vn -0.0017 -0.1800 -0.9837
vn -0.0010 -0.3520 -0.9360
vn -0.0045 -0.3528 -0.9357
vn -0.0044 -0.1814 -0.9834
vn -0.0091 -0.3567 -0.9342
vn -0.0059 -0.1836 -0.9830
vn -0.0143 -0.9992 -0.0386
vn -0.0295 -0.9988 -0.0380
vn -0.0279 -0.9969 -0.0732
vn -0.0327 -0.9969 -0.0710
vn -0.0116 -0.3612 -0.9324
vn -0.0123 -0.9972 -0.0737
vn -0.0148 -0.9999 0.0001
vn -0.0028 -0.9993 -0.0381
vn -0.0024 -0.9974 -0.0726
vn -0.0046 -1.0000 -0.0032
vn -0.0157 -0.9999 0.0038
vn -0.0303 -0.9995 0.0001
vn -0.0309 -0.9995 0.0036
vn -0.0333 -0.9994 0.0000
vn -0.0330 -0.9995 0.0034
vn -0.0269 -0.9996 0.0000
vn -0.0331 -0.9988 -0.0371
vn -0.0269 -0.9989 -0.0373
vn -0.0217 -0.9998 0.0000
vn -0.0265 -0.9996 0.0034
vn -0.0215 -0.9998 0.0034
vn -0.0224 -0.9990 -0.0388
vn -0.0283 -0.9970 -0.0721
vn -0.0268 -0.9966 -0.0773
vn -0.0240 -0.9988 -0.0419
vn -0.0226 -0.9997 0.0000
vn -0.0299 -0.9960 -0.0842
vn -0.0282 -0.9985 -0.0459
vn -0.0264 -0.9997 0.0000
vn -0.0253 -0.9997 0.0037
vn -0.0268 -0.9996 0.0039
vn -0.0281 -0.9996 0.0040
vn -0.0303 -0.9995 0.0000
vn -0.0297 -0.9996 0.0042
vn -0.0492 -0.9979 -0.0429
vn -0.0945 -0.9955 0.0000
vn -0.0410 -0.9977 -0.0546
vn -0.0546 -0.9985 0.0044
vn -0.0335 -0.9994 0.0043
vn -0.1512 -0.9885 0.0043
vn -0.1569 -0.9876 -0.0000
vn -0.9688 -0.2476 0.0059
vn -0.9630 -0.2695 0.0000
vn -0.9630 -0.2695 0.0046
vn -0.9790 -0.2039 0.0014
vn -0.9901 -0.1406 -0.0011
vn -0.9881 -0.1404 -0.0634
vn -0.9883 -0.1445 -0.0489
vn -0.9864 -0.1397 -0.0871
vn -0.9864 -0.1390 -0.0876
vn -0.9863 -0.1395 -0.0875
vn -0.1496 0.1167 -0.9818
vn -0.3631 -0.0514 -0.9303
vn -0.3460 0.0424 -0.9373
vn -0.0339 0.2627 -0.9643
vn 0.0791 0.2758 -0.9579
vn 0.2966 0.9520 -0.0754
vn 0.2872 0.9550 -0.0742
vn 0.2748 0.9585 -0.0761
vn 0.0809 0.2880 -0.9542
vn 0.0943 0.3111 -0.9457
vn 0.0423 0.1501 -0.9878
vn 0.3126 0.9492 -0.0362
vn 0.3021 0.9519 -0.0514
vn 0.3089 0.9487 -0.0675
vn 0.0497 0.1628 -0.9854
vn 0.0923 0.3367 -0.9371
vn 0.2754 0.9607 -0.0340
vn 0.2711 0.9604 -0.0635
vn 0.1487 0.9883 -0.0329
vn 0.1490 0.9888 0.0000
vn 0.3209 0.9471 -0.0020
vn 0.2760 0.9612 -0.0000
vn 0.1575 0.9875 0.0021
vn 0.3248 0.9458 -0.0008
vn 0.2547 0.9670 0.0021
vn 0.0417 0.9991 0.0021
vn 0.0379 0.9993 0.0000
vn 0.0037 1.0000 0.0021
vn 0.0035 1.0000 0.0000
vn 0.0017 1.0000 -0.0019
vn 0.0010 1.0000 -0.0022
vn 0.0004 1.0000 -0.0022
vn -0.0008 -1.0000 -0.0035
vn -0.0030 -1.0000 -0.0036
vn -0.0008 -0.9991 -0.0428
vn -0.0008 -0.9974 -0.0723
vn 0.0378 0.9988 -0.0325
vn 0.0036 0.9995 -0.0327
vn 0.0375 0.9973 -0.0627
vn 0.0040 0.9980 -0.0633
vn 0.0133 0.3675 -0.9299
vn 0.0020 0.3644 -0.9312
vn 0.0011 0.1848 -0.9828
vn 0.0518 0.3592 -0.9318
vn 0.0428 0.1698 -0.9845
vn 0.1462 0.9873 -0.0625
vn -0.1885 -0.0260 -0.9817
vn -0.3687 -0.0509 -0.9281
vn -0.3786 -0.1541 -0.9126
vn -0.1928 -0.1491 -0.9699
vn -0.0093 -0.1398 -0.9901
vn -0.1802 -0.2831 -0.9420
vn -0.3670 -0.2836 -0.8860
vn -0.0541 -0.9939 -0.0960
vn -0.0342 -0.9952 -0.0918
vn -0.0730 -0.9926 -0.0969
vn -0.0154 -0.2843 -0.9586
vn -0.0099 -0.1521 -0.9883
vn -0.0159 -0.3095 -0.9508
vn -0.0090 -0.1675 -0.9858
vn -0.0139 -0.3363 -0.9417
vn -0.0114 -0.3561 -0.9344
vn -0.9841 -0.1553 -0.0857
vn -0.9876 -0.1519 -0.0404
vn -0.9854 -0.1469 -0.0855
vn -0.7272 -0.6813 -0.0835
vn -0.7284 -0.6824 -0.0617
vn -0.7272 -0.6813 -0.0840
vn -0.9723 -0.2337 -0.0068
vn -0.7256 -0.6798 -0.1069
vn -0.1287 -0.9917 -0.0044
vn 0.0004 0.9979 -0.0642
vn 0.0001 0.3589 -0.9334
vn 0.0000 0.0000 -1.0000
vn -0.0229 -0.9997 0.0035
vn -0.0287 -0.9996 0.0042
usemtl マテリアル.002
s off
f 7/1/1 6/2/1 127/3/1
f 6/4/2 9/5/2 127/6/2
f 199/7/3 11/8/3 200/9/3
f 177/10/4 180/11/4 179/12/4
f 172/13/5 84/14/5 143/15/5
f 154/16/6 153/17/6 58/18/6
f 164/19/7 72/20/7 159/21/7
f 7/1/8 5/22/8 6/2/8
f 6/4/2 200/23/2 9/5/2
f 178/24/3 11/8/3 199/7/3
f 11/8/3 9/25/3 200/9/3
f 179/12/4 131/26/4 13/27/4
f 13/27/4 11/28/4 179/12/4
f 11/28/4 178/29/4 179/12/4
f 178/29/4 177/10/4 179/12/4
f 139/30/5 30/31/5 173/32/5
f 30/31/5 29/33/5 175/34/5
f 173/32/5 30/31/5 174/35/5
f 29/33/5 27/36/5 175/34/5
f 27/36/9 181/37/9 176/38/9
f 181/37/10 180/39/10 176/38/10
f 180/39/10 177/40/10 176/38/10
f 176/38/11 175/34/11 27/36/11
f 175/34/12 174/35/12 30/31/12
f 140/41/5 139/30/5 173/32/5
f 143/15/5 140/41/5 172/13/5
f 172/13/5 140/41/5 173/32/5
f 141/42/5 46/43/5 84/14/5
f 46/43/5 143/15/5 84/14/5
f 145/44/5 144/45/5 84/14/5
f 144/45/5 141/42/5 84/14/5
f 84/14/5 146/46/5 145/44/5
f 150/47/13 58/18/13 153/17/13
f 58/18/6 57/48/6 154/16/6
f 57/48/13 56/49/13 154/16/13
f 56/49/6 146/50/6 85/51/6
f 146/50/14 84/52/14 85/51/14
f 85/51/6 168/53/6 154/16/6
f 168/53/6 171/54/6 155/55/6
f 85/51/6 154/16/6 56/49/6
f 171/54/6 164/56/6 156/57/6
f 164/56/13 159/58/13 157/59/13
f 156/57/6 164/56/6 157/59/6
f 156/57/6 155/55/6 171/54/6
f 155/55/6 154/16/6 168/53/6
f 164/19/15 162/60/15 72/20/15
s 1
f 2/61/16 120/62/17 125/63/18
f 2/64/16 121/65/19 122/66/20
f 4/67/21 1/68/22 3/69/23
f 1/68/22 126/70/24 3/69/23
f 103/71/25 117/72/26 105/73/27
f 132/74/28 15/75/29 130/76/30
f 17/77/31 15/75/29 198/78/32
f 198/78/32 135/79/33 17/77/31
f 135/79/33 19/80/34 17/77/31
f 134/81/35 20/82/36 19/80/34
f 135/79/33 134/81/35 19/80/34
f 24/83/37 22/84/38 21/85/39
f 22/84/38 133/86/40 21/85/39
f 23/87/41 20/82/36 134/81/35
f 24/83/37 21/85/39 18/88/42
f 26/89/43 22/90/38 24/91/37
f 25/92/44 18/88/42 16/93/45
f 25/94/44 138/95/46 24/91/37
f 26/89/43 138/95/46 137/96/47
f 28/97/48 137/96/47 136/98/49
f 33/99/50 136/98/49 31/100/51
f 31/100/51 35/101/52 33/99/50
f 28/97/48 34/102/53 22/90/38
f 33/99/50 37/103/54 34/102/53
f 36/104/55 32/105/56 48/106/57
f 37/103/54 36/104/55 39/107/58
f 34/108/53 197/109/59 133/86/40
f 197/109/59 37/110/54 39/111/58
f 196/112/60 197/109/59 39/111/58
f 196/112/60 39/111/58 41/113/61
f 39/107/58 44/114/62 41/115/61
f 190/116/63 41/113/61 42/117/64
f 41/115/61 45/118/65 42/119/64
f 190/116/63 196/112/60 41/113/61
f 48/106/57 44/114/62 36/104/55
f 44/114/62 47/120/66 45/118/65
f 47/120/66 49/121/67 45/118/65
f 45/118/65 50/122/68 52/123/69
f 50/122/68 149/124/70 52/123/69
f 193/125/71 52/123/69 55/126/72
f 54/127/73 52/123/69 193/125/71
f 54/127/73 42/119/64 52/123/69
f 52/123/69 147/128/74 55/126/72
f 42/119/64 45/118/65 52/123/69
f 149/124/70 148/129/75 52/123/69
f 55/126/72 151/130/76 152/131/77
f 61/132/78 60/133/79 59/134/80
f 62/135/81 61/136/78 63/137/82
f 63/137/82 64/138/83 66/139/84
f 64/140/83 160/141/85 66/142/84
f 160/141/85 67/143/86 158/144/87
f 70/145/88 68/146/89 69/147/90
f 70/145/88 69/147/90 161/148/91
f 163/149/92 70/145/88 161/148/91
f 71/150/93 74/151/94 73/152/95
f 165/153/96 166/154/97 75/155/98
f 165/153/96 75/155/98 70/145/88
f 76/156/99 71/150/93 87/157/100
f 74/151/94 76/156/99 77/158/101
f 166/154/97 78/159/102 75/155/98
f 166/154/97 167/160/103 78/159/102
f 77/158/101 80/161/104 79/162/105
f 77/158/101 76/156/99 80/161/104
f 79/162/105 80/161/104 81/163/106
f 80/164/104 83/165/107 81/166/106
f 80/164/104 76/167/99 86/168/108
f 82/169/109 88/170/110 83/165/107
f 169/171/111 170/172/112 82/169/109
f 86/168/108 76/167/99 87/173/100
f 83/165/107 89/174/113 90/175/114
f 90/175/114 91/176/115 92/177/116
f 93/178/117 92/177/116 91/179/115
f 93/178/117 94/180/118 2/181/16
f 2/181/16 94/182/118 95/183/119
f 25/94/44 96/184/120 98/185/121
f 97/186/122 16/93/45 14/187/123
f 101/188/124 92/177/116 99/189/125
f 183/190/126 101/191/124 99/192/125
f 183/190/126 99/192/125 182/193/127
f 103/194/25 100/195/128 102/196/129
f 103/194/25 102/196/129 104/197/130
f 104/197/130 102/198/129 4/199/21
f 104/197/130 4/199/21 3/69/23
f 105/73/27 100/200/128 103/194/25
f 184/201/131 100/200/128 105/73/27
f 184/201/131 105/73/27 107/202/132
f 167/160/103 184/201/131 107/202/132
f 167/160/103 107/202/132 78/159/102
f 183/190/126 106/203/133 101/191/124
f 106/203/133 81/163/106 101/191/124
f 79/162/105 81/163/106 106/203/133
f 81/166/106 90/175/114 101/188/124
f 70/145/88 108/204/134 65/205/135
f 65/205/135 108/204/134 191/206/136
f 108/204/134 110/207/137 191/206/136
f 110/207/137 111/208/138 188/209/139
f 191/206/136 110/207/137 185/210/140
f 110/207/137 188/209/139 185/210/140
f 113/211/141 189/212/142 54/213/73
f 113/211/141 54/213/73 186/214/143
f 111/208/138 114/215/144 188/209/139
f 111/208/138 115/216/145 114/215/144
f 115/216/145 43/217/146 114/215/144
f 189/212/142 42/117/64 54/213/73
f 189/212/142 190/116/63 42/117/64
f 115/216/145 116/218/147 43/217/146
f 116/218/147 117/72/26 40/219/148
f 116/218/147 40/219/148 43/217/146
f 117/72/26 20/82/36 38/220/149
f 117/72/26 38/220/149 40/219/148
f 186/214/143 54/213/73 193/221/71
f 66/142/84 187/222/150 192/223/151
f 66/142/84 109/224/152 187/222/150
f 118/225/153 112/226/154 53/227/155
f 62/135/81 192/228/151 194/229/156
f 119/230/157 118/225/153 53/227/155
f 195/231/158 55/126/72 152/131/77
f 195/231/158 193/125/71 55/126/72
f 62/135/81 194/229/156 60/133/79
f 66/142/84 160/141/85 109/224/152
f 22/84/38 34/108/53 133/86/40
f 120/62/17 10/232/159 125/63/18
f 125/63/18 123/233/18 121/65/19
f 121/65/19 2/61/16 125/63/18
f 182/193/127 99/192/125 122/66/20
f 99/192/125 2/64/16 122/66/20
f 1/68/22 124/234/160 126/70/24
f 3/69/23 126/235/24 15/75/29
f 126/235/24 8/236/161 15/75/29
f 8/236/161 128/237/161 15/75/29
f 128/237/161 129/238/161 15/75/29
f 129/238/161 130/239/30 15/75/29
f 15/75/29 17/77/31 3/69/23
f 17/77/31 19/80/34 104/197/130
f 19/80/34 20/82/36 104/197/130
f 20/82/36 117/72/26 103/71/25
f 104/197/130 20/82/36 103/71/25
f 117/72/26 116/218/147 105/73/27
f 116/218/147 115/216/145 107/202/132
f 111/208/138 110/207/137 108/204/134
f 116/218/147 107/202/132 105/73/27
f 115/216/145 111/208/138 78/159/102
f 107/202/132 115/216/145 78/159/102
f 17/77/31 104/197/130 3/69/23
f 111/208/138 108/204/134 78/159/102
f 108/204/134 70/145/88 75/155/98
f 75/155/98 78/159/102 108/204/134
f 132/74/28 198/78/32 15/75/29
f 23/87/41 38/220/149 20/82/36
f 26/89/43 28/97/48 22/90/38
f 25/92/44 24/83/37 18/88/42
f 98/185/121 138/95/46 25/94/44
f 138/95/46 26/89/43 24/91/37
f 28/97/48 26/89/43 137/96/47
f 33/99/50 28/97/48 136/98/49
f 31/100/51 32/105/56 35/101/52
f 28/97/48 33/99/50 34/102/53
f 33/99/50 35/101/52 37/103/54
f 36/104/55 35/101/52 32/105/56
f 37/103/54 35/101/52 36/104/55
f 34/108/53 37/110/54 197/109/59
f 39/107/58 36/104/55 44/114/62
f 41/115/61 44/114/62 45/118/65
f 48/106/57 142/240/162 44/114/62
f 44/114/62 142/240/162 47/120/66
f 45/118/65 49/121/67 50/122/68
f 50/122/68 51/241/163 149/124/70
f 52/123/69 148/129/75 147/128/74
f 55/126/72 147/242/74 151/130/76
f 61/132/78 62/135/81 60/133/79
f 66/139/84 192/228/151 63/137/82
f 192/228/151 62/135/81 63/137/82
f 160/141/85 64/140/83 67/143/86
f 70/145/88 65/205/135 68/146/89
f 163/149/92 165/153/96 70/145/88
f 76/156/99 74/151/94 71/150/93
f 80/164/104 82/169/109 83/165/107
f 86/168/108 169/171/111 82/169/109
f 82/169/109 80/164/104 86/168/108
f 82/169/109 170/172/112 88/170/110
f 83/165/107 88/170/110 89/174/113
f 90/175/114 89/174/113 91/176/115
f 2/181/16 99/189/125 93/178/117
f 99/189/125 92/177/116 93/178/117
f 95/183/119 12/243/119 2/181/16
f 12/243/119 120/244/17 2/181/16
f 25/94/44 97/245/122 96/184/120
f 97/186/122 25/92/44 16/93/45
f 101/188/124 90/175/114 92/177/116
f 81/166/106 83/165/107 90/175/114
