# Blender v3.2.0 OBJ File: 'GM.blend'
# www.blender.org
mtllib torii_broken_010.mtl
o 鳥居.001_cell.010_鳥居.001_cell.005
v -0.063041 -0.026095 0.178085
v -0.179529 -0.001510 -0.119035
v -0.048754 0.044006 0.249912
v -0.182975 -0.000243 -0.103004
v -0.165253 0.113753 -0.005003
v -0.125306 -0.026095 -0.134939
v -0.094174 -0.026095 -0.138006
v -0.063041 -0.026095 -0.134939
v -0.033106 -0.026095 -0.125858
v -0.005516 -0.026095 -0.111112
v 0.018666 -0.026095 -0.091266
v 0.038511 -0.026095 -0.067084
v 0.053258 -0.026095 -0.039495
v 0.062339 -0.026095 -0.009559
v 0.065405 -0.026095 0.021573
v 0.062339 -0.026095 0.052705
v 0.053258 -0.026095 0.082641
v 0.038511 -0.026095 0.110230
v 0.018666 -0.026095 0.134412
v -0.005516 -0.026095 0.154258
v -0.033106 -0.026095 0.169005
v -0.005080 -0.026095 0.236664
v 0.035170 0.044006 0.215150
v 0.035170 -0.026095 0.215150
v -0.005080 0.044006 0.236664
v 0.070450 0.044006 0.186196
v 0.070450 -0.026095 0.186196
v 0.099403 0.044006 0.150917
v 0.099403 -0.026095 0.150917
v 0.134165 -0.026095 0.066993
v 0.134165 0.044006 0.066993
v 0.120917 -0.026095 0.110667
v 0.120917 0.044006 0.110667
v 0.138639 0.044006 0.021573
v 0.138639 -0.026095 0.021573
v 0.134165 0.044006 -0.023846
v 0.134165 -0.026095 -0.023846
v 0.099403 -0.026095 -0.107771
v 0.099403 0.044006 -0.107771
v 0.120917 -0.026095 -0.067520
v 0.120917 0.044006 -0.067520
v 0.070450 0.044006 -0.143050
v 0.070450 -0.026095 -0.143050
v 0.035170 0.044006 -0.172003
v 0.035170 -0.026095 -0.172003
v -0.005080 -0.026095 -0.193518
v -0.048754 0.044006 -0.206766
v -0.005080 0.044006 -0.193518
v 0.096798 0.206457 -0.193904
v 0.256746 0.045292 -0.193904
v 0.544100 0.045292 0.237050
v 0.383984 0.206457 0.237050
v -0.007766 -0.106426 -0.111112
v -0.044724 -0.083711 -0.128892
v -0.034888 -0.089728 -0.125858
v 0.035505 -0.133401 -0.067084
v 0.049994 -0.142642 -0.039495
v 0.016003 -0.121173 -0.091266
v -0.094929 -0.053039 -0.138006
v -0.115715 -0.040454 -0.135923
v -0.064318 -0.071691 -0.134939
v -0.129887 0.206457 -0.022132
v -0.097446 0.206457 0.067095
v -0.077980 0.109551 0.237050
v -0.034855 0.206457 0.237050
v -0.063286 0.044006 0.251343
v -0.068591 0.045292 0.237050
v -0.053392 -0.026095 0.250369
v -0.073646 -0.026095 0.193796
v -0.119566 0.044006 0.094144
v -0.064454 -0.076518 0.178085
v -0.072086 -0.071896 0.178850
v -0.035015 -0.094249 0.169005
v -0.007880 -0.110495 0.154258
v 0.015906 -0.124629 0.134412
v 0.049942 -0.144494 0.082641
v 0.035430 -0.136109 0.110230
v 0.058884 -0.149461 0.052705
v 0.061912 -0.150820 0.021573
v 0.058910 -0.148519 -0.009559
v -0.078680 -0.026095 0.179626
v -0.176096 0.044006 -0.064963
v -0.139152 -0.026095 -0.130739
v -0.138576 -0.026095 -0.137246
v -0.125538 -0.034370 -0.134939
v -0.156682 0.044006 -0.152470
v -0.096544 0.045292 -0.193904
v -0.048754 -0.004745 -0.206766
v -0.040228 -0.026095 -0.204179
v -0.073344 0.044006 -0.209187
v -0.128369 0.100413 -0.193904
v -0.168304 0.045292 -0.098935
v -0.116382 0.206457 -0.084535
v -0.125181 0.110216 -0.193904
v -0.092280 0.206457 -0.193904
v -0.159823 0.044006 -0.139418
v -0.063041 -0.026095 -0.134939
v -0.033106 -0.026095 -0.125858
v 0.038511 -0.026095 -0.067084
v 0.053258 -0.026095 -0.039495
v 0.062339 -0.026095 0.052705
v 0.053258 -0.026095 0.082641
v -0.005516 -0.026095 0.154258
v -0.033106 -0.026095 0.169005
v 0.035170 -0.026095 0.215150
v 0.070450 -0.026095 0.186196
v 0.035170 0.044006 -0.172003
v -0.005080 0.044006 -0.193518
v 0.035170 0.044006 0.215150
v -0.005080 0.044006 0.236664
v -0.048754 0.044006 -0.206766
v -0.073344 0.044006 -0.209187
v -0.073344 0.044006 -0.209187
v -0.044724 -0.083711 -0.128892
v -0.034888 -0.089728 -0.125858
v -0.094929 -0.053039 -0.138006
v -0.064318 -0.071691 -0.134939
v 0.035170 -0.026095 -0.172003
v -0.005080 -0.026095 -0.193518
v -0.097446 0.206457 0.067095
v -0.034855 0.206457 0.237050
v -0.034855 0.206457 0.237050
v -0.068591 0.045292 0.237050
v -0.068591 0.045292 0.237050
v -0.119566 0.044006 0.094144
v -0.119566 0.044006 0.094144
v -0.119566 0.044006 0.094144
v -0.053392 -0.026095 0.250369
v -0.053392 -0.026095 0.250369
v -0.005080 -0.026095 0.236664
v 0.544100 0.045292 0.237050
v 0.544100 0.045292 0.237050
v -0.139152 -0.026095 -0.130739
v -0.139152 -0.026095 -0.130739
v -0.138576 -0.026095 -0.137246
v -0.035015 -0.094249 0.169005
v -0.007880 -0.110495 0.154258
v -0.063041 -0.026095 0.178085
v -0.078680 -0.026095 0.179626
v -0.078680 -0.026095 0.179626
v -0.096544 0.045292 -0.193904
v -0.096544 0.045292 -0.193904
v -0.128369 0.100413 -0.193904
v -0.176096 0.044006 -0.064963
v -0.176096 0.044006 -0.064963
v -0.176096 0.044006 -0.064963
v -0.168304 0.045292 -0.098935
v -0.168304 0.045292 -0.098935
v -0.168304 0.045292 -0.098935
v 0.099403 0.044006 -0.107771
v 0.120917 0.044006 -0.067520
v -0.005516 -0.026095 -0.111112
v 0.070450 0.044006 -0.143050
v 0.062339 -0.026095 -0.009559
v 0.038511 -0.026095 0.110230
v 0.099403 -0.026095 0.150917
v 0.120917 -0.026095 0.110667
v 0.383984 0.206457 0.237050
v 0.383984 0.206457 0.237050
v -0.115715 -0.040454 -0.135923
v 0.099403 0.044006 0.150917
v 0.120917 0.044006 0.110667
v -0.077980 0.109551 0.237050
v 0.134165 0.044006 -0.023846
v -0.064454 -0.076518 0.178085
v -0.072086 -0.071896 0.178850
v 0.015906 -0.124629 0.134412
v 0.035430 -0.136109 0.110230
v -0.159823 0.044006 -0.139418
v -0.159823 0.044006 -0.139418
v -0.159823 0.044006 -0.139418
v -0.048754 -0.004745 -0.206766
v -0.040228 -0.026095 -0.204179
v -0.040228 -0.026095 -0.204179
v 0.096798 0.206457 -0.193904
v 0.096798 0.206457 -0.193904
v -0.092280 0.206457 -0.193904
v -0.092280 0.206457 -0.193904
v -0.125306 -0.026095 -0.134939
v -0.094174 -0.026095 -0.138006
v 0.018666 -0.026095 -0.091266
v 0.065405 -0.026095 0.021573
v 0.070450 0.044006 0.186196
v 0.134165 -0.026095 0.066993
v 0.138639 -0.026095 0.021573
v 0.138639 0.044006 0.021573
v 0.099403 -0.026095 -0.107771
v 0.120917 -0.026095 -0.067520
v 0.070450 -0.026095 -0.143050
v 0.256746 0.045292 -0.193904
v 0.256746 0.045292 -0.193904
v -0.007766 -0.106426 -0.111112
v 0.035505 -0.133401 -0.067084
v 0.016003 -0.121173 -0.091266
v 0.049994 -0.142642 -0.039495
v 0.058910 -0.148519 -0.009559
v -0.048754 0.044006 0.249912
v -0.063286 0.044006 0.251343
v -0.063286 0.044006 0.251343
v -0.073646 -0.026095 0.193796
v 0.049942 -0.144494 0.082641
v 0.058884 -0.149461 0.052705
v 0.061912 -0.150820 0.021573
v -0.125538 -0.034370 -0.134939
v 0.018666 -0.026095 0.134412
v 0.134165 -0.026095 -0.023846
v -0.125181 0.110216 -0.193904
v 0.134165 0.044006 0.066993
v -0.156682 0.044006 -0.152470
v -0.156682 0.044006 -0.152470
v -0.156682 0.044006 -0.152470
v -0.129887 0.206457 -0.022132
v -0.116382 0.206457 -0.084535
vt 0.724184 0.118832
vt 0.880819 0.398717
vt 0.880759 0.627956
vt 0.163491 0.163491
vt 0.000000 0.000000
vt 0.207619 0.000000
vt 1.000000 0.000000
vt 1.000000 0.233033
vt 0.710626 0.000000
vt 0.233033 0.233033
vt 0.781263 0.000000
vt 0.781597 0.240350
vt 0.828004 0.520220
vt 0.642924 0.000000
vt 0.825511 0.187216
vt 0.781263 0.781263
vt 0.314735 0.000000
vt 0.781861 0.478970
vt 1.000000 0.692155
vt 0.668858 0.614367
vt 0.320647 0.320647
vt 0.000000 0.000000
vt 0.600549 0.000000
vt 0.314735 0.314735
vt 1.000000 0.000000
vt 1.000000 0.127774
vt 0.568840 0.130612
vt 0.634333 0.199809
vt 0.127774 0.127774
vt 0.235561 0.000000
vt 0.526890 0.142639
vt 0.242217 0.000000
vt 0.527481 0.000000
vt 1.000000 1.000000
vt 0.611831 0.611831
vt 1.000000 0.898125
vt 1.000000 0.895165
vt 1.000000 0.524123
vt 0.524123 0.524123
vt 1.000000 0.424566
vt 0.895165 0.895165
vt 0.898125 0.898125
vt 1.000000 0.769483
vt 0.769483 0.769483
vt 0.764439 0.000000
vt 0.472519 0.000000
vt 0.762783 0.762783
vt 0.424566 0.424566
vt 0.684476 0.635000
vt 0.692155 0.692155
vt 1.000000 0.163491
vt 0.947292 0.118834
vt 0.220795 0.031664
vt 0.201545 0.102297
vt 0.320647 0.000000
vt 0.642924 0.642924
vt 0.611831 0.000000
vt 1.000000 0.000000
vt 0.440980 0.174463
vt 0.207619 0.207619
vt 0.616784 0.317436
vt 0.598371 0.363572
vt 0.000000 0.000000
vt 0.600549 0.600549
vt 0.289374 0.000000
vt 0.800131 0.175592
vt 1.000000 0.762783
vt 0.757783 0.000000
vt 0.384849 0.148157
vt 0.455146 0.236913
vt 0.312124 0.064258
vt 0.520312 0.327116
vt 0.577842 0.415299
vt 0.760000 0.010321
vt 0.625527 0.498072
vt 0.827882 0.068191
vt 0.661533 0.572256
vt 0.890236 0.114023
vt 0.944665 0.146055
vt 0.693473 0.683887
vt 0.989076 0.163051
vt 0.529646 0.573327
vt 0.529755 0.587750
vt 0.529671 0.588743
vt 0.529667 0.572495
vt 0.529874 0.572305
vt 0.529839 0.572472
vt 0.529992 0.571608
vt 0.529923 0.571643
vt 0.529925 0.572745
vt 0.530060 0.573593
vt 0.530169 0.580177
vt 0.530057 0.582477
vt 0.529738 0.573429
vt 0.529847 0.586333
vt 0.529838 0.573505
vt 0.529951 0.584553
vt 0.530087 0.573298
vt 0.530037 0.573122
vt 0.530108 0.573127
vt 0.530211 0.573101
vt 0.530177 0.573294
vt 0.530181 0.573115
vt 0.529616 0.580490
vt 0.529523 0.572270
vt 0.529557 0.582841
vt 0.529483 0.572448
vt 0.529523 0.584929
vt 0.529521 0.588919
vt 0.529513 0.573077
vt 0.529553 0.589341
vt 0.529933 0.572152
vt 0.529802 0.571981
vt 0.529965 0.571960
vt 0.529862 0.571833
vt 0.529923 0.571790
vt 0.529604 0.589283
vt 0.529789 0.571770
vt 0.529798 0.575346
vt 0.529885 0.573589
vt 0.529916 0.573238
vt 0.529921 0.573034
vt 0.529971 0.573086
vt 0.529751 0.572167
vt 0.529702 0.572983
vt 0.529709 0.572717
vt 0.529797 0.572841
vt 0.529638 0.572762
vt 0.529789 0.572599
vt 0.529742 0.572683
vt 0.529949 0.573560
vt 0.529638 0.572762
vt 0.529465 0.572910
vt 0.529503 0.572569
vt 0.892187 0.660705
vt 0.892101 0.660791
vt 0.891513 0.661379
vt 0.529676 0.571921
vt 0.529693 0.577954
vt 0.934319 0.683180
vt 0.932317 0.657036
vt 0.932495 0.657036
vt 0.529505 0.586677
vt 0.529460 0.572781
vt 0.529505 0.588020
vt 0.530000 0.573279
vt 0.529571 0.573211
vt 0.529837 0.573174
vt 0.529865 0.572949
vt 0.529461 0.572621
vt 0.529917 0.572144
vt 0.529965 0.571960
vt 0.530131 0.571727
vt 0.529590 0.572094
vt 0.529642 0.579638
vt 0.530197 0.579568
vt 0.530174 0.573597
vt 0.530229 0.573586
vt 0.529477 0.572936
vt 0.923817 0.693683
vt 0.924116 0.693384
vt 0.924086 0.693414
vt 0.900779 0.652113
vt 0.900374 0.652518
vt 0.900462 0.652430
vt 0.529656 0.572872
vt 0.529649 0.572640
vt 0.530032 0.571657
vt 0.530030 0.571775
vt 0.529768 0.573087
vt 0.529702 0.572335
vt 0.529984 0.571528
vt 0.529981 0.571530
vt 0.529912 0.571569
vt 0.529716 0.571912
vt 0.529648 0.572100
vt 0.529577 0.572053
vt 0.529613 0.572286
vt 0.529511 0.572230
vt 0.529597 0.572466
vt 0.529471 0.572415
vt 0.529667 0.572495
vt 0.529607 0.572760
vt 0.529451 0.572592
vt 0.529656 0.572872
vt 0.529472 0.572904
vt 0.529702 0.572983
vt 0.529560 0.573188
vt 0.529768 0.573087
vt 0.529637 0.573303
vt 0.529837 0.573174
vt 0.529730 0.573408
vt 0.529916 0.573238
vt 0.530000 0.573279
vt 0.529833 0.573482
vt 0.530087 0.573298
vt 0.529945 0.573534
vt 0.530188 0.573320
vt 0.530238 0.573433
vt 0.530059 0.573569
vt 0.530250 0.573461
vt 0.530176 0.573570
vt 0.529778 0.571712
vt 0.529661 0.571868
vt 0.892072 0.660820
vt 0.888194 0.664698
vt 0.891737 0.661155
vt 0.885494 0.657036
vt 0.891250 0.657036
vt 0.892258 0.660634
vt 0.933083 0.657036
vt 0.937018 0.657036
vt 0.932543 0.684957
vt 0.932190 0.657036
vt 0.529999 0.571762
vt 0.530018 0.571651
vt 0.530120 0.571706
vt 0.530116 0.571699
vt 0.530141 0.571743
vt 0.530067 0.571615
vt 0.529825 0.572474
vt 0.529874 0.572305
vt 0.530218 0.573090
vt 0.530190 0.573099
vt 0.530108 0.573127
vt 0.530035 0.573105
vt 0.529971 0.573086
vt 0.529910 0.573007
vt 0.529865 0.572949
vt 0.529748 0.572776
vt 0.529709 0.572717
vt 0.529729 0.572687
vt 0.529789 0.572599
vt 0.923777 0.693723
vt 0.922000 0.695499
vt 0.920498 0.697002
vt 0.906218 0.646674
vt 0.904714 0.648178
vn 0.6413 0.6371 -0.4276
vn -0.5191 -0.8546 -0.0167
vn -0.8660 0.3885 0.3149
vn -0.8659 0.3853 0.3189
vn -0.9327 -0.1363 0.3339
vn -0.9330 -0.1399 0.3315
vn -0.5294 -0.8471 -0.0468
vn -0.5351 -0.3090 -0.7863
vn -0.9271 0.3166 -0.2006
vn -0.9263 0.3167 -0.2041
vn -0.9270 0.3015 -0.2231
vn -0.5189 -0.8547 -0.0133
vn 0.6416 0.6368 -0.4276
vn -0.5294 -0.8471 -0.0469
vn -0.5189 -0.8547 -0.0132
vn -0.5190 -0.8547 -0.0133
vn -0.5186 -0.8549 -0.0133
vn -0.5187 -0.8548 -0.0139
vn -0.5191 -0.8546 -0.0133
vn -0.5193 -0.8545 -0.0133
vn -0.5196 -0.8543 -0.0133
vn -0.5191 -0.8546 -0.0132
vn 0.9238 -0.0259 0.3819
vn 0.8416 -0.0236 0.5396
vn 0.9284 -0.0260 0.3706
vn 0.8315 0.0000 -0.5556
vn 0.7071 0.0000 -0.7071
vn -0.2903 0.0081 -0.9569
vn -0.1934 0.0054 -0.9811
vn -0.1638 0.0046 -0.9865
vn 0.3841 -0.0108 0.9232
vn 0.2262 -0.0063 0.9741
vn 0.4104 -0.0115 0.9118
vn 0.8318 -0.0233 0.5546
vn 0.7236 -0.0203 0.6899
vn 0.7078 -0.0198 0.7061
vn 0.5782 -0.0162 0.8157
vn 0.3774 -0.0037 0.9261
vn 0.5556 0.0000 0.8315
vn 0.3827 0.0000 0.9239
vn 0.0980 0.0000 0.9952
vn 0.2522 -0.0104 0.9676
vn 0.1955 -0.0024 0.9807
vn 0.4109 -0.0115 -0.9116
vn 0.5567 -0.0156 -0.8306
vn 0.5789 -0.0162 -0.8152
vn 0.7078 -0.0198 -0.7061
vn 0.7244 -0.0203 -0.6891
vn 0.9820 -0.0275 -0.1871
vn 0.9996 -0.0280 0.0000
vn 0.9996 -0.0280 0.0010
vn 0.5556 0.0000 -0.8315
vn 0.3827 0.0000 -0.9239
vn 0.2903 0.0000 -0.9569
vn 0.2629 0.0000 -0.9648
vn 0.9816 -0.0275 0.1890
vn 0.0017 -0.0000 -1.0000
vn 0.0323 -0.0009 -0.9995
vn -0.0980 0.0027 -0.9952
vn 0.7071 0.0000 0.7071
vn 0.8315 0.0000 0.5556
vn 0.9808 0.0000 0.1951
vn 1.0000 0.0000 -0.0000
vn 0.9808 0.0000 -0.1951
vn 0.9239 0.0000 -0.3827
vn 0.5567 -0.0156 0.8306
vn 0.0000 -1.0000 0.0000
vn -0.0536 -0.9977 -0.0405
vn 0.0515 -0.9980 0.0363
vn 0.0052 -1.0000 -0.0017
vn 0.1968 -0.0055 -0.9804
vn 0.2265 -0.0063 -0.9740
vn 0.0000 1.0000 -0.0000
vn 0.8424 -0.0236 -0.5384
vn 0.9238 -0.0259 -0.3819
vn 0.9291 -0.0260 -0.3690
vn 0.9805 -0.0275 0.1947
vn 0.9239 0.0000 0.3827
vn 0.8318 -0.0233 -0.5546
vn 0.0020 1.0000 -0.0002
vn 0.0020 1.0000 -0.0073
vn 0.0117 0.9997 0.0195
vn 0.3841 -0.0108 -0.9232
vn 0.2903 -0.0081 -0.9569
vn 0.0980 -0.0027 0.9952
vn 0.1968 -0.0055 0.9804
vn 0.9805 -0.0275 -0.1947
vn 0.0000 0.0000 -1.0000
vn -0.0000 0.0000 1.0000
vn 0.0980 0.0000 -0.9952
vn 0.1951 0.0000 -0.9808
vn 0.0256 -0.9997 0.0062
vn 0.0010 -1.0000 -0.0006
vn 0.0062 -1.0000 0.0020
vn 0.0042 -1.0000 0.0032
vn -0.0002 -0.9999 -0.0101
vn -0.0081 0.9997 -0.0233
vn 0.0074 0.9999 0.0146
usemtl マテリアル.002
s off
f 190/1/1 158/2/1 132/3/1
f 114/4/2 4/5/2 160/6/2
f 5/7/3 120/8/3 212/9/3
f 120/10/4 163/11/4 121/12/4
f 199/13/5 200/14/5 129/15/5
f 163/16/5 125/17/5 123/18/5
f 166/19/6 140/20/6 127/21/6
f 5/22/6 144/23/6 125/24/6
f 2/25/7 135/26/7 133/27/7
f 113/28/8 135/29/8 210/30/8
f 141/31/8 209/32/8 143/33/8
f 4/34/9 145/35/9 149/36/9
f 147/37/9 5/22/9 213/38/9
f 213/39/10 207/40/10 147/41/10
f 149/42/10 170/43/10 4/34/10
f 2/25/11 170/44/11 210/45/11
f 143/46/11 169/47/11 207/48/11
f 73/49/12 166/50/12 114/51/12
f 190/1/13 176/52/13 158/2/13
f 160/6/2 116/53/2 114/4/2
f 116/53/2 117/54/2 114/4/2
f 120/10/4 5/22/4 163/11/4
f 199/13/5 127/55/5 200/14/5
f 163/16/5 5/22/5 125/17/5
f 140/20/6 200/56/6 127/21/6
f 127/21/6 145/57/6 4/58/6
f 4/58/6 166/19/6 127/21/6
f 204/59/14 160/60/14 133/27/14
f 160/60/7 4/5/7 133/27/7
f 4/5/7 2/25/7 133/27/7
f 113/28/8 172/61/8 135/29/8
f 172/61/8 173/62/8 135/29/8
f 135/29/8 2/63/8 210/30/8
f 144/64/9 5/22/9 147/37/9
f 5/22/9 212/65/9 213/38/9
f 178/66/10 207/40/10 213/39/10
f 207/40/10 169/67/10 147/41/10
f 2/25/11 4/34/11 170/44/11
f 143/46/11 209/68/11 169/47/11
f 79/69/15 78/70/15 80/71/15
f 78/70/15 76/72/15 80/71/15
f 76/72/15 77/73/15 57/74/15
f 77/73/16 75/75/16 56/76/16
f 75/75/16 74/77/16 58/78/16
f 74/77/12 73/49/12 53/79/12
f 53/79/12 73/49/12 114/51/12
f 73/49/15 71/80/15 166/50/15
f 166/50/17 4/58/17 114/51/17
f 114/51/18 115/81/18 53/79/18
f 53/79/19 58/78/19 74/77/19
f 58/78/20 56/76/20 75/75/20
f 56/76/21 57/74/21 77/73/21
f 57/74/22 80/71/22 76/72/22
s 1
f 17/82/23 168/83/24 201/84/25
f 187/85/26 153/86/27 39/87/26
f 134/88/28 179/89/29 85/90/30
f 104/91/31 165/92/32 136/93/33
f 155/94/34 167/95/35 168/83/24
f 205/96/36 137/97/37 167/95/35
f 22/98/38 109/99/39 110/100/40
f 198/101/41 68/102/42 197/103/43
f 55/104/44 152/105/45 192/106/46
f 192/106/46 181/107/47 194/108/48
f 196/109/49 182/110/50 203/111/51
f 107/112/52 119/113/53 108/114/53
f 119/113/53 174/115/54 88/116/55
f 182/110/50 202/117/56 203/111/51
f 180/118/57 59/119/58 60/120/59
f 27/121/60 161/122/61 183/123/60
f 153/86/27 118/124/52 107/112/52
f 184/125/62 34/126/63 208/127/62
f 206/128/64 151/129/65 164/130/64
f 103/131/66 136/93/33 137/97/37
f 37/132/67 154/133/67 100/134/67
f 197/103/43 22/98/38 110/100/40
f 148/135/68 171/136/69 142/137/70
f 59/119/58 8/138/71 61/139/72
f 175/140/73 93/141/73 63/142/73
f 193/143/74 13/144/75 195/145/76
f 24/146/39 183/123/60 109/99/39
f 16/147/77 201/84/25 202/117/56
f 156/148/61 162/149/78 161/122/61
f 194/108/48 12/150/79 193/143/74
f 44/151/80 48/152/81 92/153/82
f 9/154/83 55/104/44 54/155/84
f 72/156/85 138/157/86 81/158/85
f 195/145/76 14/159/87 196/109/49
f 87/160/88 91/161/88 94/162/88
f 65/163/89 64/164/89 67/165/89
f 185/166/63 164/130/64 34/126/63
f 188/167/65 39/87/26 151/129/65
f 88/116/55 90/168/90 47/169/91
f 157/170/78 208/127/62 162/149/78
f 17/82/23 155/94/34 168/83/24
f 187/85/26 189/171/27 153/86/27
f 104/91/31 138/157/86 165/92/32
f 155/94/34 205/96/36 167/95/35
f 205/96/36 103/131/66 137/97/37
f 22/98/38 24/146/39 109/99/39
f 55/104/44 9/154/83 152/105/45
f 192/106/46 152/105/45 181/107/47
f 196/109/49 14/159/87 182/110/50
f 107/112/52 118/124/52 119/113/53
f 88/116/55 47/169/91 108/114/53
f 108/114/53 119/113/53 88/116/55
f 182/110/50 16/147/77 202/117/56
f 60/120/59 85/90/30 179/89/29
f 179/89/29 180/118/57 60/120/59
f 27/121/60 156/148/61 161/122/61
f 153/86/27 189/171/27 118/124/52
f 184/125/62 185/166/63 34/126/63
f 206/128/64 188/167/65 151/129/65
f 103/131/66 104/91/31 136/93/33
f 83/172/67 84/173/67 6/174/67
f 84/173/67 89/175/67 6/174/67
f 89/175/67 46/176/67 98/177/67
f 46/176/67 45/178/67 10/179/67
f 45/178/67 43/180/67 11/181/67
f 43/180/67 38/182/67 11/181/67
f 38/182/67 40/183/67 99/184/67
f 40/183/67 37/132/67 100/134/67
f 99/184/67 40/183/67 100/134/67
f 37/132/67 35/185/67 15/186/67
f 35/185/67 30/187/67 101/188/67
f 30/187/67 32/189/67 102/190/67
f 32/189/67 29/191/67 18/192/67
f 29/191/67 106/193/67 18/192/67
f 106/193/67 105/194/67 19/195/67
f 18/192/67 106/193/67 19/195/67
f 105/194/67 130/196/67 20/197/67
f 130/196/67 128/198/67 69/199/67
f 20/197/67 130/196/67 21/200/67
f 69/199/67 139/201/67 1/202/67
f 69/199/67 1/202/67 21/200/67
f 35/185/67 101/188/67 15/186/67
f 32/189/67 18/192/67 102/190/67
f 11/181/67 38/182/67 99/184/67
f 7/203/67 6/174/67 89/175/67
f 46/176/67 10/179/67 98/177/67
f 69/199/67 21/200/67 130/196/67
f 97/204/67 7/203/67 89/175/67
f 98/177/67 97/204/67 89/175/67
f 20/197/67 19/195/67 105/194/67
f 11/181/67 10/179/67 45/178/67
f 30/187/67 102/190/67 101/188/67
f 37/132/67 15/186/67 154/133/67
f 197/103/43 68/102/42 22/98/38
f 171/136/69 211/205/92 142/137/70
f 142/137/70 191/206/93 126/207/94
f 191/206/93 131/208/67 124/209/95
f 126/207/94 191/206/93 124/209/95
f 126/207/94 146/210/96 142/137/70
f 146/210/96 148/135/68 142/137/70
f 59/119/58 180/118/57 8/138/71
f 122/211/73 159/212/73 175/140/73
f 175/140/73 177/213/73 93/141/73
f 93/141/73 62/214/73 63/142/73
f 63/142/73 122/211/73 175/140/73
f 193/143/74 12/150/79 13/144/75
f 24/146/39 27/121/60 183/123/60
f 16/147/77 17/82/23 201/84/25
f 156/148/61 157/170/78 162/149/78
f 194/108/48 181/107/47 12/150/79
f 111/215/73 112/216/73 96/217/97
f 112/216/73 86/218/73 96/217/97
f 96/217/97 92/153/82 48/152/81
f 111/215/73 96/217/97 48/152/81
f 92/153/82 82/219/98 44/151/80
f 82/219/98 70/220/73 150/221/73
f 44/151/80 82/219/98 42/222/73
f 70/220/73 66/223/73 3/224/73
f 3/224/73 25/225/73 70/220/73
f 25/225/73 23/226/73 70/220/73
f 23/226/73 26/227/73 70/220/73
f 26/227/73 28/228/73 70/220/73
f 28/228/73 33/229/73 70/220/73
f 33/229/73 31/230/73 70/220/73
f 31/230/73 186/231/73 70/220/73
f 186/231/73 36/232/73 70/220/73
f 36/232/73 41/233/73 70/220/73
f 41/233/73 150/221/73 70/220/73
f 150/221/73 42/222/73 82/219/98
f 54/155/84 61/139/72 9/154/83
f 61/139/72 8/138/71 9/154/83
f 72/156/85 165/92/32 138/157/86
f 195/145/76 13/144/75 14/159/87
f 94/162/88 95/234/88 87/160/88
f 95/234/88 49/235/88 87/160/88
f 49/235/88 50/236/88 87/160/88
f 67/165/89 51/237/89 52/238/89
f 52/238/89 65/163/89 67/165/89
f 185/166/63 206/128/64 164/130/64
f 188/167/65 187/85/26 39/87/26
f 157/170/78 184/125/62 208/127/62
