# Blender v3.2.0 OBJ File: 'GM.blend'
# www.blender.org
mtllib torii_broken_001.mtl
o 鳥居.001_cell.001_鳥居.001_cell.055
v -0.000282 -0.009250 -0.007680
v 0.004906 0.003083 -0.007680
v 0.007927 0.003083 0.023039
v -0.012552 0.003083 -0.007680
v 0.004906 0.003083 -0.007680
v 0.004906 0.003083 -0.007680
v 0.007927 0.003083 0.023039
v -0.012552 0.003083 -0.007680
v -0.012552 0.003083 -0.007680
v -0.000282 -0.009250 -0.007680
vt 1.000000 0.829268
vt 0.985756 0.815037
vt 1.000000 0.774983
vt 0.829268 0.829268
vt 0.774983 0.774983
vt 0.829285 0.812199
vt 0.766325 0.969080
vt 0.766137 0.969268
vt 0.766193 0.969212
vt 0.793475 0.941930
vt 0.793286 0.942119
vt 0.793508 0.941897
vn 0.9180 -0.3862 -0.0903
vn -0.6409 -0.6377 0.4273
vn 0.0000 0.0000 -1.0000
vn 0.0000 1.0000 0.0000
usemtl マテリアル.002
s off
f 10/1/1 5/2/1 7/3/1
f 10/4/2 7/5/2 9/6/2
s 1
f 8/7/3 6/8/3 1/9/3
f 2/10/4 4/11/4 3/12/4
