# Blender v3.2.0 OBJ File: 'GM.blend'
# www.blender.org
mtllib torii_broken_032.mtl
o 鳥居.001_cell.031_鳥居.001_cell.018
v -0.059043 -0.103558 0.079129
v -0.025480 0.040665 -0.150117
v -0.020160 0.040655 -0.154737
v -0.230650 0.012960 0.083758
v -0.254725 0.036348 0.074780
v -0.194734 0.040400 0.011933
v -0.081514 -0.091242 0.083758
v -0.044796 0.040706 -0.131719
v -0.032085 -0.096716 0.081702
v 0.067080 0.040635 -0.100993
v 0.017368 0.040704 -0.131719
v -0.013103 -0.091247 0.083758
v 0.248355 0.040394 0.011933
v 0.285466 0.012953 0.083758
v 0.338020 0.036344 0.074780
v -0.025480 0.040665 -0.150117
v -0.020160 0.040655 -0.154737
v -0.230650 0.012960 0.083758
v -0.254725 0.036348 0.074780
v -0.254725 0.036348 0.074780
v -0.044796 0.040706 -0.131719
v -0.059043 -0.103558 0.079129
v -0.081514 -0.091242 0.083758
v -0.194734 0.040400 0.011933
v 0.017368 0.040704 -0.131719
v -0.032085 -0.096716 0.081702
v 0.067080 0.040635 -0.100993
v 0.248355 0.040394 0.011933
v 0.338020 0.036344 0.074780
v 0.338020 0.036344 0.074780
v -0.013103 -0.091247 0.083758
v 0.285466 0.012953 0.083758
vt 0.389148 0.000000
vt 1.000000 0.139738
vt 1.000000 0.587566
vt 0.587593 0.551683
vt 0.587566 0.587566
vt 0.139738 0.139738
vt 1.000000 0.143495
vt 1.000000 0.610852
vt 0.747626 0.348369
vt 0.842832 0.135532
vt 0.843894 0.799286
vt 0.675592 0.137193
vt 0.177850 0.130769
vt 0.500521 0.131269
vt 0.585874 0.271493
vt 0.572992 0.148892
vt 0.413088 0.000000
vt 0.839170 0.000000
vt 0.839170 0.839170
vt 0.413088 0.413088
vt 0.821724 0.008593
vt 0.663218 0.415468
vt 0.552809 0.434885
vt 0.651068 0.428677
vt 0.768699 0.241667
vt 0.762661 0.241667
vt 0.767950 0.241667
vt 0.755795 0.231647
vt 0.763001 0.217236
vt 0.772011 0.199215
vt 0.723931 0.413097
vt 0.725165 0.431884
vt 0.724284 0.418473
vt 0.551620 0.433208
vt 0.553479 0.428838
vt 0.552591 0.430924
vt 0.716750 0.428677
vt 0.711414 0.413327
vt 0.712306 0.415468
vt 0.555177 0.428837
vt 0.771421 0.241667
vt 0.793743 0.155750
vt 0.772050 0.025644
vt 0.723677 0.423850
vt 0.550906 0.434886
vt 0.715861 0.424002
vn -0.4540 -0.7227 -0.5211
vn -0.4912 -0.7030 -0.5142
vn 0.2878 -0.8358 -0.4675
vn 0.2910 -0.8339 -0.4690
vn 0.2893 -0.8339 -0.4699
vn 0.2586 -0.8384 -0.4799
vn 0.0000 0.2873 0.9578
vn -0.0000 -0.0340 0.9994
vn 0.0000 0.3208 0.9472
vn 0.0000 1.0000 -0.0022
vn 0.0000 1.0000 0.0014
vn 0.0000 1.0000 0.0021
vn 0.0000 1.0000 0.0011
vn 0.0000 0.9979 0.0643
vn 0.0000 0.9986 0.0531
vn 0.0000 0.9988 0.0490
vn -0.0000 -0.3518 0.9361
vn -0.0000 -0.0614 0.9981
vn 0.0000 0.3584 0.9336
vn 0.0000 0.3583 0.9336
usemtl マテリアル.002
s off
f 17/1/1 22/2/1 16/3/1
f 21/4/2 16/5/2 22/6/2
f 22/7/3 17/8/3 25/9/3
f 14/10/4 31/11/4 28/12/4
f 23/13/2 18/14/2 24/15/2
f 18/14/2 19/16/2 24/15/2
f 24/15/2 21/4/2 23/13/2
f 23/13/2 21/4/2 22/6/2
f 25/9/5 27/17/5 26/18/5
f 26/18/6 22/7/6 25/9/6
f 26/19/4 27/20/4 31/11/4
f 27/20/4 28/12/4 31/11/4
f 28/12/4 29/21/4 14/10/4
s 1
f 4/22/7 12/23/8 32/24/9
f 2/25/10 11/26/11 3/27/10
f 10/28/12 11/29/11 8/30/13
f 20/31/14 13/32/15 6/33/16
f 9/34/17 7/35/18 1/36/17
f 32/37/9 5/38/19 4/39/7
f 4/22/7 7/40/18 12/23/8
f 2/25/10 8/41/13 11/26/11
f 8/30/13 6/42/16 10/28/12
f 6/42/16 13/43/15 10/28/12
f 20/31/14 30/44/14 13/32/15
f 9/34/17 12/45/8 7/35/18
f 32/37/9 15/46/20 5/38/19
