# Blender v3.2.0 OBJ File: 'GM.blend'
# www.blender.org
mtllib torii_broken_020.mtl
o 鳥居.001_cell.020_鳥居.001_cell.010
v 0.149262 0.615138 -0.068690
v -0.045184 -0.196873 -0.083815
v -0.065030 -0.196873 -0.059633
v -0.098176 -0.196873 -0.081780
v -0.116606 -0.196873 -0.047299
v -0.079777 -0.196873 -0.032044
v -0.127955 -0.196873 -0.009885
v -0.088858 -0.196873 -0.002108
v -0.131788 -0.196873 0.029024
v -0.091924 -0.196873 0.029024
v -0.088858 -0.196873 0.060156
v -0.127955 -0.196873 0.067933
v -0.079777 -0.196873 0.090092
v -0.116606 -0.196873 0.105348
v -0.065030 -0.196873 0.117681
v -0.098176 -0.196873 0.139829
v -0.073372 -0.196873 0.170052
v -0.045184 -0.196873 0.141863
v -0.058459 -0.466416 0.209270
v -0.023538 -0.481584 0.194630
v -0.032071 -0.196873 0.152625
v -0.041468 -0.130386 0.146442
v 0.105758 -0.481584 0.131317
v 0.226916 -0.196873 0.025804
v 0.251917 -0.196873 0.013561
v 0.218649 0.000151 -0.002108
v 0.212530 0.091169 -0.013876
v -0.085158 -0.446613 0.185376
v -0.012815 -0.481584 0.170217
v -0.145832 -0.377511 0.029024
v -0.136214 -0.369087 -0.028562
v -0.141174 -0.370220 -0.012514
v -0.142611 -0.389066 0.070849
v 0.018874 -0.481584 0.098459
v -0.112823 -0.423464 0.149616
v -0.131523 -0.404542 0.111526
v -0.125846 -0.325507 -0.051126
v -0.074967 -0.196873 -0.110060
v -0.102000 -0.256025 -0.084335
v -0.021637 -0.174217 -0.103661
v -0.032688 -0.196873 -0.094071
v 0.064284 -0.076498 -0.130555
v 0.004812 -0.133495 -0.118407
v 0.033824 -0.100499 -0.127488
v 0.152640 -0.065769 -0.103661
v 0.124856 -0.058794 -0.118407
v 0.197908 -0.110045 -0.059633
v 0.224696 -0.196873 0.003267
v 0.223932 -0.188505 -0.002108
v 0.213652 -0.145644 -0.032044
v 0.177307 -0.083074 -0.083815
v 0.095021 -0.062417 -0.127488
v -0.048411 -0.081671 0.141863
v 0.203123 0.230311 -0.032044
v 0.181877 0.462391 -0.059633
v 0.165233 0.606081 -0.075010
v -0.111325 0.605366 0.060156
v -0.112744 0.639061 0.055334
v -0.074585 0.144292 0.117681
v -0.095827 0.376228 0.090092
v 0.150418 0.598710 -0.090212
v 0.158137 0.601413 -0.083815
v -0.114746 0.618032 0.029024
v -0.111030 0.594835 -0.002108
v -0.086142 0.556966 -0.059633
v -0.041501 0.535072 -0.103661
v -0.065926 0.543748 -0.083815
v -0.101372 0.574215 -0.032044
v 0.047055 0.538678 -0.130555
v 0.016097 0.532488 -0.127488
v 0.107390 0.564848 -0.118407
v 0.134448 0.583820 -0.103661
v 0.077881 0.549606 -0.127488
v -0.013805 0.531270 -0.118407
v -0.116606 -0.196873 -0.047299
v -0.127955 -0.196873 -0.009885
v -0.131788 -0.196873 0.029024
v -0.127955 -0.196873 0.067933
v -0.088858 -0.196873 0.060156
v -0.079777 -0.196873 0.090092
v -0.065030 -0.196873 0.117681
v -0.045184 -0.196873 0.141863
v -0.032071 -0.196873 0.152625
v -0.032071 -0.196873 0.152625
v -0.041468 -0.130386 0.146442
v 0.226916 -0.196873 0.025804
v 0.226916 -0.196873 0.025804
v 0.218649 0.000151 -0.002108
v 0.212530 0.091169 -0.013876
v -0.023538 -0.481584 0.194630
v -0.012815 -0.481584 0.170217
v -0.145832 -0.377511 0.029024
v -0.141174 -0.370220 -0.012514
v 0.018874 -0.481584 0.098459
v -0.142611 -0.389066 0.070849
v -0.131523 -0.404542 0.111526
v -0.045184 -0.196873 -0.083815
v -0.032688 -0.196873 -0.094071
v -0.032688 -0.196873 -0.094071
v -0.074967 -0.196873 -0.110060
v -0.074967 -0.196873 -0.110060
v -0.102000 -0.256025 -0.084335
v 0.197908 -0.110045 -0.059633
v 0.213652 -0.145644 -0.032044
v 0.064284 -0.076498 -0.130555
v 0.095021 -0.062417 -0.127488
v 0.181877 0.462391 -0.059633
v 0.165233 0.606081 -0.075010
v -0.074585 0.144292 0.117681
v -0.095827 0.376228 0.090092
v -0.073372 -0.196873 0.170052
v -0.073372 -0.196873 0.170052
v -0.058459 -0.466416 0.209270
v -0.111030 0.594835 -0.002108
v -0.101372 0.574215 -0.032044
v 0.107390 0.564848 -0.118407
v 0.134448 0.583820 -0.103661
v -0.041501 0.535072 -0.103661
v -0.013805 0.531270 -0.118407
v -0.065030 -0.196873 -0.059633
v -0.079777 -0.196873 -0.032044
v -0.111325 0.605366 0.060156
v -0.112744 0.639061 0.055334
v 0.177307 -0.083074 -0.083815
v -0.098176 -0.196873 -0.081780
v -0.088858 -0.196873 -0.002108
v -0.091924 -0.196873 0.029024
v -0.116606 -0.196873 0.105348
v -0.098176 -0.196873 0.139829
v 0.105758 -0.481584 0.131317
v 0.251917 -0.196873 0.013561
v -0.085158 -0.446613 0.185376
v 0.158137 0.601413 -0.083815
v -0.136214 -0.369087 -0.028562
v -0.112823 -0.423464 0.149616
v -0.125846 -0.325507 -0.051126
v -0.021637 -0.174217 -0.103661
v 0.004812 -0.133495 -0.118407
v 0.033824 -0.100499 -0.127488
v 0.152640 -0.065769 -0.103661
v 0.124856 -0.058794 -0.118407
v 0.224696 -0.196873 0.003267
v 0.224696 -0.196873 0.003267
v 0.223932 -0.188505 -0.002108
v -0.048411 -0.081671 0.141863
v 0.203123 0.230311 -0.032044
v 0.150418 0.598710 -0.090212
v -0.114746 0.618032 0.029024
v -0.065926 0.543748 -0.083815
v -0.086142 0.556966 -0.059633
v 0.047055 0.538678 -0.130555
v 0.016097 0.532488 -0.127488
v 0.077881 0.549606 -0.127488
vt 0.949782 0.949782
vt 0.648150 0.595256
vt 0.748740 0.147895
vt 0.636085 0.636085
vt 1.000000 0.876783
vt 0.726444 0.726444
vt 0.917450 0.584417
vt 0.974642 0.561707
vt 1.000000 0.871729
vt 0.579823 0.382762
vt 0.959813 0.613986
vt 0.871729 0.871729
vt 1.000000 1.000000
vt 0.975076 0.918219
vt 1.000000 0.883722
vt 0.545440 0.180461
vt 0.686052 0.309258
vt 0.312861 0.203889
vt 0.000000 0.000000
vt 0.384352 0.033031
vt 0.763952 0.080241
vt 1.000000 0.636085
vt 1.000000 0.726444
vt 0.638440 0.638440
vt 0.475193 0.190811
vt 0.692941 0.000000
vt 0.396185 0.000000
vt 1.000000 0.782950
vt 1.000000 0.557502
vt 0.876783 0.876783
vt 0.799471 0.717611
vt 0.783129 0.779066
vt 0.828191 0.663581
vt 0.868034 0.618719
vt 0.707763 0.309619
vt 0.754068 0.345423
vt 0.666462 0.288450
vt 0.803601 0.394488
vt 0.631754 0.282728
vt 0.854457 0.454927
vt 0.604975 0.292679
vt 0.904681 0.524417
vt 0.587151 0.317915
vt 0.952342 0.600289
vt 0.578967 0.357466
vt 1.000000 0.638440
vt 1.000000 0.949782
vt 0.557502 0.557502
vt 0.539780 0.499062
vt 0.522324 0.412459
vt 0.517404 0.344780
vt 0.956316 0.956316
vt 0.848891 0.469098
vt 1.000000 0.625220
vt 0.883722 0.883722
vt 0.767254 0.742754
vt 0.614501 0.549123
vt 0.486719 0.377313
vt 0.388822 0.233930
vt 0.324583 0.124492
vt 0.305526 0.022776
vt 0.296457 0.053194
vt 0.351452 0.034417
vt 0.432460 0.087660
vt 0.440893 0.257127
vt 0.490004 0.483460
vt 0.745583 0.458010
vt 0.905429 0.248835
vt 1.000000 0.603815
vt 1.000000 0.307059
vt 0.039692 0.039692
vt 0.374780 0.000000
vt 0.108466 0.234959
vt 0.082679 0.214915
vt 0.082839 0.210713
vt 0.101118 0.241032
vt 0.081006 0.218941
vt 0.048091 0.242644
vt 0.040965 0.237542
vt 0.052452 0.235621
vt 0.062847 0.229897
vt 0.068880 0.225171
vt 0.069493 0.225142
vt 0.560152 0.864016
vt 0.560176 0.863257
vt 0.560202 0.882276
vt 0.559274 0.872899
vt 0.559372 0.875101
vt 0.559440 0.972528
vt 0.560084 0.867152
vt 0.560133 0.864693
vt 0.559690 0.965253
vt 0.559488 0.876710
vt 0.559631 0.877694
vt 0.064745 0.149865
vt 0.061140 0.141827
vt 0.069757 0.140104
vt 0.079824 0.200122
vt 0.078077 0.204467
vt 0.078757 0.203291
vt 0.560244 0.964333
vt 0.560243 0.931716
vt 0.560243 0.943790
vt 0.559120 0.863375
vt 0.559247 0.970128
vt 0.559110 0.859540
vt 0.559401 0.952176
vt 0.559360 0.968173
vt 0.559425 0.967745
vt 0.559548 0.968328
vt 0.074752 0.249677
vt 0.074015 0.224398
vt 0.559294 0.973105
vt 0.559203 0.870157
vt 0.559834 0.960699
vt 0.559775 0.875875
vt 0.092841 0.245677
vt 0.077991 0.222206
vt 0.559150 0.866951
vt 0.559241 0.971008
vt 0.083912 0.248501
vt 0.560222 0.960282
vt 0.560236 0.913182
vt 0.083912 0.248501
vt 0.086282 0.260583
vt 0.075047 0.261187
vt 0.559271 0.969363
vt 0.559125 0.860654
vt 0.083058 0.210082
vt 0.081708 0.207179
vt 0.559310 0.968712
vt 0.559291 0.922038
vt 0.559199 0.891144
vt 0.559955 0.957613
vt 0.560054 0.956051
vt 0.559899 0.873469
vt 0.560003 0.870534
vt 0.560245 0.969423
vt 0.560232 0.969956
vt 0.560243 0.970444
vt 0.559427 0.958689
vt 0.559462 0.967571
vt 0.056540 0.246733
vt 0.559255 0.972001
vt 0.560127 0.956018
vt 0.065560 0.249023
vt 0.560187 0.957461
vt 0.559399 0.975002
vt 0.559352 0.974319
vt 0.077847 0.204865
vt 0.092841 0.245677
vt 0.101118 0.241032
vt 0.109017 0.252513
vt 0.109185 0.234942
vt 0.122380 0.234631
vt 0.117760 0.243761
vt 0.097735 0.257752
vt 0.073776 0.250700
vt 0.074752 0.249677
vt 0.063826 0.261134
vt 0.051000 0.249401
vt 0.062446 0.251341
vt 0.052339 0.258863
vt 0.028073 0.241697
vt 0.043152 0.250735
vt 0.032192 0.245977
vt 0.041037 0.254199
vt 0.559116 0.856207
vn 0.4352 0.1442 0.8887
vn -0.4602 -0.8645 -0.2021
vn -0.4603 -0.8642 -0.2033
vn 0.3075 -0.4942 -0.8132
vn 0.2116 0.7824 -0.5858
vn -0.2136 0.7710 -0.6000
vn 0.4341 0.1454 0.8890
vn 0.3841 0.1537 0.9104
vn 0.2120 0.7824 -0.5856
vn 0.4342 0.1455 0.8890
vn 0.4342 0.1454 0.8890
vn 0.4341 0.1455 0.8890
vn -0.7604 0.0770 0.6448
vn -0.8100 0.0765 0.5815
vn -0.6802 0.0768 0.7290
vn -0.8290 0.0775 0.5539
vn -0.9117 0.0775 0.4034
vn -0.8290 0.0775 -0.5539
vn -0.7707 0.0771 -0.6325
vn -0.8627 0.0774 -0.4997
vn -0.9442 0.0773 -0.3201
vn -0.9541 0.0771 -0.2894
vn -0.9792 0.0775 -0.1873
vn 0.7199 0.0202 -0.6938
vn 0.7728 0.0216 -0.6343
vn 0.7781 0.0218 -0.6278
vn -0.7218 -0.0202 -0.6918
vn -0.5663 -0.0159 -0.8240
vn -0.6025 -0.0169 -0.7979
vn 0.5838 0.0164 -0.8117
vn 0.6343 0.0178 -0.7729
vn -0.2369 -0.0066 -0.9715
vn -0.3863 -0.0108 -0.9223
vn -0.1898 -0.0053 -0.9818
vn 0.0000 1.0000 0.0000
vn 0.0000 -1.0000 -0.0000
vn 0.9431 0.0264 -0.3314
vn 0.9566 0.0268 -0.2902
vn 0.9591 0.0269 -0.2818
vn -0.9871 -0.0276 -0.1577
vn -0.9996 -0.0280 0.0000
vn -0.9988 -0.0280 0.0406
vn -0.7670 -0.0215 0.6412
vn -0.8307 -0.0233 0.5562
vn -0.7061 -0.0198 0.7078
vn -0.4299 -0.0120 -0.9028
vn -0.9970 0.0775 0.0000
vn -0.9969 0.0775 0.0135
vn -0.8307 -0.0233 -0.5562
vn -0.8466 -0.0237 -0.5317
vn -0.0302 -0.0008 -0.9995
vn 0.0144 0.0004 -0.9999
vn -0.9211 0.0775 0.3815
vn -0.9739 0.0775 0.2131
vn -0.9359 -0.0262 -0.3512
vn -0.9803 -0.0275 -0.1953
vn -0.9778 0.0775 0.1945
vn 0.8566 0.0240 -0.5154
vn 0.8856 0.0248 -0.4638
vn -0.9803 -0.0275 0.1953
vn -0.9939 -0.0278 0.1064
vn -0.6325 0.0771 0.7707
vn -0.9233 -0.0259 0.3832
vn -0.8776 -0.0246 0.4788
vn -0.9541 -0.0267 0.2981
vn 0.1814 0.0051 -0.9834
vn 0.3867 0.0108 -0.9221
vn 0.2170 0.0061 -0.9761
vn 0.4094 0.0115 -0.9123
vn 0.9903 0.0277 -0.1361
vn 0.9948 0.0279 -0.0980
vn -0.6343 -0.0178 0.7729
vn -0.9211 0.0775 -0.3815
vn -0.9233 -0.0259 -0.3832
vn 0.5737 0.0161 -0.8189
vn -0.9778 0.0775 -0.1945
vn 0.7324 0.0205 -0.6806
vn -0.6343 -0.0178 -0.7729
vn -0.7061 -0.0198 -0.7078
vn -0.9948 -0.0279 0.0980
usemtl マテリアル.002
s off
f 130/1/1 86/2/1 83/3/1
f 113/4/2 91/5/2 90/6/2
f 30/7/3 32/8/3 94/9/3
f 99/10/4 142/11/4 94/12/4
f 1/13/5 133/14/5 147/15/5
f 115/16/6 114/17/6 1/13/6
f 55/18/7 1/19/7 57/20/7
f 83/3/8 112/21/8 113/22/8
f 113/22/1 90/23/1 83/3/1
f 90/23/1 130/1/1 83/3/1
f 130/1/1 131/24/1 86/2/1
f 86/2/1 88/25/1 85/26/1
f 88/25/1 89/27/1 85/26/1
f 86/2/1 85/26/1 83/3/1
f 113/4/2 28/28/2 91/5/2
f 32/8/3 134/29/3 94/9/3
f 94/9/3 91/30/3 35/31/3
f 91/30/3 28/32/3 35/31/3
f 35/31/3 96/33/3 94/9/3
f 96/33/3 95/34/3 94/9/3
f 95/34/3 30/7/3 94/9/3
f 141/35/4 45/36/4 106/37/4
f 45/36/4 124/38/4 105/39/4
f 124/38/4 103/40/4 139/41/4
f 103/40/4 104/42/4 138/43/4
f 124/38/4 139/41/4 105/39/4
f 104/42/4 49/44/4 40/45/4
f 49/44/4 142/11/4 99/10/4
f 142/11/4 131/46/4 130/47/4
f 130/47/4 94/12/4 142/11/4
f 94/12/4 134/48/4 37/49/4
f 99/10/4 37/49/4 102/50/4
f 94/12/4 37/49/4 99/10/4
f 102/50/4 100/51/4 99/10/4
f 99/10/4 40/45/4 49/44/4
f 40/45/4 138/43/4 104/42/4
f 138/43/4 139/41/4 103/40/4
f 105/39/4 106/37/4 45/36/4
f 1/13/9 56/52/9 133/14/9
f 114/17/6 63/53/6 1/13/6
f 63/53/6 123/54/6 1/13/6
f 1/13/6 147/55/6 117/56/6
f 116/57/6 1/13/6 117/56/6
f 116/57/6 73/58/6 1/13/6
f 73/58/6 69/59/6 1/13/6
f 69/59/6 152/60/6 118/61/6
f 152/60/6 119/62/6 118/61/6
f 118/61/6 67/63/6 1/13/6
f 69/59/6 118/61/6 1/13/6
f 67/63/6 65/64/6 1/13/6
f 65/64/6 115/16/6 1/13/6
f 110/65/10 59/66/10 54/67/10
f 59/66/11 145/68/11 89/69/11
f 145/68/11 85/70/11 89/69/11
f 89/69/11 54/67/11 59/66/11
f 54/67/11 55/18/11 110/65/11
f 55/18/11 56/71/11 1/19/11
f 1/19/12 123/72/12 57/20/12
f 57/20/10 110/65/10 55/18/10
s 1
f 111/73/13 135/74/14 132/75/15
f 129/76/16 36/77/17 135/74/14
f 4/78/18 101/79/19 39/80/20
f 136/81/21 31/82/22 93/83/23
f 62/84/24 108/85/25 107/86/26
f 149/87/27 66/88/28 137/89/29
f 72/90/30 61/91/31 62/84/24
f 44/92/32 74/93/33 70/94/34
f 25/95/35 143/96/35 87/97/35
f 23/98/36 29/99/36 34/100/36
f 50/101/37 27/102/38 26/103/39
f 64/104/40 127/105/41 148/106/42
f 53/107/43 15/108/44 82/109/45
f 66/88/28 43/110/46 137/89/29
f 77/111/47 93/83/23 92/112/48
f 149/87/27 120/113/49 150/114/50
f 42/115/51 70/94/34 151/116/52
f 128/117/53 33/118/54 36/77/17
f 68/119/55 126/120/56 64/104/40
f 78/121/57 92/112/48 33/118/54
f 47/122/58 146/123/59 50/101/37
f 12/124/35 79/125/35 10/126/35
f 127/105/41 11/127/60 122/128/61
f 132/129/15 19/130/62 111/73/13
f 13/131/63 109/132/64 60/133/65
f 151/116/52 52/134/66 42/115/51
f 46/135/67 153/136/68 71/137/69
f 144/138/70 24/139/71 48/140/71
f 22/141/72 82/109/45 21/142/72
f 75/143/73 39/80/20 136/81/21
f 11/127/60 60/133/65 122/128/61
f 150/114/50 6/144/74 68/119/55
f 140/145/75 71/137/69 72/90/30
f 111/73/13 129/76/16 135/74/14
f 129/76/16 128/117/53 36/77/17
f 93/83/23 76/146/76 136/81/21
f 76/146/76 75/143/73 136/81/21
f 107/86/26 47/122/58 51/147/77
f 51/147/77 62/84/24 107/86/26
f 98/148/78 97/149/79 137/89/29
f 97/149/79 149/87/27 137/89/29
f 51/147/77 140/145/75 62/84/24
f 140/145/75 72/90/30 62/84/24
f 44/92/32 43/110/46 74/93/33
f 23/98/36 20/150/36 29/99/36
f 26/103/39 144/138/70 50/101/37
f 50/101/37 146/123/59 27/102/38
f 64/104/40 126/120/56 127/105/41
f 53/107/43 109/132/64 15/108/44
f 66/88/28 74/93/33 43/110/46
f 77/111/47 76/146/76 93/83/23
f 149/87/27 97/149/79 120/113/49
f 42/115/51 44/92/32 70/94/34
f 128/117/53 78/121/57 33/118/54
f 68/119/55 6/144/74 126/120/56
f 78/121/57 77/111/47 92/112/48
f 47/122/58 107/86/26 146/123/59
f 14/151/35 16/152/35 81/153/35
f 16/152/35 17/154/35 81/153/35
f 17/154/35 84/155/35 18/156/35
f 17/154/35 18/156/35 81/153/35
f 12/124/35 14/151/35 80/157/35
f 7/158/35 9/159/35 8/160/35
f 9/159/35 12/124/35 10/126/35
f 8/160/35 9/159/35 10/126/35
f 125/161/35 5/162/35 121/163/35
f 5/162/35 7/158/35 121/163/35
f 41/164/35 38/165/35 2/166/35
f 38/165/35 125/161/35 3/167/35
f 2/166/35 38/165/35 3/167/35
f 121/163/35 7/158/35 8/160/35
f 14/151/35 81/153/35 80/157/35
f 121/163/35 3/167/35 125/161/35
f 12/124/35 80/157/35 79/125/35
f 58/168/80 148/106/42 122/128/61
f 148/106/42 127/105/41 122/128/61
f 13/131/63 15/108/44 109/132/64
f 151/116/52 153/136/68 52/134/66
f 46/135/67 52/134/66 153/136/68
f 144/138/70 26/103/39 24/139/71
f 22/141/72 53/107/43 82/109/45
f 75/143/73 4/78/18 39/80/20
f 11/127/60 13/131/63 60/133/65
f 150/114/50 120/113/49 6/144/74
f 140/145/75 46/135/67 71/137/69
