# Blender v3.2.0 OBJ File: 'GM.blend'
# www.blender.org
mtllib torii_broken_030.mtl
o 鳥居.001_cell.030_鳥居.001_cell.017
v 0.071545 -0.029700 -0.207263
v 0.033237 -0.029700 -0.186787
v -0.000340 -0.029700 -0.159231
v -0.027896 -0.029700 -0.125654
v -0.048372 -0.029700 -0.087346
v -0.060981 -0.029700 -0.045780
v -0.065238 -0.029700 -0.002552
v -0.060981 -0.029700 0.040676
v -0.048372 -0.029700 0.082242
v -0.027896 -0.029700 0.120550
v -0.000340 -0.029700 0.154127
v 0.033237 -0.029700 0.181683
v -0.047709 0.080710 -0.060104
v -0.040863 0.074845 -0.084236
v -0.022122 0.059634 -0.121796
v 0.003458 0.039397 -0.155433
v 0.093031 -0.029700 -0.213781
v 0.072022 -0.013672 -0.206112
v 0.104022 -0.029700 0.064341
v 0.035155 0.014713 -0.183917
v 0.070234 -0.029700 0.140710
v 0.058586 -0.029700 0.166709
v 0.030657 -0.017558 0.178350
v -0.057313 0.072243 -0.002552
v -0.052649 0.079573 -0.044123
v -0.054093 0.060635 0.039305
v 0.001527 0.004255 0.152260
v -0.024289 0.026099 0.118140
v -0.043000 0.045095 0.080016
v 0.033610 -0.021067 0.181124
v 0.042134 -0.029700 0.186438
v 0.071545 -0.029700 -0.207263
v 0.033237 -0.029700 -0.186787
v -0.000340 -0.029700 -0.159231
v -0.027896 -0.029700 -0.125654
v -0.048372 -0.029700 -0.087346
v -0.060981 -0.029700 -0.045780
v -0.065238 -0.029700 -0.002552
v -0.060981 -0.029700 0.040676
v -0.048372 -0.029700 0.082242
v -0.027896 -0.029700 0.120550
v -0.000340 -0.029700 0.154127
v 0.033237 -0.029700 0.181683
v -0.047709 0.080710 -0.060104
v -0.040863 0.074845 -0.084236
v -0.022122 0.059634 -0.121796
v 0.003458 0.039397 -0.155433
v 0.093031 -0.029700 -0.213781
v 0.093031 -0.029700 -0.213781
v 0.072022 -0.013672 -0.206112
v 0.035155 0.014713 -0.183917
v 0.070234 -0.029700 0.140710
v 0.058586 -0.029700 0.166709
v 0.001527 0.004255 0.152260
v 0.030657 -0.017558 0.178350
v -0.052649 0.079573 -0.044123
v -0.057313 0.072243 -0.002552
v -0.054093 0.060635 0.039305
v -0.024289 0.026099 0.118140
v 0.033610 -0.021067 0.181124
v 0.104022 -0.029700 0.064341
v 0.042134 -0.029700 0.186438
v 0.042134 -0.029700 0.186438
v -0.043000 0.045095 0.080016
vt 0.571976 0.075616
vt 0.555938 0.000000
vt 0.863357 0.000000
vt 0.634929 0.000000
vt 1.000000 0.131047
vt 1.000000 0.216775
vt 0.337571 0.171560
vt 0.283456 0.200239
vt 0.136643 0.000000
vt 0.707338 0.707338
vt 0.655655 0.617662
vt 0.706701 0.584582
vt 0.860700 0.684060
vt 0.816318 0.620764
vt 0.737803 0.487484
vt 0.669612 0.348998
vt 0.613805 0.210164
vt 0.707338 0.000000
vt 0.216775 0.216775
vt 0.131047 0.131047
vt 0.444062 0.000000
vt 0.439817 0.025222
vt 0.416967 0.082379
vt 0.382540 0.131757
vt 0.634928 0.634928
vt 0.063893 0.206440
vt 0.065671 0.204746
vt 0.065948 0.205504
vt 0.072019 0.209800
vt 0.074006 0.224099
vt 0.069540 0.224854
vt 0.077956 0.204677
vt 0.077706 0.205109
vt 0.078869 0.207174
vt 0.066761 0.206826
vt 0.061694 0.210471
vt 0.061182 0.215048
vt 0.069081 0.208842
vt 0.062495 0.219448
vt 0.073590 0.209833
vt 0.077923 0.221907
vt 0.081023 0.206551
vt 0.079989 0.205904
vt 0.080137 0.205576
vt 0.065374 0.223153
vt 0.070500 0.209470
vt 0.082490 0.214648
vt 0.076616 0.209022
vt 0.077949 0.208216
vt 0.082591 0.210478
vt 0.079087 0.207163
vt 0.080878 0.218652
vt 0.075140 0.209548
vt 0.081360 0.206931
vt 0.067818 0.207952
vt 0.080098 0.205578
vt 0.079989 0.205904
vt 0.077949 0.208216
vt 0.076211 0.209040
vt 0.078681 0.203422
vt 0.072019 0.209800
vt 0.073590 0.209833
vt 0.072019 0.209800
vt 0.070899 0.209435
vt 0.069081 0.208842
vt 0.068035 0.207933
vt 0.066761 0.206826
vt 0.066114 0.205489
vt 0.065752 0.204739
vt 0.068930 0.224884
vn 0.6009 0.7990 -0.0237
vn 0.4612 0.8629 0.2065
vn 0.4611 0.8636 0.2040
vn 0.5033 0.7553 0.4197
vn 0.4613 0.8628 0.2067
vn -0.4164 0.0775 -0.9059
vn -0.2894 0.0771 -0.9541
vn -0.3815 0.0775 -0.9211
vn -0.9778 0.0775 -0.1945
vn -0.9969 0.0775 -0.0143
vn -0.9763 0.0775 -0.2021
vn 0.0000 -1.0000 0.0000
vn -0.5539 0.0775 -0.8290
vn -0.5828 0.0775 -0.8089
vn -0.7266 0.0775 -0.6827
vn -0.8290 0.0775 -0.5539
vn -0.8429 0.0775 -0.5324
vn -0.9970 0.0775 0.0000
vn -0.9815 0.0775 0.1749
vn -0.5902 0.0774 0.8035
vn -0.5539 0.0775 0.8290
vn -0.4700 0.0771 0.8793
vn -0.9281 0.0775 -0.3642
vn -0.9211 0.0775 -0.3815
vn -0.8444 0.0775 0.5301
vn -0.9211 0.0775 0.3815
vn -0.8290 0.0775 0.5539
vn -0.7265 0.0775 0.6828
vn -0.7050 0.0775 0.7050
vn -0.9303 0.0775 0.3586
vn -0.9778 0.0775 0.1945
vn -0.6325 0.0771 0.7707
vn -0.7050 0.0775 -0.7050
vn -0.9541 0.0771 -0.2894
usemtl マテリアル.002
s off
f 45/1/1 44/2/1 61/3/1
f 55/4/2 52/5/2 54/6/2
f 64/7/3 28/8/3 61/9/3
f 53/10/4 60/11/4 62/12/4
f 61/3/1 49/13/1 50/14/1
f 50/14/1 51/15/1 61/3/1
f 51/15/1 47/16/1 61/3/1
f 47/16/1 15/17/1 61/3/1
f 15/17/1 45/1/1 61/3/1
f 55/4/5 53/18/5 52/5/5
f 28/8/3 54/19/3 52/20/3
f 52/20/3 61/9/3 28/8/3
f 61/9/3 44/21/3 56/22/3
f 57/23/3 61/9/3 56/22/3
f 57/23/3 58/24/3 61/9/3
f 58/24/3 64/7/3 61/9/3
f 53/10/4 55/25/4 60/11/4
s 1
f 18/26/6 48/27/7 1/28/8
f 6/29/9 24/30/10 25/31/11
f 21/32/12 22/33/12 42/34/12
f 18/26/6 2/35/13 20/36/14
f 16/37/15 4/38/16 46/39/17
f 38/40/18 26/41/19 24/30/10
f 30/42/20 12/43/21 31/44/22
f 14/45/23 5/46/24 6/29/9
f 59/47/25 9/48/26 10/49/27
f 27/50/28 10/49/27 11/51/29
f 29/52/30 8/53/31 9/48/26
f 12/43/21 30/42/20 23/54/32
f 46/39/17 5/46/24 14/45/23
f 20/36/14 3/55/33 16/37/15
f 6/29/9 38/40/18 24/30/10
f 63/56/12 43/57/12 22/33/12
f 43/57/12 42/34/12 22/33/12
f 42/34/12 41/58/12 21/32/12
f 41/58/12 40/59/12 19/60/12
f 40/59/12 39/61/12 19/60/12
f 39/61/12 7/62/12 19/60/12
f 7/62/12 37/63/12 19/60/12
f 37/63/12 36/64/12 19/60/12
f 36/64/12 35/65/12 19/60/12
f 35/65/12 34/66/12 19/60/12
f 34/66/12 33/67/12 19/60/12
f 33/67/12 32/68/12 19/60/12
f 32/68/12 17/69/12 19/60/12
f 19/60/12 21/32/12 41/58/12
f 18/26/6 1/28/8 2/35/13
f 16/37/15 3/55/33 4/38/16
f 38/40/18 8/53/31 26/41/19
f 25/31/11 13/70/34 6/29/9
f 13/70/34 14/45/23 6/29/9
f 59/47/25 29/52/30 9/48/26
f 27/50/28 59/47/25 10/49/27
f 29/52/30 26/41/19 8/53/31
f 23/54/32 27/50/28 11/51/29
f 11/51/29 12/43/21 23/54/32
f 46/39/17 4/38/16 5/46/24
f 20/36/14 2/35/13 3/55/33
