# Blender v3.2.0 OBJ File: 'GM.blend'
# www.blender.org
mtllib torii_broken_037.mtl
o 鳥居.001_cell.037_鳥居.001_cell.023
v 0.006614 -0.018432 0.041301
v 0.009525 0.011177 0.064223
v -0.062495 0.011177 -0.014993
v -0.049710 -0.021405 -0.022632
v -0.069375 0.011177 -0.022632
v 0.076233 -0.004869 -0.022632
v 0.089207 0.011177 -0.022632
v 0.009525 0.011177 0.064223
v -0.062495 0.011177 -0.014993
v 0.089207 0.011177 -0.022632
v 0.089207 0.011177 -0.022632
v -0.069375 0.011177 -0.022632
v -0.069375 0.011177 -0.022632
v 0.076233 -0.004869 -0.022632
v -0.049710 -0.021405 -0.022632
vt 0.000000 0.000000
vt 1.000000 0.624914
vt 0.486193 0.486193
vt 1.000000 0.000000
vt 1.000000 0.486193
vt 0.514219 0.000000
vt 0.514219 0.514219
vt 1.000000 0.667791
vt 1.000000 1.000000
vt 0.332209 0.000000
vt 1.000000 0.663015
vt 0.433149 0.278515
vt 0.897752 0.719747
vt 0.896384 0.721115
vt 0.897568 0.719931
vt 0.958631 0.658868
vt 0.960057 0.657442
vt 0.958567 0.658932
vt 0.896262 0.721237
vt 0.959308 0.658191
vn -0.6752 -0.4089 0.6139
vn 0.1299 -0.9892 -0.0684
vn 0.6330 -0.5118 0.5808
vn -0.6780 -0.4092 0.6106
vn 0.0000 0.0000 -1.0000
vn 0.0000 1.0000 0.0000
usemtl マテリアル.002
s off
f 1/1/1 9/2/1 15/3/1
f 1/4/2 15/5/2 14/6/2
f 14/7/3 8/8/3 1/9/3
f 8/10/1 9/2/1 1/1/1
f 9/2/4 12/11/4 15/3/4
f 14/7/3 10/12/3 8/8/3
s 1
f 13/13/5 6/14/5 4/15/5
f 3/16/6 7/17/6 5/18/6
f 13/13/5 11/19/5 6/14/5
f 3/16/6 2/20/6 7/17/6
