# Blender v3.2.0 OBJ File: 'GM.blend'
# www.blender.org
mtllib torii_broken_023.mtl
o 鳥居.001_cell.023_鳥居.001_cell.013
v -0.035512 -0.005489 0.057062
v 0.051363 0.041389 -0.033843
v 0.096783 -0.028712 -0.029370
v 0.051363 -0.028712 -0.033843
v 0.005944 0.041389 -0.029370
v 0.005944 -0.028712 -0.029370
v -0.037730 -0.028712 -0.016122
v -0.077981 -0.028712 0.005393
v -0.011828 0.041389 0.022680
v 0.003286 -0.028712 0.039852
v 0.045259 0.042675 -0.016508
v 0.096783 -0.013719 -0.029370
v 0.102760 -0.028712 -0.027557
v 0.069017 0.041389 -0.032104
v 0.015167 0.094821 -0.016508
v -0.047862 -0.028712 0.055953
v -0.090580 -0.028712 0.015733
v -0.077981 -0.009398 0.005393
v -0.066221 -0.028712 0.048538
v -0.039813 0.041389 -0.015009
v -0.058161 -0.028712 0.058370
v -0.047862 -0.028712 0.055953
v -0.058161 -0.028712 0.058370
v -0.037730 -0.028712 -0.016122
v -0.077981 -0.028712 0.005393
v -0.011828 0.041389 0.022680
v -0.011828 0.041389 0.022680
v -0.011828 0.041389 0.022680
v 0.069017 0.041389 -0.032104
v 0.069017 0.041389 -0.032104
v 0.096783 -0.013719 -0.029370
v 0.102760 -0.028712 -0.027557
v 0.102760 -0.028712 -0.027557
v 0.003286 -0.028712 0.039852
v 0.045259 0.042675 -0.016508
v 0.045259 0.042675 -0.016508
v 0.015167 0.094821 -0.016508
v -0.039813 0.041389 -0.015009
v -0.039813 0.041389 -0.015009
v -0.039813 0.041389 -0.015009
v -0.039813 0.041389 -0.015009
v -0.039813 0.041389 -0.015009
v 0.005944 0.041389 -0.029370
v -0.090580 -0.028712 0.015733
v -0.090580 -0.028712 0.015733
v -0.077981 -0.009398 0.005393
v -0.066221 -0.028712 0.048538
v 0.051363 -0.028712 -0.033843
v 0.005944 -0.028712 -0.029370
v 0.096783 -0.028712 -0.029370
v 0.051363 0.041389 -0.033843
vt 0.755367 0.000000
vt 1.000000 0.000000
vt 1.000000 0.122281
vt 0.613296 0.136576
vt 0.476529 0.000000
vt 0.748656 0.000000
vt 0.122282 0.122282
vt 0.000000 0.000000
vt 0.076861 0.000000
vt 1.000000 0.244633
vt 0.847811 0.238214
vt 1.000000 0.251344
vt 1.000000 0.523471
vt 0.893272 0.432708
vt 1.000000 0.000000
vt 1.000000 1.000000
vt 0.928681 0.928681
vt 0.004374 0.000000
vt 1.000000 0.923139
vt 0.761422 0.363002
vt 0.715681 0.330207
vt 0.561468 0.195639
vt 0.894825 0.423359
vt 0.837135 0.155565
vt 0.928681 0.000000
vt 0.530117 0.571701
vt 0.530034 0.571557
vt 0.530179 0.571186
vt 0.529909 0.571792
vt 0.529866 0.571822
vt 0.529876 0.571797
vt 0.530255 0.571272
vt 0.530161 0.571202
vt 0.530319 0.570829
vt 0.530222 0.571174
vt 0.530196 0.570799
vt 0.530207 0.571093
vt 0.923852 0.693648
vt 0.924649 0.692851
vt 0.924135 0.693365
vt 0.529955 0.571592
vt 0.530311 0.571519
vt 0.530349 0.571439
vt 0.530161 0.571202
vt 0.892078 0.660814
vt 0.892345 0.660547
vt 0.891548 0.661344
vt 0.530034 0.571557
vt 0.530071 0.571393
vt 0.530313 0.570837
vt 0.530020 0.571637
vt 0.530033 0.571642
vt 0.530318 0.571434
vt 0.530207 0.571093
vt 0.530071 0.571393
vt 0.530000 0.571519
vt 0.529778 0.571712
vt 0.529696 0.571896
vt 0.529710 0.571908
vt 0.530383 0.571564
vn 0.5337 0.3080 0.7876
vn 0.2941 -0.2010 0.9344
vn -0.6139 0.6445 0.4558
vn -0.6068 0.6199 0.4975
vn 0.2253 -0.1656 0.9601
vn 0.0000 1.0000 -0.0000
vn 0.1230 0.0000 -0.9924
vn 0.2903 0.0000 -0.9569
vn 0.1951 0.0000 -0.9808
vn -0.1981 0.0020 -0.9802
vn -0.3825 0.0012 -0.9240
vn -0.3567 0.0042 -0.9342
vn -0.6344 0.0000 -0.7730
vn -0.5095 0.0000 -0.8605
vn -0.5556 0.0000 -0.8315
vn -0.0175 -0.0101 -0.9998
vn -0.0000 0.0000 -1.0000
vn 0.0000 -1.0000 0.0000
vn 0.0149 -0.9998 -0.0111
vn -0.1951 0.0000 -0.9808
vn 0.0980 0.0000 -0.9952
usemtl マテリアル.002
s off
f 26/1/1 1/2/1 34/3/1
f 35/4/1 37/5/1 27/6/1
f 34/7/2 1/8/2 22/9/2
f 1/2/3 26/10/3 18/11/3
f 27/12/3 37/13/3 38/14/3
f 23/15/4 1/16/4 47/17/4
f 23/18/5 22/19/5 1/16/5
f 34/3/1 32/20/1 12/21/1
f 12/21/1 29/22/1 34/3/1
f 29/22/1 26/1/1 34/3/1
f 26/10/3 41/23/3 18/11/3
f 18/11/3 45/24/3 47/25/3
f 47/25/3 1/2/3 18/11/3
s 1
f 28/26/6 2/27/6 5/28/6
f 31/29/7 33/30/8 50/31/9
f 43/32/10 24/33/11 42/34/12
f 44/35/13 46/36/14 25/37/15
f 24/33/11 46/36/14 42/34/12
f 36/38/16 39/39/16 15/40/16
f 31/29/7 50/31/9 48/41/17
f 16/42/18 19/43/18 7/44/18
f 9/45/19 20/46/19 11/47/19
f 51/48/17 49/49/20 43/32/10
f 5/28/6 40/50/6 28/26/6
f 28/26/6 30/51/6 2/27/6
f 43/32/10 49/49/20 24/33/11
f 24/33/11 25/37/15 46/36/14
f 48/41/17 51/48/17 14/52/21
f 14/52/21 31/29/7 48/41/17
f 17/53/18 8/54/18 19/43/18
f 8/54/18 7/44/18 19/43/18
f 7/44/18 6/55/18 10/56/18
f 6/55/18 4/57/18 10/56/18
f 4/57/18 3/58/18 10/56/18
f 3/58/18 13/59/18 10/56/18
f 10/56/18 16/42/18 7/44/18
f 16/42/18 21/60/18 19/43/18
f 51/48/17 48/41/17 49/49/20
