# Blender v3.2.0 OBJ File: 'GM.blend'
# www.blender.org
mtllib torii_broken_040.mtl
o 鳥居.001_cell.040_鳥居.001_cell.046
v -0.044612 -0.047682 0.093724
v -0.048045 -0.082599 0.066692
v -0.089352 -0.081877 0.021738
v -0.148786 -0.066975 -0.034531
v 0.022249 -0.078096 -0.005961
v 0.004430 0.076929 0.149585
v 0.029108 0.076916 0.122635
v -0.090158 0.076511 0.032617
v 0.029108 0.076723 0.032617
v -0.141074 0.072400 -0.030230
v -0.146675 0.056041 -0.036549
v -0.067168 0.072520 -0.030230
v 0.029111 0.072736 -0.030230
v 0.029134 0.049761 -0.039208
v -0.067177 0.049289 -0.039208
v -0.149033 0.049122 -0.039208
v -0.152187 -0.054562 -0.039208
v -0.062325 -0.054206 -0.039208
v -0.052553 -0.077932 -0.030230
v 0.030943 -0.052578 -0.039208
v 0.034368 -0.076045 -0.030230
v 0.074199 -0.051372 -0.039208
v 0.053984 -0.069070 -0.032679
v 0.158824 0.053911 -0.039208
v 0.105806 0.050504 -0.039208
v 0.161412 0.059641 -0.037006
v 0.105752 0.073178 -0.030230
v 0.169689 0.077657 -0.030230
v 0.134278 0.077597 0.008393
v 0.105745 0.077117 0.032617
v 0.112073 0.077565 0.032617
v 0.105745 0.077131 0.039147
v 0.046454 -0.075644 -0.030230
v 0.034988 -0.076861 -0.018782
v -0.042773 -0.082453 0.032617
v -0.042069 -0.082548 0.060223
v -0.016150 -0.081815 0.032617
v -0.079011 -0.082620 0.032617
v -0.138250 -0.078314 -0.030230
v 0.004430 0.076929 0.149585
v 0.029108 0.076916 0.122635
v -0.090158 0.076511 0.032617
v -0.141074 0.072400 -0.030230
v -0.141074 0.072400 -0.030230
v -0.146675 0.056041 -0.036549
v -0.067168 0.072520 -0.030230
v 0.029111 0.072736 -0.030230
v -0.149033 0.049122 -0.039208
v -0.152187 -0.054562 -0.039208
v -0.148786 -0.066975 -0.034531
v 0.053984 -0.069070 -0.032679
v 0.074199 -0.051372 -0.039208
v 0.158824 0.053911 -0.039208
v 0.161412 0.059641 -0.037006
v 0.169689 0.077657 -0.030230
v 0.169689 0.077657 -0.030230
v 0.105752 0.073178 -0.030230
v 0.134278 0.077597 0.008393
v 0.112073 0.077565 0.032617
v 0.105745 0.077131 0.039147
v 0.046454 -0.075644 -0.030230
v 0.046454 -0.075644 -0.030230
v 0.034368 -0.076045 -0.030230
v 0.034988 -0.076861 -0.018782
v 0.022249 -0.078096 -0.005961
v -0.052553 -0.077932 -0.030230
v -0.079011 -0.082620 0.032617
v -0.089352 -0.081877 0.021738
v -0.048045 -0.082599 0.066692
v -0.016150 -0.081815 0.032617
v -0.042069 -0.082548 0.060223
v -0.138250 -0.078314 -0.030230
v -0.138250 -0.078314 -0.030230
vt 0.773651 0.227534
vt 1.000000 0.000000
vt 0.957523 0.362032
vt 0.895109 0.268681
vt 0.608228 0.000000
vt 0.359039 0.359039
vt 0.639923 0.000000
vt 0.618397 0.184167
vt 1.000000 1.000000
vt 0.515504 0.515504
vt 0.887433 0.516972
vt 0.325430 0.248059
vt 0.241913 0.075856
vt 0.425850 0.402667
vt 0.503085 0.000000
vt 1.000000 0.391772
vt 1.000000 0.359039
vt 0.000000 0.000000
vt 0.516914 0.380477
vt 0.570571 0.349067
vt 0.593273 0.335849
vt 0.954324 0.336639
vt 1.000000 0.360077
vt 0.691688 0.470745
vt 0.656529 0.414167
vt 0.779064 0.414339
vt 0.855899 0.414430
vt 0.877951 0.415791
vt 0.844405 0.322933
vt 1.000000 0.515504
vt 0.702719 0.488739
vt 0.503085 0.503085
vt 0.356591 0.312193
vt 0.964240 0.439200
vt 0.966808 0.322320
vt 0.966808 0.457689
vt 0.477087 0.185042
vt 0.467968 0.185042
vt 0.467968 0.182155
vt 0.432905 0.175533
vt 0.419581 0.181577
vt 0.433913 0.175076
vt 0.419602 0.185041
vt 0.419580 0.185042
vt 0.467968 0.182155
vt 0.204489 0.181577
vt 0.434337 0.174884
vt 0.186908 0.173779
vt 0.187348 0.173974
vt 0.204489 0.185042
vt 0.155011 0.182154
vt 0.155011 0.174804
vt 0.155011 0.181319
vt 0.168509 0.185042
vt 0.155011 0.185042
vt 0.467968 0.185042
vt 0.419580 0.185042
vt 0.419580 0.185042
vt 0.467968 0.185042
vt 0.431451 0.185042
vt 0.473572 0.185042
vt 0.467968 0.185042
vt 0.477087 0.185042
vt 0.477087 0.185042
vt 0.966808 0.457689
vt 0.966808 0.447868
vt 0.966808 0.457689
vt 0.419647 0.185042
vt 0.467968 0.185042
vt 0.155011 0.185042
vt 0.155011 0.185042
vt 0.155011 0.185042
vt 0.153081 0.185042
vt 0.150922 0.185042
vt 0.155011 0.182154
vt 0.144415 0.185042
vt 0.144415 0.185042
vt 0.144415 0.185042
vt 0.206662 0.873659
vt 0.206662 0.873659
vt 0.206996 0.849638
vt 0.206662 0.873659
vt 0.207448 0.843933
vt 0.966040 0.241667
vt 0.470478 0.182950
vt 0.468752 0.182403
vt 0.419582 0.181577
vt 0.341717 0.185042
vt 0.249443 0.185042
vt 0.204489 0.173397
vt 0.386737 0.174156
vt 0.155011 0.173805
vt 0.204489 0.185042
vt 0.467968 0.185042
vt 0.144415 0.185042
vt 0.155011 0.174804
vn 0.6330 -0.5118 0.5808
vn -0.6752 -0.4089 0.6139
vn -0.6810 -0.4001 0.6133
vn -0.7774 0.0242 0.6286
vn 0.6342 -0.5101 0.5810
vn -0.7775 0.0235 0.6284
vn -0.7776 0.0237 0.6284
vn -0.7777 0.0237 0.6282
vn -0.7777 0.0238 0.6281
vn 0.6345 -0.5099 0.5809
vn 0.6344 -0.5100 0.5809
vn 0.6344 -0.5099 0.5809
vn 0.6343 -0.5100 0.5810
vn 0.6342 -0.5100 0.5811
vn -0.0017 0.9989 -0.0465
vn -0.0026 1.0000 -0.0021
vn -0.0036 0.9995 -0.0327
vn -0.0040 0.9980 -0.0633
vn -0.0018 0.9980 -0.0639
vn -0.0006 0.3605 -0.9328
vn -0.0006 0.1832 -0.9831
vn -0.0007 0.3596 -0.9331
vn -0.0020 0.3644 -0.9312
vn -0.0011 0.1848 -0.9828
vn -0.0011 0.3608 -0.9327
vn 0.0017 -0.1800 -0.9837
vn -0.0003 0.1607 -0.9870
vn 0.0007 -0.1657 -0.9862
vn 0.0015 -0.3527 -0.9357
vn 0.0044 -0.1814 -0.9834
vn 0.0045 -0.3528 -0.9357
vn 0.0016 -0.3533 -0.9355
vn 0.0102 -0.3567 -0.9342
vn 0.0091 -0.3567 -0.9342
vn -0.0133 0.3675 -0.9299
vn -0.0170 0.2651 -0.9641
vn -0.0064 0.1840 -0.9829
vn -0.0254 0.3621 -0.9318
vn -0.0246 0.3648 -0.9308
vn -0.0698 0.9956 -0.0624
vn -0.0375 0.9973 -0.0627
vn -0.0378 0.9988 -0.0325
vn -0.0706 0.9964 -0.0476
vn -0.0211 0.9998 -0.0021
vn 0.0120 -0.3612 -0.9324
vn 0.0279 -0.9969 -0.0732
vn 0.0331 -0.9968 -0.0728
vn 0.0263 -0.9970 -0.0725
vn 0.0239 -0.9971 -0.0723
vn 0.0122 -0.9972 -0.0737
vn 0.0143 -0.9992 -0.0386
vn 0.0046 -0.9985 -0.0543
vn 0.0045 -0.9974 -0.0725
vn 0.0239 -0.9982 -0.0548
vn 0.0094 -0.9999 -0.0037
vn 0.0046 -1.0000 -0.0036
vn -0.0018 1.0000 -0.0021
vn -0.0016 0.9980 -0.0640
vn 0.0024 -0.0871 -0.9962
vn -0.0697 0.9956 -0.0624
vn 0.0044 -0.9974 -0.0726
usemtl マテリアル.002
s off
f 37/1/1 1/2/1 36/3/1
f 1/2/2 38/4/2 69/5/2
f 68/6/3 50/7/3 73/8/3
f 1/9/4 40/10/4 42/11/4
f 51/12/5 22/13/5 64/14/5
f 65/15/1 1/2/1 37/1/1
f 1/2/1 69/16/1 36/3/1
f 1/2/2 68/17/2 38/4/2
f 68/6/3 1/18/3 50/7/3
f 43/19/6 45/20/6 42/11/6
f 45/20/6 16/21/6 42/11/6
f 16/21/7 49/22/7 42/11/7
f 49/22/8 50/23/8 1/9/8
f 42/11/9 49/22/9 1/9/9
f 54/24/10 55/25/10 58/26/10
f 58/26/11 59/27/11 22/13/11
f 59/27/12 60/28/12 22/13/12
f 41/29/5 40/30/5 1/9/5
f 54/24/10 58/26/10 53/31/10
f 53/31/12 58/26/12 22/13/12
f 60/28/13 41/29/13 65/32/13
f 41/29/5 1/9/5 65/32/5
f 65/32/5 64/14/5 22/13/5
f 60/28/14 65/32/14 22/13/14
f 64/14/5 61/33/5 51/12/5
s 1
f 8/34/15 7/35/16 9/36/17
f 9/37/17 47/38/18 46/39/19
f 10/40/20 15/41/21 11/42/22
f 13/43/23 14/44/24 12/45/25
f 12/45/25 14/44/24 15/41/21
f 18/46/26 15/41/21 14/44/24
f 11/42/22 15/41/21 48/47/27
f 17/48/28 18/46/26 4/49/29
f 18/46/26 20/50/30 66/51/31
f 72/52/32 18/53/26 66/51/31
f 20/50/30 23/54/33 63/55/34
f 20/50/30 63/55/34 66/51/31
f 57/56/35 24/57/36 25/58/37
f 57/56/35 56/59/38 26/60/39
f 29/61/40 27/62/41 30/63/42
f 30/63/42 31/64/43 29/61/40
f 30/65/42 32/66/44 31/67/43
f 32/66/44 9/36/17 7/35/16
f 9/37/17 27/62/41 47/38/18
f 57/68/35 25/58/37 13/69/23
f 13/69/23 25/58/37 14/44/24
f 63/55/34 23/54/33 62/70/45
f 21/71/46 33/72/47 34/73/48
f 21/71/46 34/73/48 5/74/49
f 19/75/50 21/71/46 35/76/51
f 35/76/51 67/77/52 3/78/53
f 35/79/51 70/80/54 71/81/55
f 67/82/52 71/81/55 2/83/56
f 8/34/15 6/84/57 7/35/16
f 44/85/58 8/86/15 46/39/19
f 8/86/15 9/37/17 46/39/19
f 10/40/20 12/87/25 15/41/21
f 25/58/37 24/88/36 52/89/59
f 52/89/59 20/50/30 14/44/24
f 20/50/30 18/46/26 14/44/24
f 18/46/26 17/90/28 15/41/21
f 17/90/28 48/91/27 15/41/21
f 25/58/37 52/89/59 14/44/24
f 72/52/32 4/92/29 18/53/26
f 20/50/30 52/93/59 23/54/33
f 57/56/35 26/60/39 24/57/36
f 29/61/40 28/94/60 27/62/41
f 32/66/44 30/65/42 9/36/17
f 9/37/17 30/63/42 27/62/41
f 70/95/54 35/76/51 5/74/49
f 35/76/51 21/71/46 5/74/49
f 3/78/53 39/96/61 19/75/50
f 19/75/50 35/76/51 3/78/53
f 67/82/52 35/79/51 71/81/55
