# Blender 3.1.0
# www.blender.org
mtllib arrow.mtl
o arrow
v -0.000000 0.012129 -0.509153
v -0.000000 0.012129 0.352686
v 0.002366 0.011896 -0.509153
v 0.002366 0.011896 0.352686
v 0.004642 0.011206 -0.509153
v 0.004642 0.011206 0.352686
v 0.006739 0.010085 -0.509153
v 0.006739 0.010085 0.352686
v 0.008576 0.008577 -0.509153
v 0.008576 0.008576 0.352686
v 0.010085 0.006739 -0.509153
v 0.010085 0.006738 0.352686
v 0.011206 0.004642 -0.509153
v 0.011206 0.004642 0.352686
v 0.011896 0.002366 -0.509153
v 0.011896 0.002366 0.352686
v 0.012129 0.000000 -0.509153
v 0.012129 0.000000 0.352686
v 0.011896 -0.002366 -0.509153
v 0.011896 -0.002366 0.352686
v 0.011206 -0.004642 -0.509153
v 0.011206 -0.004642 0.352686
v 0.010085 -0.006738 -0.509153
v 0.010085 -0.006739 0.352686
v 0.008576 -0.008576 -0.509153
v 0.008576 -0.008577 0.352686
v 0.006739 -0.010085 -0.509153
v 0.006739 -0.010085 0.352686
v 0.004642 -0.011206 -0.509153
v 0.004642 -0.011206 0.352686
v 0.002366 -0.011896 -0.509153
v 0.002366 -0.011896 0.352686
v -0.000000 -0.012129 -0.509153
v -0.000000 -0.012129 0.352686
v -0.002366 -0.011896 -0.509153
v -0.002366 -0.011896 0.352686
v -0.004642 -0.011206 -0.509153
v -0.004642 -0.011206 0.352686
v -0.006739 -0.010085 -0.509153
v -0.006739 -0.010085 0.352686
v -0.008576 -0.008576 -0.509153
v -0.008576 -0.008577 0.352686
v -0.010085 -0.006738 -0.509153
v -0.010085 -0.006739 0.352686
v -0.011206 -0.004642 -0.509153
v -0.011206 -0.004642 0.352686
v -0.011896 -0.002366 -0.509153
v -0.011896 -0.002366 0.352686
v -0.012129 0.000000 -0.509153
v -0.012129 0.000000 0.352686
v -0.011896 0.002366 -0.509153
v -0.011896 0.002366 0.352686
v -0.011206 0.004642 -0.509153
v -0.011206 0.004642 0.352686
v -0.010085 0.006739 -0.509153
v -0.010085 0.006738 0.352686
v -0.008576 0.008577 -0.509153
v -0.008576 0.008576 0.352686
v -0.006739 0.010085 -0.509153
v -0.006739 0.010085 0.352686
v -0.004642 0.011206 -0.509153
v -0.004642 0.011206 0.352686
v -0.002366 0.011896 -0.509153
v -0.002366 0.011896 0.352686
v -0.088655 -0.088655 0.174158
v -0.046493 0.000000 0.300169
v -0.000000 0.000000 0.470580
v -0.000000 -0.046493 0.300169
v -0.037600 -0.037600 0.262413
v -0.024542 0.000000 0.290506
v -0.000000 -0.024542 0.290506
v -0.000000 0.000000 0.427375
v -0.000000 0.046493 0.300169
v 0.046493 0.000000 0.300169
v 0.037600 -0.037600 0.262413
v -0.037600 0.037600 0.262413
v -0.000000 0.024542 0.290506
v 0.037600 0.037600 0.262413
v 0.024542 0.000000 0.290506
v 0.088655 0.088655 0.174158
v -0.088655 0.088655 0.174158
v 0.088655 -0.088655 0.174158
vn 0.0980 0.9952 -0.0000
vn 0.2903 0.9569 -0.0000
vn 0.4714 0.8819 -0.0000
vn 0.6344 0.7730 -0.0000
vn 0.7730 0.6344 -0.0000
vn 0.8819 0.4714 -0.0000
vn 0.9569 0.2903 -0.0000
vn 0.9952 0.0980 -0.0000
vn 0.9952 -0.0980 -0.0000
vn 0.9569 -0.2903 -0.0000
vn 0.8819 -0.4714 -0.0000
vn 0.7730 -0.6344 -0.0000
vn 0.6344 -0.7730 -0.0000
vn 0.4714 -0.8819 -0.0000
vn 0.2903 -0.9569 -0.0000
vn 0.0980 -0.9952 -0.0000
vn -0.0980 -0.9952 -0.0000
vn -0.2903 -0.9569 -0.0000
vn -0.4714 -0.8819 -0.0000
vn -0.6344 -0.7730 -0.0000
vn -0.7730 -0.6344 -0.0000
vn -0.8819 -0.4714 -0.0000
vn -0.9569 -0.2903 -0.0000
vn -0.9952 -0.0980 -0.0000
vn -0.9952 0.0980 -0.0000
vn -0.9569 0.2903 -0.0000
vn -0.8819 0.4714 -0.0000
vn -0.7730 0.6344 -0.0000
vn -0.6344 0.7730 -0.0000
vn -0.4714 0.8819 -0.0000
vn -0.0000 -0.0000 1.0000
vn -0.2903 0.9569 -0.0000
vn -0.0980 0.9952 -0.0000
vn -0.0000 -0.0000 -1.0000
vn 0.3600 0.7021 -0.6144
vn 0.5700 0.5700 -0.5917
vn -0.9613 0.0844 0.2623
vn 0.0844 -0.9613 0.2623
vn -0.7021 -0.3600 0.6144
vn 0.9633 -0.2055 -0.1727
vn 0.2055 -0.9633 0.1727
vn -0.6846 0.6846 -0.2502
vn -0.6846 -0.6846 -0.2502
vn 0.5700 -0.5700 -0.5917
vn 0.2055 0.9633 -0.1727
vn 0.9633 0.2055 0.1727
vn -0.9633 -0.2055 0.1727
vn 0.2055 0.9633 0.1727
vn -0.2055 0.9633 0.1727
vn -0.9633 0.2055 -0.1727
vn -0.3600 -0.7021 -0.6144
vn 0.3600 -0.7021 0.6144
vn 0.7021 0.3600 0.6144
vn 0.9613 -0.0844 0.2623
vn -0.0844 0.9613 0.2623
vn -0.6358 -0.3110 0.7064
vn -0.3600 0.7021 0.6144
vn 0.0844 0.9613 0.2623
vn -0.9613 -0.0844 0.2623
vn -0.7021 0.3600 -0.6144
vn -0.0844 -0.9613 0.2623
vn 0.9613 0.0844 0.2623
vn -0.0000 -0.0001 1.0000
vn -0.0000 0.0001 1.0000
vn -0.0000 -0.0002 -1.0000
vn -0.0000 0.0001 -1.0000
vn -0.0000 0.0002 -1.0000
vn -0.0000 -0.0001 -1.0000
vn -0.3110 0.6358 -0.7064
vn 0.6846 0.6846 -0.2502
vn -0.6358 0.3110 0.7064
vn -0.5700 0.5700 -0.5917
vn -0.5700 -0.5700 -0.5917
vn 0.6846 -0.6846 -0.2502
vn 0.3110 -0.6358 -0.7064
vn -0.3110 -0.6358 0.7064
vn 0.6358 -0.3110 0.7064
vn -0.7021 0.3600 0.6144
vn 0.3110 0.6358 0.7064
vn -0.6358 -0.3110 -0.7064
vt 1.000000 0.500000
vt 0.000000 0.500000
vt 0.750000 0.490000
vt 1.000000 1.000000
vt 0.250000 0.490000
vt 0.000000 1.000000
vt 0.968750 0.500000
vt 0.796822 0.485388
vt 0.968750 1.000000
vt 0.296822 0.485388
vt 0.937500 0.500000
vt 0.841844 0.471731
vt 0.937500 1.000000
vt 0.341844 0.471731
vt 0.906250 0.500000
vt 0.883337 0.449553
vt 0.906250 1.000000
vt 0.383337 0.449553
vt 0.875000 0.500000
vt 0.919706 0.419706
vt 0.875000 1.000000
vt 0.419706 0.419706
vt 0.843750 0.500000
vt 0.949553 0.383337
vt 0.843750 1.000000
vt 0.449553 0.383337
vt 0.812500 0.500000
vt 0.971731 0.341844
vt 0.812500 1.000000
vt 0.471731 0.341844
vt 0.781250 0.500000
vt 0.985388 0.296822
vt 0.781250 1.000000
vt 0.485388 0.296822
vt 0.750000 0.500000
vt 0.990000 0.250000
vt 0.750000 1.000000
vt 0.490000 0.250000
vt 0.718750 0.500000
vt 0.985388 0.203178
vt 0.718750 1.000000
vt 0.485388 0.203178
vt 0.687500 0.500000
vt 0.971731 0.158156
vt 0.687500 1.000000
vt 0.471731 0.158156
vt 0.656250 0.500000
vt 0.949553 0.116663
vt 0.656250 1.000000
vt 0.449553 0.116663
vt 0.625000 0.500000
vt 0.919706 0.080294
vt 0.625000 1.000000
vt 0.419706 0.080294
vt 0.593750 0.500000
vt 0.883337 0.050447
vt 0.593750 1.000000
vt 0.383337 0.050447
vt 0.562500 0.500000
vt 0.841844 0.028269
vt 0.562500 1.000000
vt 0.341844 0.028269
vt 0.531250 0.500000
vt 0.796822 0.014612
vt 0.531250 1.000000
vt 0.296822 0.014612
vt 0.500000 0.500000
vt 0.750000 0.010000
vt 0.500000 1.000000
vt 0.250000 0.010000
vt 0.468750 0.500000
vt 0.703178 0.014612
vt 0.468750 1.000000
vt 0.203178 0.014612
vt 0.437500 0.500000
vt 0.658156 0.028269
vt 0.437500 1.000000
vt 0.158156 0.028269
vt 0.406250 0.500000
vt 0.616663 0.050447
vt 0.406250 1.000000
vt 0.116663 0.050447
vt 0.375000 0.500000
vt 0.580294 0.080294
vt 0.375000 1.000000
vt 0.080294 0.080294
vt 0.343750 0.500000
vt 0.550447 0.116663
vt 0.343750 1.000000
vt 0.050447 0.116663
vt 0.312500 0.500000
vt 0.528269 0.158156
vt 0.312500 1.000000
vt 0.028269 0.158156
vt 0.281250 0.500000
vt 0.514612 0.203178
vt 0.281250 1.000000
vt 0.014612 0.203178
vt 0.250000 0.500000
vt 0.510000 0.250000
vt 0.250000 1.000000
vt 0.010000 0.250000
vt 0.218750 0.500000
vt 0.514612 0.296822
vt 0.218750 1.000000
vt 0.014612 0.296822
vt 0.187500 0.500000
vt 0.528269 0.341844
vt 0.187500 1.000000
vt 0.028269 0.341844
vt 0.156250 0.500000
vt 0.550447 0.383337
vt 0.156250 1.000000
vt 0.050447 0.383337
vt 0.125000 0.500000
vt 0.580294 0.419706
vt 0.125000 1.000000
vt 0.080294 0.419706
vt 0.093750 0.500000
vt 0.616663 0.449553
vt 0.093750 1.000000
vt 0.116663 0.449553
vt 0.062500 0.500000
vt 0.658156 0.471731
vt 0.158156 0.471731
vt 0.062500 1.000000
vt 0.031250 0.500000
vt 0.703178 0.485388
vt 0.203178 0.485388
vt 0.031250 1.000000
vt 0.125000 0.750000
vt 0.375000 0.000000
vt 0.375000 1.000000
vt 0.125000 0.625000
vt 0.375000 0.125000
vt 0.625000 0.125000
vt 0.625000 1.000000
vt 0.625000 0.625000
vt 0.625000 0.500000
vt 0.625000 0.375000
vt 0.625000 0.250000
vt 0.625000 0.875000
vt 0.625000 0.750000
vt 0.375000 0.875000
vt 0.250000 0.750000
vt 0.125000 0.750000
vt 0.375000 1.000000
vt 0.125000 0.625000
vt 0.375000 0.125000
vt 0.375000 0.875000
vt 0.250000 0.750000
vt 0.125000 0.750000
vt 0.375000 1.000000
vt 0.375000 0.750000
vt 0.375000 0.250000
vt 0.375000 0.375000
vt 0.375000 0.500000
vt 0.250000 0.625000
vt 0.250000 0.500000
vt 0.375000 0.375000
vt 0.375000 0.625000
vt 0.375000 0.750000
vt 0.375000 0.250000
vt 0.375000 0.375000
vt 0.375000 0.500000
vt 0.375000 0.625000
vt 0.375000 0.500000
vt 0.125000 0.500000
vt 0.375000 0.250000
vt 0.375000 0.750000
s 0
usemtl マテリアル.003
f 2/4/1 3/7/1 1/1/1
f 4/9/2 5/11/2 3/7/2
f 6/13/3 7/15/3 5/11/3
f 8/17/4 9/19/4 7/15/4
f 10/21/5 11/23/5 9/19/5
f 12/25/6 13/27/6 11/23/6
f 14/29/7 15/31/7 13/27/7
f 16/33/8 17/35/8 15/31/8
f 18/37/9 19/39/9 17/35/9
f 20/41/10 21/43/10 19/39/10
f 22/45/11 23/47/11 21/43/11
f 23/47/12 26/53/12 25/51/12
f 26/53/13 27/55/13 25/51/13
f 28/57/14 29/59/14 27/55/14
f 29/59/15 32/65/15 31/63/15
f 32/65/16 33/67/16 31/63/16
f 34/69/17 35/71/17 33/67/17
f 36/73/18 37/75/18 35/71/18
f 38/77/19 39/79/19 37/75/19
f 40/81/20 41/83/20 39/79/20
f 42/85/21 43/87/21 41/83/21
f 44/89/22 45/91/22 43/87/22
f 46/93/23 47/95/23 45/91/23
f 48/97/24 49/99/24 47/95/24
f 50/101/25 51/103/25 49/99/25
f 52/105/26 53/107/26 51/103/26
f 54/109/27 55/111/27 53/107/27
f 56/113/28 57/115/28 55/111/28
f 58/117/29 59/119/29 57/115/29
f 60/121/30 61/123/30 59/119/30
f 38/78/31 22/46/31 6/14/31
f 62/126/32 63/127/32 61/123/32
f 64/130/33 1/2/33 63/127/33
f 31/64/34 47/96/34 63/128/34
f 66/134/35 69/146/35 65/131/35
f 66/134/36 68/145/36 65/131/36
f 65/132/37 67/136/37 66/135/37
f 68/144/38 67/137/38 65/133/38
f 68/144/39 69/147/39 65/133/39
f 69/146/40 70/148/40 72/152/40
f 69/147/41 71/150/41 72/153/41
f 74/161/42 68/145/42 72/158/42
f 73/159/43 74/161/43 72/158/43
f 73/159/44 66/134/44 81/168/44
f 75/162/45 71/151/45 72/154/45
f 75/162/46 79/166/46 72/154/46
f 76/163/47 70/149/47 72/155/47
f 77/164/48 76/163/48 72/156/48
f 78/165/49 77/164/49 72/157/49
f 78/165/50 79/166/50 72/157/50
f 74/161/51 78/165/51 80/167/51
f 74/161/52 75/162/52 82/170/52
f 73/160/53 78/165/53 80/167/53
f 80/167/54 67/138/54 74/161/54
f 73/160/55 67/139/55 80/167/55
f 73/160/56 76/163/56 77/164/56
f 66/135/57 76/163/57 81/169/57
f 81/169/58 67/140/58 73/160/58
f 66/135/59 67/141/59 81/169/59
f 68/145/60 75/162/60 82/170/60
f 82/170/61 67/142/61 68/144/61
f 74/161/62 67/143/62 82/170/62
f 2/4/1 4/9/1 3/7/1
f 4/9/2 6/13/2 5/11/2
f 6/13/3 8/17/3 7/15/3
f 8/17/4 10/21/4 9/19/4
f 10/21/5 12/25/5 11/23/5
f 12/25/6 14/29/6 13/27/6
f 14/29/7 16/33/7 15/31/7
f 16/33/8 18/37/8 17/35/8
f 18/37/9 20/41/9 19/39/9
f 20/41/10 22/45/10 21/43/10
f 22/45/11 24/49/11 23/47/11
f 23/47/12 24/49/12 26/53/12
f 26/53/13 28/57/13 27/55/13
f 28/57/14 30/61/14 29/59/14
f 29/59/15 30/61/15 32/65/15
f 32/65/16 34/69/16 33/67/16
f 34/69/17 36/73/17 35/71/17
f 36/73/18 38/77/18 37/75/18
f 38/77/19 40/81/19 39/79/19
f 40/81/20 42/85/20 41/83/20
f 42/85/21 44/89/21 43/87/21
f 44/89/22 46/93/22 45/91/22
f 46/93/23 48/97/23 47/95/23
f 48/97/24 50/101/24 49/99/24
f 50/101/25 52/105/25 51/103/25
f 52/105/26 54/109/26 53/107/26
f 54/109/27 56/113/27 55/111/27
f 56/113/28 58/117/28 57/115/28
f 58/117/29 60/121/29 59/119/29
f 60/121/30 62/126/30 61/123/30
f 6/14/63 4/10/63 2/5/63
f 2/5/64 64/129/64 62/125/64
f 62/125/64 60/122/64 58/118/64
f 58/118/31 56/114/31 54/110/31
f 54/110/31 52/106/31 50/102/31
f 50/102/31 48/98/31 46/94/31
f 46/94/64 44/90/64 42/86/64
f 42/86/31 40/82/31 38/78/31
f 38/78/64 36/74/64 34/70/64
f 34/70/63 32/66/63 30/62/63
f 30/62/31 28/58/31 26/54/31
f 26/54/31 24/50/31 22/46/31
f 22/46/31 20/42/31 18/38/31
f 18/38/31 16/34/31 14/30/31
f 14/30/31 12/26/31 10/22/31
f 10/22/31 8/18/31 6/14/31
f 6/14/63 2/5/63 62/125/63
f 62/125/31 58/118/31 54/110/31
f 54/110/31 50/102/31 46/94/31
f 46/94/31 42/86/31 38/78/31
f 38/78/31 34/70/31 30/62/31
f 30/62/31 26/54/31 22/46/31
f 22/46/31 18/38/31 14/30/31
f 14/30/31 10/22/31 6/14/31
f 6/14/31 62/125/31 54/110/31
f 54/110/31 46/94/31 38/78/31
f 38/78/31 30/62/31 22/46/31
f 22/46/31 14/30/31 6/14/31
f 6/14/31 54/110/31 38/78/31
f 62/126/32 64/130/32 63/127/32
f 64/130/33 2/6/33 1/2/33
f 63/128/65 1/3/65 3/8/65
f 3/8/34 5/12/34 7/16/34
f 7/16/34 9/20/34 11/24/34
f 11/24/34 13/28/34 15/32/34
f 15/32/34 17/36/34 19/40/34
f 19/40/34 21/44/34 23/48/34
f 23/48/66 25/52/66 27/56/66
f 27/56/67 29/60/67 31/64/67
f 31/64/67 33/68/67 35/72/67
f 35/72/34 37/76/34 39/80/34
f 39/80/34 41/84/34 43/88/34
f 43/88/34 45/92/34 47/96/34
f 47/96/34 49/100/34 51/104/34
f 51/104/34 53/108/34 55/112/34
f 55/112/68 57/116/68 59/120/68
f 59/120/65 61/124/65 63/128/65
f 63/128/68 3/8/68 7/16/68
f 7/16/34 11/24/34 15/32/34
f 15/32/34 19/40/34 23/48/34
f 23/48/68 27/56/68 31/64/68
f 31/64/66 35/72/66 39/80/66
f 39/80/34 43/88/34 47/96/34
f 47/96/34 51/104/34 55/112/34
f 55/112/68 59/120/68 63/128/68
f 63/128/34 7/16/34 15/32/34
f 15/32/34 23/48/34 31/64/34
f 31/64/34 39/80/34 47/96/34
f 47/96/34 55/112/34 63/128/34
f 63/128/34 15/32/34 31/64/34
f 66/134/69 70/148/69 69/146/69
f 66/134/70 72/158/70 68/145/70
f 68/144/71 71/150/71 69/147/71
f 74/161/72 82/170/72 68/145/72
f 73/159/73 80/167/73 74/161/73
f 73/159/74 72/158/74 66/134/74
f 74/161/75 79/166/75 78/165/75
f 74/161/76 79/166/76 75/162/76
f 73/160/77 77/164/77 78/165/77
f 73/160/78 81/169/78 76/163/78
f 66/135/79 70/149/79 76/163/79
f 68/145/80 71/151/80 75/162/80
